<?xml version="1.0" standalone="no"?>
<!DOCTYPE svg PUBLIC "-//W3C//DTD SVG 1.1//EN" "http://www.w3.org/Graphics/SVG/1.1/DTD/svg11.dtd" >
<svg xmlns="http://www.w3.org/2000/svg">
<metadata>
Created by FontPrep 20130207 at Tue Dec  1 12:15:02 2015
 By Greg Greenhaw
(c) 2014 Apple Inc. All rights reserved.
</metadata>
<defs>
<font id="87b684eb363a7d9718ac971d429414c8" horiz-adv-x='1024' >
  <font-face 
    font-family=".HelveticaNeueDeskInterface-UltraLightP2"
    font-weight="250"
    font-stretch="normal"
    units-per-em="2048"
    panose-1="0 0 2 0 0 0 0 0 0 0"
    ascent="1638"
    descent="-410"
    x-height="1076"
    cap-height="1443"
    bbox="-467 -833 2396 2083"
    underline-thickness="50"
    underline-position="-25"
    unicode-range="U+0020-FB02"
  />
<missing-glyph horiz-adv-x="1293" 
d="M632 1018q56 0 88.5 -29.5t32.5 -73.5t-21 -73t-86 -75t-91.5 -96.5t-21.5 -139.5h166v15q0 47 19 75t71 66q89 64 119.5 113.5t30.5 111.5q0 119 -81.5 187t-219.5 68t-220.5 -76t-78.5 -203h169q1 60 34.5 95t89.5 35zM501 313q0 -48 33 -77.5t88 -29.5t88 30t33 78
t-33 77.5t-88 29.5t-88 -30t-33 -78zM120 1365h1053v-1365h-1053v1365z" />
    <glyph glyph-name=".notdef" horiz-adv-x="1293" 
d="M632 1018q56 0 88.5 -29.5t32.5 -73.5t-21 -73t-86 -75t-91.5 -96.5t-21.5 -139.5h166v15q0 47 19 75t71 66q89 64 119.5 113.5t30.5 111.5q0 119 -81.5 187t-219.5 68t-220.5 -76t-78.5 -203h169q1 60 34.5 95t89.5 35zM501 313q0 -48 33 -77.5t88 -29.5t88 30t33 78
t-33 77.5t-88 29.5t-88 -30t-33 -78zM120 1365h1053v-1365h-1053v1365z" />
    <glyph glyph-name=".null" 
 />
    <glyph glyph-name="nonmarkingreturn" 
 />
    <glyph glyph-name="space" unicode=" " horiz-adv-x="381" 
 />
    <glyph glyph-name="exclam" unicode="!" horiz-adv-x="500" 
d="M250 -10q-24 0 -41 17t-17 41t17 40.5t41 16.5t41 -16.5t17 -40.5t-17 -41t-41 -17zM277 1443l-1 -1032h-52l-1 1032h54z" />
    <glyph glyph-name="quotedbl" unicode="&#x22;" horiz-adv-x="494" 
d="M346 998v445h49v-445h-49zM99 998v445h48v-445h-48z" />
    <glyph glyph-name="numbersign" unicode="#" horiz-adv-x="1229" 
d="M355 496h405l90 455h-404zM899 951l-91 -454h269l-9 -46h-269l-95 -451h-49l95 451h-405l-94 -451h-49l96 451h-257l8 46h258l91 454h-244l8 46h244l94 453h48l-94 -453h405l94 453h48l-94 -453h283l-9 -46h-282z" />
    <glyph glyph-name="dollar" unicode="$" horiz-adv-x="1179" 
d="M255 898q89 -71 310 -125v644q-172 -6 -285.5 -99t-113.5 -221t89 -199zM942 580q-95 77 -333 134v-687q182 6 305 104.5t123 235.5q0 136 -95 213zM565 -176v156q-201 6 -340.5 121t-143.5 281h49q6 -141 132.5 -245t302.5 -110v696l-5 2q-244 57 -343.5 139t-99.5 232
t126.5 255.5t321.5 111.5v133h44v-133q186 -8 315 -112.5t133 -247.5h-50q-6 124 -121.5 215t-276.5 99v-655q99 -17 208 -59.5t189.5 -110t80.5 -226.5t-135.5 -268.5t-342.5 -117.5v-156h-44z" />
    <glyph glyph-name="percent" unicode="%" horiz-adv-x="1395" 
d="M123 0l1081 1443h59l-1081 -1443h-59zM429 892.5q50 81.5 50 217.5q0 211 -72.5 255t-117.5 44t-80.5 -21.5t-60 -61t-37.5 -94.5t-13 -122t13 -122t51 -116t127.5 -61t139.5 81.5zM528 1110q0 -77 -16 -140t-47 -107.5t-75 -69t-101 -24.5t-101 24.5t-75 69t-47 107.5
t-16 140t16 140t47 107.5t75 69t101 24.5t101 -24.5t75 -69t47 -107.5t16 -140zM1246 113.5q50 81.5 50 217.5q0 211 -72.5 255t-117.5 44t-80.5 -21.5t-60 -61t-37.5 -94.5t-13 -122t13 -122t51 -116t127.5 -61t139.5 81.5zM1345 331q0 -77 -16 -140t-47 -107.5t-75 -69
t-101 -24.5t-101 24.5t-75 69t-47 107.5t-16 140t16 140t47 107.5t75 69t101 24.5t101 -24.5t75 -69t47 -107.5t16 -140z" />
    <glyph glyph-name="ampersand" unicode="&#x26;" horiz-adv-x="1375" 
d="M849 1167q0 106 -81.5 178t-197.5 72t-202 -75t-86 -178q0 -71 45 -141.5t179 -206.5q343 163 343 351zM121 372q0 -155 111.5 -250.5t294.5 -95.5t299.5 85.5t157.5 133.5l-490 514l-120 -64q-131 -70 -192 -155.5t-61 -167.5zM72 361q0 224 273 371q1 0 31.5 16.5
t85.5 45.5q-133 133 -181 211.5t-48 149.5q0 135 98.5 221t238.5 86t234 -83t94 -211q0 -154 -131.5 -245t-229.5 -140l478 -503q99 148 119.5 265t20.5 168v88h49v-87q0 -172 -60 -294t-94 -171l244 -249h-65l-209 215q-145 -167 -288.5 -201t-227.5 -34t-166.5 28.5
t-174 107t-91.5 245.5z" />
    <glyph glyph-name="quotesingle" unicode="'" horiz-adv-x="246" 
d="M99 998v445h48v-445h-48z" />
    <glyph glyph-name="parenleft" unicode="(" horiz-adv-x="550" 
d="M147 594.5q0 500.5 269 848.5h53q-196 -262 -234 -494t-38 -410t73 -400t199 -390h-54q-268 345 -268 845.5z" />
    <glyph glyph-name="parenright" unicode=")" horiz-adv-x="550" 
d="M403 593.5q0 -499.5 -268 -844.5h-53q196 266 234 497t38 407.5t-73 398.5t-199 391h53q268 -350 268 -849.5z" />
    <glyph glyph-name="asterisk" unicode="*" horiz-adv-x="943" 
d="M493 1009l2 -355h-47l2 355l-306 -180l-23 40l308 176l-308 175l23 41l306 -180l-2 356h47l-2 -356l306 180l23 -40l-308 -175l308 -176l-23 -41z" />
    <glyph glyph-name="plus" unicode="+" horiz-adv-x="1178" 
d="M614 37h-49v517h-461v47h461v503h49v-503h460v-47h-460v-517z" />
    <glyph glyph-name="comma" unicode="," horiz-adv-x="490" 
d="M172 -211l56 384h53l-67 -384h-42z" />
    <glyph glyph-name="hyphen" unicode="-" horiz-adv-x="865" 
d="M104 554v47h656v-47h-656z" />
    <glyph glyph-name="period" unicode="." horiz-adv-x="488" 
d="M244 -10q-24 0 -40.5 17t-16.5 41t16.5 40.5t40.5 16.5t40.5 -16.5t16.5 -40.5t-16.5 -41t-40.5 -17z" />
    <glyph glyph-name="slash" unicode="/" horiz-adv-x="497" 
d="M0 -332l448 1775h49l-449 -1775h-48z" />
    <glyph glyph-name="zero" unicode="0" horiz-adv-x="1181" 
d="M590 26q105 0 189 48.5t143.5 139t91 219.5t31.5 289t-31.5 288.5t-91 219t-143.5 139t-189 48.5t-189 -48.5t-143 -139t-91 -219t-32 -288.5t31.5 -289t91 -219.5t143.5 -139t189 -48.5zM221.5 1263q136.5 200 368.5 200q233 0 369 -199.5t136 -542t-136 -542
t-369 -199.5t-369 199.5t-136 541.5t136.5 542z" />
    <glyph glyph-name="one" unicode="1" horiz-adv-x="774" 
d="M533 1450v-1450h-49v1390h-2q-27 -16 -51.5 -31t-103.5 -64.5t-242 -151.5v57l399 250h49z" />
    <glyph glyph-name="two" unicode="2" horiz-adv-x="1138" 
d="M866 1351q123 -112 123 -278q0 -113 -63 -220t-243 -297l-476 -505v-4h845v-47h-919v41l514 547q174 184 219.5 260t59 124t13.5 110t-29 125.5t-109 136.5t-241 73t-269.5 -101t-112.5 -254h-50q6 176 128 288.5t305 112.5q182 0 305 -112z" />
    <glyph glyph-name="three" unicode="3" horiz-adv-x="1126" 
d="M376 774h158q173 0 283 90t110 231t-109 231.5t-266 90.5t-266.5 -90.5t-117.5 -223.5h-49q8 155 129.5 257.5t302.5 102.5t303.5 -103.5t122.5 -248.5t-82.5 -237.5t-226.5 -118.5v-4q169 -10 270.5 -108t101.5 -265q0 -166 -136.5 -282t-339.5 -116
q-204 0 -340.5 108.5t-138.5 268.5h50q2 -140 125.5 -235.5t304.5 -95.5t303 103.5t122 261.5t-121 247.5t-335 89.5h-158v46z" />
    <glyph glyph-name="four" unicode="4" horiz-adv-x="1164" 
d="M128 425h688v965h-2q-349 -454 -686 -962v-3zM816 379h-748v47q316 477 729 1023l68 1v-1025h237v-46h-237v-379h-49v379z" />
    <glyph glyph-name="five" unicode="5" horiz-adv-x="1163" 
d="M209 737q134 199 416 199q81 0 168.5 -36.5t187.5 -137.5t100 -305q0 -205 -140 -341t-344 -136q-188 0 -320.5 102.5t-150.5 258.5h50q18 -135 136.5 -225t293.5 -90t300 123.5t125 307.5q0 183 -123 308t-305 125q-127 0 -232 -60t-168 -168h-54l89 781h747v-47h-704
l-74 -659h2z" />
    <glyph glyph-name="six" unicode="6" horiz-adv-x="1166" 
d="M915 153.5q124 127.5 124 312.5t-125 308.5t-304 123.5q-180 0 -310.5 -123t-130.5 -304t127 -313t311 -132t308 127.5zM234 154q-144 174 -144 529t141.5 567.5t383.5 212.5q171 0 292.5 -96.5t145.5 -254.5h-50q-22 135 -131.5 220t-240.5 85q-247 0 -373.5 -220
t-118.5 -607h4q36 156 167 255t317 99t324 -136t138 -342t-137.5 -346t-355.5 -140t-362 174z" />
    <glyph glyph-name="seven" unicode="7" horiz-adv-x="1074" 
d="M941 1396h-857v47h910v-50l-698 -1393h-56l701 1394v2z" />
    <glyph glyph-name="eight" unicode="8" horiz-adv-x="1178" 
d="M871.5 874.5q110.5 85.5 110.5 221.5t-108.5 228.5t-284.5 92.5t-285 -93t-109 -228t110.5 -221t283 -86t283 85.5zM1034 391q0 157 -123 253.5t-322 96.5t-322 -97.5t-123 -252.5q0 -156 121.5 -260.5t322 -104.5t323.5 104t123 261zM94 395q0 141 95 242.5t249 129.5v2
q-207 44 -250 153t-43 180t32.5 139.5t91 117.5t140 76.5t229 27.5t271 -104.5t123.5 -266.5q0 -118 -81 -205.5t-211 -117.5v-2q152 -28 248 -130t96 -242q0 -182 -136.5 -298.5t-358.5 -116.5t-358.5 116.5t-136.5 298.5z" />
    <glyph glyph-name="nine" unicode="9" horiz-adv-x="1166" 
d="M997 971q0 178 -126.5 312t-312.5 134t-308.5 -129t-122.5 -313t122.5 -307t306.5 -123q180 0 310.5 124t130.5 302zM556 499q-207 0 -343 134.5t-136 340.5t136 347.5t354 141.5t359 -172q149 -178 149 -533t-140 -566.5t-384 -211.5q-176 0 -296 98t-142 252h50
q20 -131 125.5 -217.5t262.5 -86.5q220 0 344 194t132 534q2 37 -1 99h-2q-35 -150 -167.5 -252t-300.5 -102z" />
    <glyph glyph-name="colon" unicode=":" horiz-adv-x="488" 
d="M244 770q-24 0 -40.5 17t-16.5 41t16.5 40t40.5 16t40.5 -16t16.5 -40t-16.5 -41t-40.5 -17zM244 -10q-24 0 -40.5 17t-16.5 41t16.5 40.5t40.5 16.5t40.5 -16.5t16.5 -40.5t-16.5 -41t-40.5 -17z" />
    <glyph glyph-name="semicolon" unicode=";" horiz-adv-x="488" 
d="M163 -211l56 384h53l-68 -384h-41zM244 770q-24 0 -40.5 17t-16.5 41t16.5 40t40.5 16t40.5 -16t16.5 -40t-16.5 -41t-40.5 -17z" />
    <glyph glyph-name="less" unicode="&#x3c;" horiz-adv-x="1179" 
d="M251 535v-5l736 -537v-56l-796 573v44l796 576v-56z" />
    <glyph glyph-name="equal" unicode="=" horiz-adv-x="1179" 
d="M106 741v46h967v-46h-967zM106 368v46h967v-46h-967z" />
    <glyph glyph-name="greater" unicode="&#x3e;" horiz-adv-x="1179" 
d="M191 1130l796 -575v-45l-796 -573v56l737 537v5l-737 539v56z" />
    <glyph glyph-name="question" unicode="?" horiz-adv-x="911" 
d="M415 -10q-24 0 -41 17t-17 41t17 40.5t41 16.5t40.5 -16.5t16.5 -40.5t-16.5 -41t-40.5 -17zM720 1361q109 -100 109 -247t-78.5 -221.5t-134.5 -114.5q-107 -77 -143.5 -134.5t-36.5 -149.5v-97h-49v99q0 100 41.5 166.5t150.5 146.5q156 116 177.5 187.5t21.5 125.5
t-25.5 110.5t-95.5 119.5t-208 63t-231.5 -85t-107.5 -225h-48q10 154 118.5 255t269.5 101t270 -100z" />
    <glyph glyph-name="at" unicode="@" horiz-adv-x="1727" 
d="M65 609q0 179 61 329.5t170 260t259 171t327 61.5q354 0 575.5 -212t221.5 -560q0 -349 -114.5 -417.5t-176.5 -68.5q-114 0 -178 58t-72 156h-4q-80 -211 -278 -211q-155 0 -253 115.5t-98 300.5t98 303t249 118q150 0 208.5 -77.5t72.5 -122.5h4v178h48v-551
q0 -223 195 -223q120 0 186 119t66 307q0 347 -210 545.5t-542 198.5q-331 0 -549.5 -220t-218.5 -565t214.5 -565.5t551.5 -220.5q209 0 326 35v-46q-105 -33 -305 -33q-380 0 -607 233t-227 604zM553 588q0 -162 85 -264.5t215 -102.5q131 0 207.5 105t76.5 275
q0 171 -75 269t-204.5 98t-217 -109t-87.5 -271z" />
    <glyph glyph-name="A" unicode="A" horiz-adv-x="1201" 
d="M283 547h635l-315 827h-5zM936 501h-671l-190 -501h-55l555 1443h51l555 -1443h-56z" />
    <glyph glyph-name="B" unicode="B" horiz-adv-x="1139" 
d="M600 46q204 0 321 90t117 245t-122.5 246.5t-337.5 91.5h-404v-673h426zM174 765h401q175 0 280 89.5t105 232.5q0 144 -104 227t-272 83h-410v-632zM124 0v1443h464q188 0 305 -96t117 -253q0 -203 -112.5 -267.5t-180.5 -77.5v-4q161 -17 265.5 -114t104.5 -261
t-129.5 -267t-355.5 -103h-478z" />
    <glyph glyph-name="C" unicode="C" horiz-adv-x="1303" 
d="M189.5 237q-126.5 151 -126.5 491t169.5 537.5t459.5 197.5q216 0 378 -141t180 -343h-49q-20 184 -167 310.5t-342 126.5q-266 0 -422.5 -184t-156.5 -504t158 -510.5t421 -190.5q201 0 346 114.5t163 298.5h49q-18 -203 -175 -331.5t-399 -128.5q-128 0 -244 53
t-242.5 204z" />
    <glyph glyph-name="D" unicode="D" horiz-adv-x="1313" 
d="M175 47h384q309 0 475 175.5t166 499t-166 499t-475 175.5h-384v-1349zM560 1443q330 0 510 -187.5t180 -533.5q0 -345 -180 -533.5t-510 -188.5h-436v1443h436z" />
    <glyph glyph-name="E" unicode="E" horiz-adv-x="1050" 
d="M950 0h-826v1443h826v-47h-776v-632h740v-46h-740v-671h776v-47z" />
    <glyph glyph-name="F" unicode="F" horiz-adv-x="1020" 
d="M124 0v1443h817v-47h-767v-634h706v-47h-706v-715h-50z" />
    <glyph glyph-name="G" unicode="G" horiz-adv-x="1332" 
d="M1259 564q0 -272 -154 -428t-425 -156t-444 209t-173 541t171.5 532.5t450.5 200.5q212 0 368 -117.5t196 -309.5h-49q-42 172 -182.5 276t-332.5 104q-258 0 -415 -188t-157 -500q0 -311 158.5 -506t407.5 -195q250 0 390.5 142.5t140.5 392.5v100h-531v46h580v-144z
" />
    <glyph glyph-name="H" unicode="H" horiz-adv-x="1296" 
d="M1122 0v718h-948v-718h-50v1443h50v-678h948v678h50v-1443h-50z" />
    <glyph glyph-name="I" unicode="I" horiz-adv-x="298" 
d="M124 0v1443h50v-1443h-50z" />
    <glyph glyph-name="J" unicode="J" horiz-adv-x="933" 
d="M759 384v1059h50v-1062q0 -185 -104.5 -293.5t-275.5 -108.5t-276.5 94t-111.5 242h49q6 -127 97.5 -208t235.5 -81q153 0 244.5 95t91.5 263z" />
    <glyph glyph-name="K" unicode="K" horiz-adv-x="1107" 
d="M124 0v1443h50v-836h4l784 836h64l-594 -635l664 -808h-64l-636 773l-222 -237v-536h-50z" />
    <glyph glyph-name="L" unicode="L" horiz-adv-x="1009" 
d="M949 0h-825v1443h50v-1396h775v-47z" />
    <glyph glyph-name="M" unicode="M" horiz-adv-x="1576" 
d="M1451 0h-49v1328h-4l-584 -1327h-53l-584 1327h-4v-1328h-49v1443h53l609 -1380h4l606 1380h55v-1443z" />
    <glyph glyph-name="N" unicode="N" horiz-adv-x="1315" 
d="M124 0v1443h55l958 -1348h4v1348h50v-1443h-46l-967 1359h-4v-1359h-50z" />
    <glyph glyph-name="O" unicode="O" horiz-adv-x="1398" 
d="M272.5 215.5q159.5 -188.5 426.5 -188.5t426.5 188.5t159.5 506.5t-159.5 506t-427.5 188q-269 0 -427 -187.5t-158 -506t159.5 -507zM1163 1262q172 -201 172 -541t-172 -540.5t-464.5 -200.5t-464 200.5t-171.5 541.5t172 541t464 200t464 -201z" />
    <glyph glyph-name="P" unicode="P" horiz-adv-x="1087" 
d="M174 648h394q192 0 304.5 101t112.5 274.5t-113 273t-304 99.5h-394v-748zM572 1443q212 0 337.5 -114t125.5 -307t-125.5 -307t-338.5 -114h-397v-601h-50v1443h448z" />
    <glyph glyph-name="Q" unicode="Q" horiz-adv-x="1398" 
d="M1284 694q0 344 -158.5 533t-426.5 189t-427 -188t-159 -506t159.5 -506.5t431.5 -188.5q140 0 258 58l-201 275h59l183 -252q137 85 209 242.5t72 343.5zM706 -20q-300 0 -471.5 200.5t-171.5 541.5t172 541t464 200t464 -201t172 -540t-115.5 -474t-187.5 -180
l183 -250h-59l-166 227q-130 -65 -284 -65z" />
    <glyph glyph-name="R" unicode="R" horiz-adv-x="1124" 
d="M571 630h-397v-630h-50v1443h448q216 0 340 -108.5t124 -298.5q0 -242 -132.5 -312t-214.5 -84l381 -640h-57l-376 632q-28 -2 -66 -2zM174 676h397q192 0 303 96.5t111 264.5q0 169 -110.5 264t-304.5 95h-396v-720z" />
    <glyph glyph-name="S" unicode="S" horiz-adv-x="1114" 
d="M1010 377q0 121 -85 193.5t-277 120.5l-167 42q-201 50 -295 133.5t-94 215.5q0 164 135 272.5t331 108.5t332 -104.5t142 -256.5h-50q-6 136 -129 225.5t-297 89.5t-294 -95.5t-120 -239.5q0 -168 132 -224t223 -78l165 -41q208 -53 303 -137.5t95 -222.5
q0 -175 -136.5 -287t-355 -112t-363.5 113t-153 289h50q8 -157 140 -256.5t328 -99.5q195 0 317.5 99.5t122.5 251.5z" />
    <glyph glyph-name="T" unicode="T" horiz-adv-x="1117" 
d="M534 0v1396h-521v47h1091v-47h-521v-1396h-49z" />
    <glyph glyph-name="U" unicode="U" horiz-adv-x="1307" 
d="M174 500q0 -218 129.5 -345.5t350 -127.5t350 127.5t129.5 345.5v943h50v-944q0 -237 -143 -378t-386.5 -141t-386.5 141t-143 378v944h50v-943z" />
    <glyph glyph-name="V" unicode="V" horiz-adv-x="1203" 
d="M576 0l-556 1443h55l524 -1372h4l525 1372h54l-555 -1443h-51z" />
    <glyph glyph-name="W" unicode="W" horiz-adv-x="1777" 
d="M488 0h-41l-406 1443h52l374 -1344h4l396 1344h43l395 -1344h5l374 1344h51l-406 -1443h-40l-398 1338h-5z" />
    <glyph glyph-name="X" unicode="X" horiz-adv-x="1190" 
d="M565 721v1l-523 721h60l493 -680h1l494 680h59l-523 -721l522 -722h-60l-492 680h-1l-495 -680h-59z" />
    <glyph glyph-name="Y" unicode="Y" horiz-adv-x="1148" 
d="M550 0v631l-529 812h60l492 -758h4l491 758h59l-527 -812v-631h-50z" />
    <glyph glyph-name="Z" unicode="Z" horiz-adv-x="1147" 
d="M1018 1396h-925v47h989v-43l-953 -1349v-4h954v-47h-1019v42l954 1350v4z" />
    <glyph glyph-name="bracketleft" unicode="[" horiz-adv-x="556" 
d="M495 1443v-45h-297v-1589h312v-44h-361v1678h346z" />
    <glyph glyph-name="backslash" unicode="\" horiz-adv-x="497" 
d="M0 1443h49l448 -1775h-48z" />
    <glyph glyph-name="bracketright" unicode="]" horiz-adv-x="556" 
d="M407 -235h-361v44h312v1589h-297v45h346v-1678z" />
    <glyph glyph-name="asciicircum" unicode="^" horiz-adv-x="749" 
d="M107 825h-55l302 596h41l302 -596h-55l-266 530h-3z" />
    <glyph glyph-name="underscore" unicode="_" horiz-adv-x="801" 
d="M-66 -196v44h933v-44h-933z" />
    <glyph glyph-name="grave" unicode="`" horiz-adv-x="686" 
d="M456 1254l-246 303h63l236 -303h-53z" />
    <glyph glyph-name="a" unicode="a" horiz-adv-x="1021" 
d="M190 68.5q-100 84.5 -100 219.5q0 273 380 304l389 30v97q0 234 -124.5 280.5t-200.5 46.5q-152 0 -244.5 -73.5t-113.5 -209.5h-47q18 153 125.5 241t279.5 88t273 -99.5t101 -270.5v-722h-49v245h-1q-40 -117 -154 -189t-264 -72t-250 84.5zM859 396v182l-381 -29
q-338 -26 -338 -263q0 -111 87.5 -183.5t230.5 -72.5q160 0 280.5 107.5t120.5 258.5z" />
    <glyph glyph-name="b" unicode="b" horiz-adv-x="1116" 
d="M296 902.5q-117 -143.5 -117 -366t116.5 -364t298 -141.5t295 140.5t113.5 366.5t-113.5 367t-294.5 141t-298 -143.5zM612 -16q-165 0 -279.5 92.5t-151.5 242.5h-2v-319h-49v1506h49v-745h2q38 150 151.5 240.5t266.5 90.5q199 0 325.5 -153t126.5 -400.5t-93 -360.5
t-176 -153.5t-170 -40.5z" />
    <glyph glyph-name="c" unicode="c" horiz-adv-x="1019" 
d="M522 1046q-84 0 -162 -36t-132.5 -102t-83.5 -160t-29 -269t113 -311.5t306 -136.5q145 0 246.5 76.5t125.5 199.5h50q-26 -144 -140.5 -233.5t-281.5 -89.5q-216 0 -342.5 150t-126.5 404q0 255 127 404.5t342 149.5q164 0 281 -94t143 -238h-50q-26 126 -128 206
t-258 80z" />
    <glyph glyph-name="d" unicode="d" horiz-adv-x="1126" 
d="M230 172.5q115 -141.5 298 -141.5q182 0 300 141t118 366t-118.5 366.5t-300.5 141.5t-297 -140.5t-115 -366t115 -367zM193 937.5q128 154.5 331 154.5q155 0 271 -95t149 -236h2v745h50v-1506h-46v322h-2q-35 -146 -150.5 -242t-283.5 -96q-90 0 -174.5 40.5
t-179.5 154t-95 359t128 400z" />
    <glyph glyph-name="e" unicode="e" horiz-adv-x="1056" 
d="M194 130.5q-129 146.5 -129 402.5t128.5 407.5t336.5 151.5t334.5 -143t126.5 -375v-38h-876v-2q0 -238 115.5 -371t311.5 -133q236 0 304 106t80 163h51q-29 -141 -145 -228t-312 -87q-197 0 -326 146.5zM239 918q-115 -128 -123 -337h825q0 208 -113 336.5t-293 128.5
q-181 0 -296 -128z" />
    <glyph glyph-name="f" unicode="f" horiz-adv-x="509" 
d="M393 1485q50 0 74 -10v-46q-29 10 -71 10q-87 0 -131.5 -47.5t-44.5 -153.5v-162h237v-45h-237v-1031h-50v1031h-150v45h150v169q0 240 223 240z" />
    <glyph glyph-name="g" unicode="g" horiz-adv-x="1106" 
d="M265.5 -290.5q-110.5 63.5 -134.5 169.5h53q32 -129 159.5 -158t207.5 -29q168 0 277 82t109 224v318h-2q-33 -141 -146.5 -236t-269.5 -95q-201 0 -327.5 153t-126.5 400t126.5 400.5t327.5 153.5q156 0 270 -95.5t149 -241.5h2v321h46v-1076q0 -165 -122.5 -259.5
t-304.5 -94.5q-183 0 -293.5 63.5zM937 538q0 225 -116.5 366.5t-298.5 141.5t-294.5 -141t-112.5 -367.5t113 -366.5t294 -140q183 0 299 141t116 366z" />
    <glyph glyph-name="h" unicode="h" horiz-adv-x="1075" 
d="M130 1506h49v-684h2q34 120 139.5 195t243.5 75q178 0 288 -108.5t110 -288.5v-695h-50v693q0 162 -97.5 257.5t-259.5 95.5t-269 -112t-107 -289v-645h-49v1506z" />
    <glyph glyph-name="i" unicode="i" horiz-adv-x="309" 
d="M155 1366q-20 0 -34.5 14t-14.5 34t14.5 34t34.5 14t34 -14t14 -34t-14 -34t-34 -14zM130 1076h49v-1076h-49v1076z" />
    <glyph glyph-name="j" unicode="j" horiz-adv-x="309" 
d="M155 1366q-20 0 -34.5 14t-14.5 34t14.5 34t34.5 14t34 -14t14 -34t-14 -34t-34 -14zM179 -80q0 -206 -99.5 -234t-163.5 -28h-29v45h27q112 0 164 50t52 163v1160h49v-1156z" />
    <glyph glyph-name="k" unicode="k" horiz-adv-x="913" 
d="M179 0h-49v1506h49v-1003h2l645 573h70l-517 -463l519 -613h-65l-493 583l-161 -142v-441z" />
    <glyph glyph-name="l" unicode="l" horiz-adv-x="309" 
d="M130 1506h49v-1506h-49v1506z" />
    <glyph glyph-name="m" unicode="m" horiz-adv-x="1628" 
d="M120 1076h46v-254h2q46 187 155 228.5t175 41.5q129 0 218 -77t112 -194h2q26 113 118.5 192t235.5 79t237 -101.5t94 -269.5v-721h-49v710q0 155 -81 245.5t-223 90.5q-141 0 -230.5 -106.5t-89.5 -275.5v-664h-49v708q0 151 -84 244.5t-222 93.5t-228 -112.5
t-90 -300.5v-633h-49v1076z" />
    <glyph glyph-name="n" unicode="n" horiz-adv-x="1063" 
d="M120 1076h46v-254h2q34 120 138.5 195t243.5 75q178 0 289 -107.5t111 -288.5v-696h-49v694q0 161 -99.5 256.5t-261.5 95.5t-266.5 -112t-104.5 -288v-646h-49v1076z" />
    <glyph glyph-name="o" unicode="o" horiz-adv-x="1078" 
d="M539 31q95 0 173.5 35.5t134.5 101.5t86.5 159.5t30.5 210.5t-30.5 211t-86.5 160t-134.5 101.5t-173.5 35.5t-173.5 -35.5t-134 -101.5t-86 -160t-30.5 -211t30.5 -211t86 -159.5t134 -101t173.5 -35.5zM65 538q0 253 131 403.5t343 150.5t343 -150t131 -404
q0 -253 -130.5 -403.5t-344.5 -150.5t-343.5 150.5t-129.5 403.5z" />
    <glyph glyph-name="p" unicode="p" horiz-adv-x="1106" 
d="M992 537q0 226 -113 367.5t-295 141.5t-298.5 -141.5t-116.5 -366.5t116.5 -366t298.5 -141q181 0 294.5 140t113.5 366zM597 1092q90 0 173.5 -40.5t143.5 -113.5t93.5 -175t33.5 -287t-126.5 -338.5t-327.5 -153.5q-156 0 -269.5 95t-146.5 236h-2v-655h-49v1416h46
v-321h2q33 143 148 240t281 97z" />
    <glyph glyph-name="q" unicode="q" horiz-adv-x="1116" 
d="M946 538q0 225 -118.5 366.5t-300.5 141.5t-297 -142.5t-115 -367t115.5 -365t296.5 -140.5q183 0 301 141t118 366zM514 1092q168 0 283.5 -96t150.5 -241h2v321h46v-1416h-50v655h-2q-33 -141 -149 -236t-271 -95q-203 0 -331 154.5t-128 400t95 359t179.5 154
t174.5 40.5z" />
    <glyph glyph-name="r" unicode="r" horiz-adv-x="603" 
d="M456 1045q-131 0 -209 -104.5t-78 -270.5v-670h-49v1076h46v-223h2q71 239 297 239q60 0 108 -21v-51q-51 25 -117 25z" />
    <glyph glyph-name="s" unicode="s" horiz-adv-x="905" 
d="M458 1046q-134 0 -225.5 -67t-91.5 -170q0 -124 89 -160.5t150 -50.5l167 -40q237 -59 269.5 -141.5t32.5 -142.5q0 -127 -110 -208.5t-280 -81.5t-282.5 93t-120.5 227h50q10 -115 108.5 -194.5t243.5 -79.5q144 0 242.5 69t98.5 177q0 135 -97.5 177.5t-169.5 59.5
l-169 39q-135 32 -203 92t-68 174t105.5 194t261.5 80t257.5 -88t115.5 -240h-48q-23 198 -140.5 240t-185.5 42z" />
    <glyph glyph-name="t" unicode="t" horiz-adv-x="527" 
d="M389 -1q-109 0 -159 54.5t-50 180.5v797h-160v45h160v288h49v-288h228v-45h-228v-796q0 -103 38.5 -146.5t124.5 -43.5h13l57 1h13v-46h-13h-14z" />
    <glyph glyph-name="u" unicode="u" horiz-adv-x="1063" 
d="M944 0h-46v251h-2q-32 -113 -142.5 -190t-266.5 -77t-265 106t-109 285v701h49v-694q0 -165 96.5 -258t256.5 -93t269.5 109.5t109.5 286.5v649h50v-1076z" />
    <glyph glyph-name="v" unicode="v" horiz-adv-x="888" 
d="M478 0h-68l-408 1076h53l388 -1028h2l388 1028h53z" />
    <glyph glyph-name="w" unicode="w" horiz-adv-x="1406" 
d="M1087 0h-66l-317 1016h-2l-317 -1016h-66l-317 1076h55l294 -1021h2l317 1021h66l317 -1021h2l294 1021h55z" />
    <glyph glyph-name="x" unicode="x" horiz-adv-x="869" 
d="M433 506l-370 -506h-61l403 548l-402 528h62l369 -489h2l369 489h62l-402 -527l401 -549h-60l-370 506h-3z" />
    <glyph glyph-name="y" unicode="y" horiz-adv-x="888" 
d="M188 -296q67 0 112.5 47t88.5 158l28 72l-415 1095h54l387 -1029h2l388 1029h54l-417 -1101q-74 -195 -130.5 -256.5t-161.5 -61.5q-25 0 -47 9v47q25 -9 57 -9z" />
    <glyph glyph-name="z" unicode="z" horiz-adv-x="910" 
d="M792 1031h-734v45h794v-47l-736 -982v-2h736v-45h-794v47l734 982v2z" />
    <glyph glyph-name="braceleft" unicode="{" horiz-adv-x="682" 
d="M312 -20q0 -242 255 -242h71v-45h-48q-175 0 -251 72t-76 243v349q0 126 -39 176t-135 50v91q95 0 134.5 50.5t39.5 178.5v292q0 167 74 236.5t253 69.5h48v-46h-71q-133 0 -194 -58t-61 -183v-347q0 -110 -39 -164.5t-127 -62.5v-20q88 -8 127 -62.5t39 -165.5v-412z
" />
    <glyph glyph-name="bar" unicode="|" horiz-adv-x="329" 
d="M141 -332v1775h47v-1775h-47z" />
    <glyph glyph-name="braceright" unicode="}" horiz-adv-x="683" 
d="M370 867v347q0 125 -61.5 183t-193.5 58h-71v46h48q179 0 253 -69.5t74 -236.5v-292q0 -128 39.5 -178.5t134.5 -50.5v-91q-96 0 -135 -50t-39 -176v-349q0 -171 -76 -243t-251 -72h-48v45h71q255 0 255 242v412q0 111 39.5 165.5t126.5 62.5v20q-88 8 -127 62.5
t-39 164.5z" />
    <glyph glyph-name="asciitilde" unicode="~" horiz-adv-x="1179" 
d="M239.5 726.5q-47.5 -64.5 -49.5 -166.5h-48q0 124 60 201t160 77q55 0 99.5 -25t120.5 -93t125 -93.5t91 -25.5q80 0 133 70t57 174h49q0 -121 -68 -206t-167 -85q-63 0 -112 24.5t-108 78.5q-58 54 -85.5 76t-60 40t-90.5 18q-59 0 -106.5 -64.5z" />
    <glyph glyph-name="nonbreakingspace" unicode="&#xa0;" horiz-adv-x="381" 
 />
    <glyph glyph-name="exclamdown" unicode="&#xa1;" horiz-adv-x="500" 
d="M250 1000q-24 0 -41 17.5t-17 41.5t17 41t41 17t41 -17t17 -41t-17 -41.5t-41 -17.5zM224 695h52l1 -1031h-54z" />
    <glyph glyph-name="cent" unicode="&#xa2;" horiz-adv-x="1179" 
d="M637 -87h-49v225q-211 8 -346.5 157t-135.5 397q0 247 136 396t346 157v207h49v-207q162 -6 286 -96t150 -236h-50q-25 129 -142 208t-270 79q-198 0 -327 -137t-129 -371t129.5 -372t326.5 -138q152 0 269.5 75t140.5 204h50q-23 -143 -146.5 -230.5t-287.5 -93.5v-224z
" />
    <glyph glyph-name="sterling" unicode="&#xa3;" horiz-adv-x="1179" 
d="M57 48q369 95 369 355q0 76 -20.5 145.5t-47.5 141.5h-257v46h240q-63 165 -74.5 237.5t-11.5 138.5t29.5 135.5t117 147.5t298.5 78q212 0 326 -60v-49q-110 63 -312 63t-305.5 -92t-103.5 -227t36 -232t52 -140h468v-46h-451q64 -170 64 -267q0 -162 -90 -250.5
t-211 -122.5v-4h950v-46h-1066v48z" />
    <glyph glyph-name="currency" unicode="&#xa4;" horiz-adv-x="1179" 
d="M965 655q0 -142 -95 -248l169 -167l-35 -34l-167 168q-106 -95 -247 -95t-248 94l-168 -167l-34 34l167 168q-93 106 -93 248t94 247l-168 167l34 34l167 -167q107 94 248.5 94t247.5 -93l167 166l35 -34l-167 -167q93 -106 93 -248zM356 422.5q96 -97.5 234 -97.5
q137 0 233 97.5t96 233t-95.5 233t-233.5 97.5q-137 0 -233.5 -97.5t-96.5 -233t96 -233z" />
    <glyph glyph-name="yen" unicode="&#xa5;" horiz-adv-x="1179" 
d="M615 391v-391h-50v391h-359v45h359v220h-359v44h331l-500 743h60l491 -730h4l491 730h59l-499 -743h330v-44h-358v-220h358v-45h-358z" />
    <glyph glyph-name="brokenbar" unicode="&#xa6;" horiz-adv-x="329" 
d="M141 -332v703h47v-703h-47zM141 746v697h47v-697h-47z" />
    <glyph glyph-name="section" unicode="&#xa7;" horiz-adv-x="943" 
d="M145 26q14 -97 106 -156t227 -59t222.5 65t87.5 158q0 94 -64.5 149.5t-205.5 86.5l-106 24q-172 39 -252.5 108t-80.5 179q0 162 106.5 212.5t171.5 61.5v3q-129 35 -189.5 97.5t-60.5 171.5t101 186.5t259 77.5t262.5 -71t118.5 -189h-50q-14 97 -105.5 156t-226 59
t-222 -65t-87.5 -159t64.5 -149t205.5 -86l106 -25q172 -38 251.5 -107.5t79.5 -178.5q0 -163 -107.5 -213.5t-172.5 -61.5v-3q131 -34 192 -96t61 -171t-101 -187.5t-259 -78.5q-157 0 -263 72t-118 189h49zM744 724q-70 58 -223 92l-77 17q-139 -2 -226.5 -70.5
t-87.5 -169.5t70 -159.5t223 -93.5l77 -17q138 2 226 71t88 170q0 102 -70 160z" />
    <glyph glyph-name="dieresis" unicode="&#xa8;" horiz-adv-x="686" 
d="M482 1254q-22 0 -38 16t-16 38t16 37.5t38 15.5t38.5 -15.5t16.5 -37.5t-16.5 -38t-38.5 -16zM204 1254q-22 0 -38.5 16t-16.5 38t16.5 37.5t38.5 15.5t38 -15.5t16 -37.5t-16 -38t-38 -16z" />
    <glyph glyph-name="copyright" unicode="&#xa9;" horiz-adv-x="1739" 
d="M856 1018q-68 0 -131 -26t-109.5 -75.5t-72.5 -121t-26 -207t97.5 -241t248.5 -105.5q188 0 240 80.5t62 123.5h48q-38 -176 -157.5 -212t-197.5 -36t-150.5 30t-125 86t-82.5 137t-30 230t110 265t266 116t251.5 -75t116.5 -184h-47q-40 149 -141.5 182t-169.5 33z
M845 -92q126 0 218 24.5t213 94t215.5 233.5t94.5 342q0 179 -55 310.5t-151.5 227.5t-227.5 150t-282 54t-281.5 -54t-227 -150t-152 -228t-55.5 -286t55.5 -285.5t152 -227.5t227 -150.5t256.5 -54.5zM870 -138q-107 0 -205.5 26.5t-183 75t-153.5 117.5t-118.5 153.5
t-76 183.5t-26.5 208t26.5 208t76 184t118.5 154t153.5 117.5t183 74.5t205.5 26t205.5 -26t183.5 -74.5t154 -117.5t118 -154t75.5 -184t26.5 -208t-26.5 -208t-75.5 -183.5t-118 -153.5t-154 -117.5t-183.5 -75t-205.5 -26.5z" />
    <glyph glyph-name="ordfeminine" unicode="&#xaa;" horiz-adv-x="877" 
d="M190.5 640q-78.5 67 -78.5 176q0 219 302 243l303 24v88q0 111 -69.5 176.5t-190.5 65.5q-171 0 -214 -72t-51 -110h-46q23 153 132.5 188t179.5 35q142 0 224.5 -76t82.5 -206v-594h-45v193h-5q-29 -85 -118.5 -141.5t-208.5 -56.5t-197.5 67zM159 817q0 -90 67.5 -146
t153.5 -56q151 0 244.5 81.5t93.5 196.5v151l-294 -25q-265 -22 -265 -202z" />
    <glyph glyph-name="guillemotleft" unicode="&#xab;" horiz-adv-x="1150" 
d="M227 565l370 -407h-63l-376 408v4l376 408h63l-370 -407v-6zM623 565l369 -407h-62l-377 408v4l377 408h62l-369 -407v-6z" />
    <glyph glyph-name="logicalnot" unicode="&#xac;" horiz-adv-x="1179" 
d="M1072 183h-48v494h-917v46h965v-540z" />
    <glyph glyph-name="registered" unicode="&#xae;" horiz-adv-x="1247" 
d="M481 961h140q73 0 109 34.5t36 88.5t-37.5 88t-107.5 34h-140v-245zM437 706v541h197q120 0 147.5 -62.5t27.5 -98.5q0 -67 -38.5 -110t-91.5 -49l157 -221h-53l-153 215h-149v-215h-44zM623 507q95 0 178 35t144 96t96 143.5t35 177.5t-35 177.5t-96 143.5t-144 96
t-178 35t-177.5 -35t-143.5 -96t-96 -143.5t-35 -177.5t35 -177.5t96 -143.5t143.5 -96t177.5 -35zM623 463q-104 0 -194 38.5t-157.5 106t-106 157.5t-38.5 194t38.5 194.5t106 157.5t157.5 105.5t194 38.5t195 -38.5t158 -105.5t105.5 -157.5t38.5 -194.5t-38.5 -194
t-105.5 -157.5t-158 -106t-195 -38.5z" />
    <glyph glyph-name="macron" unicode="&#xaf;" horiz-adv-x="814" 
d="M699 1305h-584v43h584v-43z" />
    <glyph glyph-name="degree" unicode="&#xb0;" horiz-adv-x="550" 
d="M390 1357q-48 48 -116 48t-115.5 -48t-47.5 -115.5t48 -115.5t116 -48t115.5 49t47.5 115.5t-48 114.5zM274 1038q-42 0 -79 16t-64.5 43.5t-43.5 65t-16 79.5t16 79t43.5 65t64.5 44t79 16t79.5 -16t65.5 -44t44 -65t16 -79t-16.5 -79.5t-44 -65t-65 -43.5t-79.5 -16z
" />
    <glyph glyph-name="plusminus" unicode="&#xb1;" horiz-adv-x="1179" 
d="M613 321h-47v367h-462v45h462v344h47v-344h461v-45h-461v-367zM104 113v46h970v-46h-970z" />
    <glyph glyph-name="two.sups" unicode="&#xb2;" horiz-adv-x="550" 
d="M274 1779q89 0 146.5 -51.5t57.5 -126.5q0 -76 -49.5 -135t-88.5 -100l-202 -215v-2h362v-42h-430v35l239 253q99 104 110 141.5t11 63.5t-11.5 52t-32.5 45t-50 29.5t-80 10.5t-95 -42t-46 -107v-1h-47v1q2 84 59.5 137.5t146.5 53.5z" />
    <glyph glyph-name="three.sups" unicode="&#xb3;" horiz-adv-x="552" 
d="M189 1470h76q109 0 134.5 53t25.5 81q0 57 -44 95t-95 38q-82 0 -126.5 -36t-48.5 -95h-46q4 76 62 124.5t144 48.5t144 -48.5t58 -115.5t-37 -108.5t-102 -53.5v-2q77 -5 122.5 -49.5t45.5 -99.5t-17.5 -90t-48 -60.5t-73 -40t-114.5 -14.5t-134.5 51t-64.5 128h47
q2 -56 50.5 -96.5t106.5 -40.5q96 0 147 42.5t51 107.5t-49 103t-137 38h-77v40z" />
    <glyph glyph-name="acute" unicode="&#xb4;" horiz-adv-x="686" 
d="M177 1254l236 303h63l-246 -303h-53z" />
    <glyph glyph-name="paragraph" unicode="&#xb6;" horiz-adv-x="1155" 
d="M915 1443h50v-1589h-50v1589zM683 -146v721h-20q-210 0 -342 122.5t-132 314.5t128.5 311.5t346.5 119.5h69v-1589h-50z" />
    <glyph glyph-name="periodcentered" unicode="&#xb7;" horiz-adv-x="488" 
d="M244 538q-24 0 -40.5 17t-16.5 41t16.5 40.5t40.5 16.5t40.5 -16.5t16.5 -40.5t-16.5 -41t-40.5 -17z" />
    <glyph glyph-name="cedilla" unicode="&#xb8;" horiz-adv-x="686" 
d="M403.5 -383q49.5 36 49.5 89t-42.5 82.5t-121.5 29.5h-50v33l69 155l44 -6l-59 -140q94 0 150 -41.5t56 -114.5t-60.5 -119.5t-147.5 -46.5t-130 17v43q47 -17 120 -17t122.5 36z" />
    <glyph glyph-name="one.sups" unicode="&#xb9;" horiz-adv-x="416" 
d="M232 1721h-2l-179 -118v49l180 119h48v-664h-47v614z" />
    <glyph glyph-name="ordmasculine" unicode="&#xba;" horiz-adv-x="976" 
d="M111 1012q0 203 102.5 322.5t273.5 119.5t274.5 -119t103.5 -322t-103.5 -322t-275.5 -119q-171 0 -273 118.5t-102 321.5zM159 1012q0 -182 89.5 -288t238.5 -106t239.5 106t90.5 288t-90 290t-240 108t-239 -108t-89 -290z" />
    <glyph glyph-name="guillemotright" unicode="&#xbb;" horiz-adv-x="1150" 
d="M553 978h63l376 -408v-4l-376 -408h-63l370 407v6zM158 978h63l376 -408v-4l-376 -408h-63l370 407v6z" />
    <glyph glyph-name="onequarter" unicode="&#xbc;" horiz-adv-x="1374" 
d="M89 1l1081 1443h59l-1081 -1443h-59zM233 1393h-2l-179 -118v49l180 119h48v-664h-47v614zM895 202h290v418h-2q-165 -223 -288 -417v-1zM1232 664v-462h102v-42h-102v-160h-48v160h-339v44q134 210 318 460h69z" />
    <glyph glyph-name="onehalf" unicode="&#xbd;" horiz-adv-x="1393" 
d="M89 1l1081 1443h59l-1081 -1443h-59zM233 1393h-2l-179 -118v49l180 119h48v-664h-47v614zM1118 672q89 0 146.5 -51.5t57.5 -126.5q0 -76 -49.5 -135t-88.5 -100l-202 -215v-2h362v-42h-430v35l239 253q99 104 110 141.5t11 63.5t-11.5 52t-32.5 45t-50 29.5t-80 10.5
t-95 -42t-46 -107v-1h-47v1q2 84 59.5 137.5t146.5 53.5z" />
    <glyph glyph-name="threequarters" unicode="&#xbe;" horiz-adv-x="1428" 
d="M180 1l1081 1443h59l-1081 -1443h-59zM949 202h290v418h-2q-165 -223 -288 -417v-1zM1286 664v-462h102v-42h-102v-160h-48v160h-339v44q134 210 318 460h69zM180 1142h76q109 0 134.5 53t25.5 81q0 57 -44 95t-95 38q-82 0 -126.5 -36t-48.5 -95h-46q4 76 62 124.5
t144 48.5t144 -48.5t58 -115.5t-37 -108.5t-102 -53.5v-2q77 -5 122.5 -49.5t45.5 -99.5t-17.5 -90t-48 -60.5t-73 -40t-114.5 -14.5t-134.5 51t-64.5 128h47q2 -56 50.5 -96.5t106.5 -40.5q96 0 147 42.5t51 107.5t-49 103t-137 38h-77v40z" />
    <glyph glyph-name="questiondown" unicode="&#xbf;" horiz-adv-x="911" 
d="M492 1000q-24 0 -40.5 17.5t-16.5 41.5t16.5 41t40.5 17t41 -17t17 -41t-17 -41.5t-41 -17.5zM190.5 -263q-108.5 101 -108.5 247t78 221t133 115q107 77 144 134.5t37 148.5v97h49v-99q0 -100 -31 -150.5t-68.5 -86t-91.5 -75.5q-106 -78 -152.5 -148t-46.5 -145
q0 -141 95 -227.5t234 -86.5t233 86.5t106 224.5h48q-10 -155 -118.5 -256t-270.5 -101q-161 0 -269.5 101z" />
    <glyph glyph-name="Agrave" unicode="&#xc0;" horiz-adv-x="1201" 
d="M279 1841h66l294 -287h-57zM283 547h635l-315 827h-5zM936 501h-671l-190 -501h-55l555 1443h51l555 -1443h-56z" />
    <glyph glyph-name="Aacute" unicode="&#xc1;" horiz-adv-x="1201" 
d="M562 1554l293 287h66l-303 -287h-56zM283 547h635l-315 827h-5zM936 501h-671l-190 -501h-55l555 1443h51l555 -1443h-56z" />
    <glyph glyph-name="Acircumflex" unicode="&#xc2;" horiz-adv-x="1201" 
d="M623 1841l266 -287h-59l-229 249h-2l-229 -249h-59l266 287h46zM283 547h635l-315 827h-5zM936 501h-671l-190 -501h-55l555 1443h51l555 -1443h-56z" />
    <glyph glyph-name="Atilde" unicode="&#xc3;" horiz-adv-x="1201" 
d="M737 1596q97 0 97 158h45q0 -142 -53.5 -172t-87.5 -30t-59.5 12.5t-47.5 31t-41 40.5t-51.5 53t-75.5 31q-97 0 -97 -158h-45q0 143 53.5 172t87.5 29t59.5 -12.5t47.5 -31t41 -40t51.5 -52.5t75.5 -31zM283 547h635l-315 827h-5zM936 501h-671l-190 -501h-55l555 1443
h51l555 -1443h-56z" />
    <glyph glyph-name="Adieresis" unicode="&#xc4;" horiz-adv-x="1201" 
d="M740 1556q-22 0 -38.5 16t-16.5 38t16.5 37.5t38.5 15.5t38 -15.5t16 -37.5t-16 -38t-38 -16zM460 1556q-22 0 -38 16t-16 38t16 37.5t38 15.5t38.5 -15.5t16.5 -37.5t-16.5 -38t-38.5 -16zM283 547h635l-315 827h-5zM936 501h-671l-190 -501h-55l555 1443h51l555 -1443
h-56z" />
    <glyph glyph-name="Aring" unicode="&#xc5;" horiz-adv-x="1201" 
d="M689.5 1581.5q36.5 36.5 36.5 76.5t-9.5 63t-26.5 40.5t-40 27.5t-63 10t-77 -37t-37 -77t9.5 -63t37.5 -50t80.5 -27t89 36.5zM600 1506q-34 0 -64 13t-52.5 35.5t-35.5 53t-13 64.5t13 64t35.5 52.5t52.5 35.5t64 13t63.5 -13t52 -35.5t35.5 -52.5t13 -64t-13 -64.5
t-35.5 -53t-52 -35.5t-63.5 -13zM283 547h635l-315 827h-5zM936 501h-671l-190 -501h-55l555 1443h51l555 -1443h-56z" />
    <glyph glyph-name="AE" unicode="&#xc6;" horiz-adv-x="1878" 
d="M1010 411h-689l-208 -411h-55l733 1443h985v-47h-718v-633h681v-46h-681v-670h718v-47h-766v411zM1010 458v939h-191l-476 -939h667z" />
    <glyph glyph-name="Ccedilla" unicode="&#xc7;" horiz-adv-x="1303" 
d="M767.5 -383q49.5 36 49.5 89t-42.5 82.5t-121.5 29.5h-50v33l58 130q-275 12 -436.5 214t-161.5 538t169.5 533t459.5 197q216 0 378 -141t180 -343h-49q-20 184 -167 310.5t-342 126.5q-266 0 -422.5 -184t-156.5 -504t158 -510.5t421 -190.5q201 0 346 114.5t163 298.5
h49q-18 -198 -169 -326t-373 -134l-51 -120q94 0 150 -41.5t56 -114.5t-60.5 -119.5t-147.5 -46.5t-130 17v43q47 -17 120 -17t122.5 36z" />
    <glyph glyph-name="Egrave" unicode="&#xc8;" horiz-adv-x="1050" 
d="M950 0h-826v1443h826v-47h-776v-632h740v-46h-740v-671h776v-47zM216 1841h66l294 -287h-57z" />
    <glyph glyph-name="Eacute" unicode="&#xc9;" horiz-adv-x="1050" 
d="M950 0h-826v1443h826v-47h-776v-632h740v-46h-740v-671h776v-47zM499 1554l293 287h66l-303 -287h-56z" />
    <glyph glyph-name="Ecircumflex" unicode="&#xca;" horiz-adv-x="1050" 
d="M950 0h-826v1443h826v-47h-776v-632h740v-46h-740v-671h776v-47zM560 1841l266 -287h-59l-229 249h-2l-229 -249h-59l266 287h46z" />
    <glyph glyph-name="Edieresis" unicode="&#xcb;" horiz-adv-x="1050" 
d="M950 0h-826v1443h826v-47h-776v-632h740v-46h-740v-671h776v-47zM676 1556q-22 0 -38 16t-16 38t16 37.5t38 15.5t38.5 -15.5t16.5 -37.5t-16.5 -38t-38.5 -16zM398 1556q-22 0 -38.5 16t-16.5 38t16.5 37.5t38.5 15.5t38 -15.5t16 -37.5t-16 -38t-38 -16z" />
    <glyph glyph-name="Igrave" unicode="&#xcc;" horiz-adv-x="298" 
d="M-172 1841h66l294 -287h-57zM124 0v1443h50v-1443h-50z" />
    <glyph glyph-name="Iacute" unicode="&#xcd;" horiz-adv-x="298" 
d="M111 1554l293 287h66l-303 -287h-56zM124 0v1443h50v-1443h-50z" />
    <glyph glyph-name="Icircumflex" unicode="&#xce;" horiz-adv-x="298" 
d="M172 1841l266 -287h-59l-229 249h-2l-229 -249h-59l266 287h46zM124 0v1443h50v-1443h-50z" />
    <glyph glyph-name="Idieresis" unicode="&#xcf;" horiz-adv-x="298" 
d="M288 1556q-22 0 -38 16t-16 38t16 37.5t38 15.5t38.5 -15.5t16.5 -37.5t-16.5 -38t-38.5 -16zM10 1556q-22 0 -38.5 16t-16.5 38t16.5 37.5t38.5 15.5t38 -15.5t16 -37.5t-16 -38t-38 -16zM124 0v1443h50v-1443h-50z" />
    <glyph glyph-name="Eth" unicode="&#xd0;" horiz-adv-x="1383" 
d="M560 1443q330 0 510 -187.5t180 -533.5q0 -345 -180 -533.5t-510 -188.5h-436v717h-110v47h110v679h436zM559 47q309 0 475 175.5t166 499t-166 499t-475 175.5h-384v-632h382v-47h-382v-670h384z" />
    <glyph glyph-name="Ntilde" unicode="&#xd1;" horiz-adv-x="1315" 
d="M124 0v1443h55l958 -1348h4v1348h50v-1443h-46l-967 1359h-4v-1359h-50zM794 1596q97 0 97 158h45q0 -142 -53 -172t-87 -30t-60 12.5t-48 31t-41 40.5t-51.5 53t-75.5 31q-97 0 -97 -158h-45q0 143 53 172t87 29t60 -12.5t48 -31t41 -40t51.5 -52.5t75.5 -31z" />
    <glyph glyph-name="Ograve" unicode="&#xd2;" horiz-adv-x="1398" 
d="M272.5 215.5q159.5 -188.5 426.5 -188.5t426.5 188.5t159.5 506.5t-159.5 506t-427.5 188q-269 0 -427 -187.5t-158 -506t159.5 -507zM1163 1262q172 -201 172 -541t-172 -540.5t-464.5 -200.5t-464 200.5t-171.5 541.5t172 541t464 200t464 -201zM378 1841h66l294 -287
h-57z" />
    <glyph glyph-name="Oacute" unicode="&#xd3;" horiz-adv-x="1398" 
d="M272.5 215.5q159.5 -188.5 426.5 -188.5t426.5 188.5t159.5 506.5t-159.5 506t-427.5 188q-269 0 -427 -187.5t-158 -506t159.5 -507zM1163 1262q172 -201 172 -541t-172 -540.5t-464.5 -200.5t-464 200.5t-171.5 541.5t172 541t464 200t464 -201zM661 1554l293 287h66
l-303 -287h-56z" />
    <glyph glyph-name="Ocircumflex" unicode="&#xd4;" horiz-adv-x="1398" 
d="M272.5 215.5q159.5 -188.5 426.5 -188.5t426.5 188.5t159.5 506.5t-159.5 506t-427.5 188q-269 0 -427 -187.5t-158 -506t159.5 -507zM1163 1262q172 -201 172 -541t-172 -540.5t-464.5 -200.5t-464 200.5t-171.5 541.5t172 541t464 200t464 -201zM722 1841l266 -287h-59
l-229 249h-2l-229 -249h-59l266 287h46z" />
    <glyph glyph-name="Otilde" unicode="&#xd5;" horiz-adv-x="1398" 
d="M836 1596q97 0 97 158h45q0 -142 -53 -172t-87 -30t-60 12.5t-48 31t-41 40.5t-51.5 53t-75.5 31q-97 0 -97 -158h-45q0 143 53 172t87 29t60 -12.5t48 -31t41 -40t51.5 -52.5t75.5 -31zM272.5 215.5q159.5 -188.5 426.5 -188.5t426.5 188.5t159.5 506.5t-159.5 506
t-427.5 188q-269 0 -427 -187.5t-158 -506t159.5 -507zM1163 1262q172 -201 172 -541t-172 -540.5t-464.5 -200.5t-464 200.5t-171.5 541.5t172 541t464 200t464 -201z" />
    <glyph glyph-name="Odieresis" unicode="&#xd6;" horiz-adv-x="1398" 
d="M272.5 215.5q159.5 -188.5 426.5 -188.5t426.5 188.5t159.5 506.5t-159.5 506t-427.5 188q-269 0 -427 -187.5t-158 -506t159.5 -507zM1163 1262q172 -201 172 -541t-172 -540.5t-464.5 -200.5t-464 200.5t-171.5 541.5t172 541t464 200t464 -201zM838 1556q-22 0 -38 16
t-16 38t16 37.5t38 15.5t38.5 -15.5t16.5 -37.5t-16.5 -38t-38.5 -16zM560 1556q-22 0 -38.5 16t-16.5 38t16.5 37.5t38.5 15.5t38 -15.5t16 -37.5t-16 -38t-38 -16z" />
    <glyph glyph-name="multiply" unicode="&#xd7;" horiz-adv-x="1179" 
d="M264 220l-34 32l326 327l-327 327l35 34l325 -328l327 326l33 -32l-325 -327l325 -325l-34 -34l-325 326z" />
    <glyph glyph-name="Oslash" unicode="&#xd8;" horiz-adv-x="1398" 
d="M1168 1256q167 -200 167 -538t-172 -538t-464 -200q-249 0 -412 147l-173 -222l-37 25l178 228q-192 200 -192 552t172 552.5t454 200.5q281 0 449 -174l151 194l36 -25zM271.5 1228.5q-158.5 -187.5 -158.5 -514.5t174 -515l820 1050q-157 167 -417 167t-418.5 -187.5z
M1125.5 215.5q159.5 188.5 159.5 500.5t-149 500l-818 -1049q152 -140 381 -140q267 0 426.5 188.5z" />
    <glyph glyph-name="Ugrave" unicode="&#xd9;" horiz-adv-x="1305" 
d="M174 500q0 -218 129.5 -345.5t350 -127.5t350 127.5t129.5 345.5v943h50v-944q0 -237 -143 -378t-386.5 -141t-386.5 141t-143 378v944h50v-943zM332 1841h66l294 -287h-57z" />
    <glyph glyph-name="Uacute" unicode="&#xda;" horiz-adv-x="1305" 
d="M174 500q0 -218 129.5 -345.5t350 -127.5t350 127.5t129.5 345.5v943h50v-944q0 -237 -143 -378t-386.5 -141t-386.5 141t-143 378v944h50v-943zM615 1554l293 287h66l-303 -287h-56z" />
    <glyph glyph-name="Ucircumflex" unicode="&#xdb;" horiz-adv-x="1305" 
d="M174 500q0 -218 129.5 -345.5t350 -127.5t350 127.5t129.5 345.5v943h50v-944q0 -237 -143 -378t-386.5 -141t-386.5 141t-143 378v944h50v-943zM676 1841l266 -287h-59l-229 249h-2l-229 -249h-59l266 287h46z" />
    <glyph glyph-name="Udieresis" unicode="&#xdc;" horiz-adv-x="1305" 
d="M174 500q0 -218 129.5 -345.5t350 -127.5t350 127.5t129.5 345.5v943h50v-944q0 -237 -143 -378t-386.5 -141t-386.5 141t-143 378v944h50v-943zM792 1556q-22 0 -38 16t-16 38t16 37.5t38 15.5t38.5 -15.5t16.5 -37.5t-16.5 -38t-38.5 -16zM514 1556q-22 0 -38.5 16
t-16.5 38t16.5 37.5t38.5 15.5t38 -15.5t16 -37.5t-16 -38t-38 -16z" />
    <glyph glyph-name="Yacute" unicode="&#xdd;" horiz-adv-x="1148" 
d="M536 1554l293 287h66l-303 -287h-56zM550 0v631l-529 812h60l492 -758h4l491 758h59l-527 -812v-631h-50z" />
    <glyph glyph-name="Thorn" unicode="&#xde;" horiz-adv-x="1202" 
d="M214 401h411q189 0 294 94.5t105 256.5t-105.5 257.5t-293.5 95.5h-411v-704zM214 1443v-291h413q205 0 326 -106.5t121 -293.5q0 -186 -119.5 -292t-327.5 -106h-413v-354h-50v1443h50z" />
    <glyph glyph-name="germandbls" unicode="&#xdf;" horiz-adv-x="1047" 
d="M935 387q0 151 -123 247t-319 96h-109v47h108q130 0 225.5 97t95.5 227t-90.5 209.5t-232.5 79.5q-230 0 -275.5 -125.5t-45.5 -201.5v-1063h-49v1064q0 269 140 320.5t226 51.5q169 0 273 -91t104 -229t-78.5 -233.5t-190.5 -120.5v-3q169 -14 279.5 -115t110.5 -265
t-127 -281.5t-316 -117.5q-86 0 -179 17v49q78 -20 169 -20q175 0 289.5 105t114.5 256z" />
    <glyph glyph-name="agrave" unicode="&#xe0;" horiz-adv-x="1021" 
d="M528 1254l-246 303h63l236 -303h-53zM190 68.5q-100 84.5 -100 219.5q0 273 380 304l389 30v97q0 234 -124.5 280.5t-200.5 46.5q-152 0 -244.5 -73.5t-113.5 -209.5h-47q18 153 125.5 241t279.5 88t273 -99.5t101 -270.5v-722h-49v245h-1q-40 -117 -154 -189t-264 -72
t-250 84.5zM859 396v182l-381 -29q-338 -26 -338 -263q0 -111 87.5 -183.5t230.5 -72.5q160 0 280.5 107.5t120.5 258.5z" />
    <glyph glyph-name="aacute" unicode="&#xe1;" horiz-adv-x="1021" 
d="M485 1254l236 303h63l-246 -303h-53zM190 68.5q-100 84.5 -100 219.5q0 273 380 304l389 30v97q0 234 -124.5 280.5t-200.5 46.5q-152 0 -244.5 -73.5t-113.5 -209.5h-47q18 153 125.5 241t279.5 88t273 -99.5t101 -270.5v-722h-49v245h-1q-40 -117 -154 -189t-264 -72
t-250 84.5zM859 396v182l-381 -29q-338 -26 -338 -263q0 -111 87.5 -183.5t230.5 -72.5q160 0 280.5 107.5t120.5 258.5z" />
    <glyph glyph-name="acircumflex" unicode="&#xe2;" horiz-adv-x="1021" 
d="M820 1254h-56l-230 264h-2l-230 -264h-56l265 303h44zM190 68.5q-100 84.5 -100 219.5q0 273 380 304l389 30v97q0 234 -124.5 280.5t-200.5 46.5q-152 0 -244.5 -73.5t-113.5 -209.5h-47q18 153 125.5 241t279.5 88t273 -99.5t101 -270.5v-722h-49v245h-1
q-40 -117 -154 -189t-264 -72t-250 84.5zM859 396v182l-381 -29q-338 -26 -338 -263q0 -111 87.5 -183.5t230.5 -72.5q160 0 280.5 107.5t120.5 258.5z" />
    <glyph glyph-name="atilde" unicode="&#xe3;" horiz-adv-x="1021" 
d="M670 1298q97 0 97 158h45q0 -142 -53 -172t-87 -30t-60 12.5t-48 31t-41 40.5t-51.5 53t-75.5 31q-97 0 -97 -158h-45q0 143 53 172t87 29t60 -12.5t48 -31t41 -40t51.5 -52.5t75.5 -31zM190 68.5q-100 84.5 -100 219.5q0 273 380 304l389 30v97q0 234 -124.5 280.5
t-200.5 46.5q-152 0 -244.5 -73.5t-113.5 -209.5h-47q18 153 125.5 241t279.5 88t273 -99.5t101 -270.5v-722h-49v245h-1q-40 -117 -154 -189t-264 -72t-250 84.5zM859 396v182l-381 -29q-338 -26 -338 -263q0 -111 87.5 -183.5t230.5 -72.5q160 0 280.5 107.5t120.5 258.5z
" />
    <glyph glyph-name="adieresis" unicode="&#xe4;" horiz-adv-x="1021" 
d="M672 1254q-22 0 -38 16t-16 38t16 37.5t38 15.5t38.5 -15.5t16.5 -37.5t-16.5 -38t-38.5 -16zM394 1254q-22 0 -38.5 16t-16.5 38t16.5 37.5t38.5 15.5t38 -15.5t16 -37.5t-16 -38t-38 -16zM190 68.5q-100 84.5 -100 219.5q0 273 380 304l389 30v97q0 234 -124.5 280.5
t-200.5 46.5q-152 0 -244.5 -73.5t-113.5 -209.5h-47q18 153 125.5 241t279.5 88t273 -99.5t101 -270.5v-722h-49v245h-1q-40 -117 -154 -189t-264 -72t-250 84.5zM859 396v182l-381 -29q-338 -26 -338 -263q0 -111 87.5 -183.5t230.5 -72.5q160 0 280.5 107.5t120.5 258.5z
" />
    <glyph glyph-name="aring" unicode="&#xe5;" horiz-adv-x="1021" 
d="M622.5 1324.5q36.5 36.5 36.5 76.5t-9.5 63t-26.5 40.5t-40 27.5t-63 10t-77 -37t-37 -77t9.5 -63t37.5 -50t80.5 -27t89 36.5zM533 1249q-34 0 -64 13t-52.5 35.5t-35.5 53t-13 64.5t13 64t35.5 52.5t52.5 35.5t64 13t63.5 -13t52 -35.5t35.5 -52.5t13 -64t-13 -64.5
t-35.5 -53t-52 -35.5t-63.5 -13zM190 68.5q-100 84.5 -100 219.5q0 273 380 304l389 30v97q0 234 -124.5 280.5t-200.5 46.5q-152 0 -244.5 -73.5t-113.5 -209.5h-47q18 153 125.5 241t279.5 88t273 -99.5t101 -270.5v-722h-49v245h-1q-40 -117 -154 -189t-264 -72
t-250 84.5zM859 396v182l-381 -29q-338 -26 -338 -263q0 -111 87.5 -183.5t230.5 -72.5q160 0 280.5 107.5t120.5 258.5z" />
    <glyph glyph-name="ae" unicode="&#xe6;" horiz-adv-x="1848" 
d="M859 401v150l-384 -26q-335 -22 -335 -243q0 -111 87.5 -181.5t232.5 -70.5q161 0 280 108t119 263zM1733 588q0 207 -110.5 332.5t-292.5 125.5t-297.5 -127t-123.5 -331h824zM90 280q0 264 375 289l394 27v141q0 145 -87.5 227t-242.5 82q-226 0 -287 -108.5
t-70 -174.5h-48q16 151 127.5 240t273.5 89q163 0 265.5 -82.5t108.5 -225.5h5q43 136 155 222t273 86q207 0 329 -139t122 -370v-40h-875v-7q0 -230 117 -368t311 -138q153 0 253 75t125 194h51q-29 -141 -144 -228t-281 -87t-279.5 83t-163.5 244h-4q-38 -150 -159 -238.5
t-282 -88.5t-261.5 82t-100.5 214z" />
    <glyph glyph-name="ccedilla" unicode="&#xe7;" horiz-adv-x="1019" 
d="M608.5 -383q49.5 36 49.5 89t-42.5 82.5t-121.5 29.5h-50v33l60 134q-203 10 -321 158.5t-118 398.5t127 400t342 150q164 0 281 -94t143 -238h-50q-26 126 -128.5 206t-245.5 80q-193 0 -306 -137t-113 -371t113 -370.5t306 -136.5q145 0 246.5 76.5t125.5 199.5h50
q-24 -139 -134 -228t-272 -95l-52 -124q94 0 150 -41.5t56 -114.5t-60.5 -119.5t-147.5 -46.5t-130 17v43q47 -17 120 -17t122.5 36z" />
    <glyph glyph-name="egrave" unicode="&#xe8;" horiz-adv-x="1056" 
d="M194 130.5q-129 146.5 -129 402.5t128.5 407.5t336.5 151.5t334.5 -143t126.5 -375v-38h-876v-2q0 -238 115.5 -371t311.5 -133q236 0 304 106t80 163h51q-29 -141 -145 -228t-312 -87q-197 0 -326 146.5zM239 918q-115 -128 -123 -337h825q0 208 -113 336.5t-293 128.5
q-181 0 -296 -128zM528 1254l-246 303h63l236 -303h-53z" />
    <glyph glyph-name="eacute" unicode="&#xe9;" horiz-adv-x="1056" 
d="M194 130.5q-129 146.5 -129 402.5t128.5 407.5t336.5 151.5t334.5 -143t126.5 -375v-38h-876v-2q0 -238 115.5 -371t311.5 -133q236 0 304 106t80 163h51q-29 -141 -145 -228t-312 -87q-197 0 -326 146.5zM239 918q-115 -128 -123 -337h825q0 208 -113 336.5t-293 128.5
q-181 0 -296 -128zM485 1254l236 303h63l-246 -303h-53z" />
    <glyph glyph-name="ecircumflex" unicode="&#xea;" horiz-adv-x="1056" 
d="M194 130.5q-129 146.5 -129 402.5t128.5 407.5t336.5 151.5t334.5 -143t126.5 -375v-38h-876v-2q0 -238 115.5 -371t311.5 -133q236 0 304 106t80 163h51q-29 -141 -145 -228t-312 -87q-197 0 -326 146.5zM239 918q-115 -128 -123 -337h825q0 208 -113 336.5t-293 128.5
q-181 0 -296 -128zM820 1254h-56l-230 264h-2l-230 -264h-56l265 303h44z" />
    <glyph glyph-name="edieresis" unicode="&#xeb;" horiz-adv-x="1056" 
d="M672 1254q-22 0 -38 16t-16 38t16 37.5t38 15.5t38.5 -15.5t16.5 -37.5t-16.5 -38t-38.5 -16zM394 1254q-22 0 -38.5 16t-16.5 38t16.5 37.5t38.5 15.5t38 -15.5t16 -37.5t-16 -38t-38 -16zM194 130.5q-129 146.5 -129 402.5t128.5 407.5t336.5 151.5t334.5 -143
t126.5 -375v-38h-876v-2q0 -238 115.5 -371t311.5 -133q236 0 304 106t80 163h51q-29 -141 -145 -228t-312 -87q-197 0 -326 146.5zM239 918q-115 -128 -123 -337h825q0 208 -113 336.5t-293 128.5q-181 0 -296 -128z" />
    <glyph glyph-name="igrave" unicode="&#xec;" horiz-adv-x="309" 
d="M130 1076h49v-1076h-49v1076zM150 1254l-246 303h63l236 -303h-53z" />
    <glyph glyph-name="iacute" unicode="&#xed;" horiz-adv-x="309" 
d="M130 1076h49v-1076h-49v1076zM107 1254l236 303h63l-246 -303h-53z" />
    <glyph glyph-name="icircumflex" unicode="&#xee;" horiz-adv-x="309" 
d="M130 1076h49v-1076h-49v1076zM442 1254h-56l-230 264h-2l-230 -264h-56l265 303h44z" />
    <glyph glyph-name="idieresis" unicode="&#xef;" horiz-adv-x="309" 
d="M294 1254q-22 0 -38 16t-16 38t16 37.5t38 15.5t38.5 -15.5t16.5 -37.5t-16.5 -38t-38.5 -16zM16 1254q-22 0 -38.5 16t-16.5 38t16.5 37.5t38.5 15.5t38 -15.5t16 -37.5t-16 -38t-38 -16zM130 1076h49v-1076h-49v1076z" />
    <glyph glyph-name="eth" unicode="&#xf0;" horiz-adv-x="1114" 
d="M233.5 873.5q-117.5 -132.5 -117.5 -346.5q0 -215 118 -356t302 -141t298 138.5t114 357.5t-113 349.5t-298 130.5q-186 0 -303.5 -132.5zM997 555q0 -261 -124.5 -416t-333.5 -155t-341 153t-132 388t131.5 381t333.5 146q133 0 236 -63t160 -180h4q-58 295 -236 477
l-292 -126l-16 40l277 118q-86 78 -243 160h79q138 -74 208 -142l272 115l16 -39l-256 -108q257 -275 257 -749z" />
    <glyph glyph-name="ntilde" unicode="&#xf1;" horiz-adv-x="1063" 
d="M120 1076h46v-254h2q34 120 138.5 195t243.5 75q178 0 289 -107.5t111 -288.5v-696h-49v694q0 161 -99.5 256.5t-261.5 95.5t-266.5 -112t-104.5 -288v-646h-49v1076zM674 1298q97 0 97 158h45q0 -142 -53 -172t-87 -30t-60 12.5t-48 31t-41 40.5t-51.5 53t-75.5 31
q-97 0 -97 -158h-45q0 143 53 172t87 29t60 -12.5t48 -31t41 -40t51.5 -52.5t75.5 -31z" />
    <glyph glyph-name="ograve" unicode="&#xf2;" horiz-adv-x="1078" 
d="M539 31q95 0 173.5 35.5t134.5 101.5t86.5 159.5t30.5 210.5t-30.5 211t-86.5 160t-134.5 101.5t-173.5 35.5t-173.5 -35.5t-134 -101.5t-86 -160t-30.5 -211t30.5 -211t86 -159.5t134 -101t173.5 -35.5zM65 538q0 253 131 403.5t343 150.5t343 -150t131 -404
q0 -253 -130.5 -403.5t-344.5 -150.5t-343.5 150.5t-129.5 403.5zM534 1253l-246 303h63l236 -303h-53z" />
    <glyph glyph-name="oacute" unicode="&#xf3;" horiz-adv-x="1078" 
d="M539 31q95 0 173.5 35.5t134.5 101.5t86.5 159.5t30.5 210.5t-30.5 211t-86.5 160t-134.5 101.5t-173.5 35.5t-173.5 -35.5t-134 -101.5t-86 -160t-30.5 -211t30.5 -211t86 -159.5t134 -101t173.5 -35.5zM65 538q0 253 131 403.5t343 150.5t343 -150t131 -404
q0 -253 -130.5 -403.5t-344.5 -150.5t-343.5 150.5t-129.5 403.5zM491 1253l236 303h63l-246 -303h-53z" />
    <glyph glyph-name="ocircumflex" unicode="&#xf4;" horiz-adv-x="1078" 
d="M539 31q95 0 173.5 35.5t134.5 101.5t86.5 159.5t30.5 210.5t-30.5 211t-86.5 160t-134.5 101.5t-173.5 35.5t-173.5 -35.5t-134 -101.5t-86 -160t-30.5 -211t30.5 -211t86 -159.5t134 -101t173.5 -35.5zM65 538q0 253 131 403.5t343 150.5t343 -150t131 -404
q0 -253 -130.5 -403.5t-344.5 -150.5t-343.5 150.5t-129.5 403.5zM826 1253h-56l-230 264h-2l-230 -264h-56l265 303h44z" />
    <glyph glyph-name="otilde" unicode="&#xf5;" horiz-adv-x="1078" 
d="M539 31q95 0 173.5 35.5t134.5 101.5t86.5 159.5t30.5 210.5t-30.5 211t-86.5 160t-134.5 101.5t-173.5 35.5t-173.5 -35.5t-134 -101.5t-86 -160t-30.5 -211t30.5 -211t86 -159.5t134 -101t173.5 -35.5zM65 538q0 253 131 403.5t343 150.5t343 -150t131 -404
q0 -253 -130.5 -403.5t-344.5 -150.5t-343.5 150.5t-129.5 403.5zM675 1297q97 0 97 158h45q0 -142 -53.5 -172t-87.5 -30t-59.5 12.5t-47.5 31t-41 40.5t-51.5 53t-75.5 31q-97 0 -97 -158h-45q0 143 53.5 172t87.5 29t59.5 -12.5t47.5 -31t41 -40t51.5 -52.5t75.5 -31z
" />
    <glyph glyph-name="odieresis" unicode="&#xf6;" horiz-adv-x="1078" 
d="M539 31q95 0 173.5 35.5t134.5 101.5t86.5 159.5t30.5 210.5t-30.5 211t-86.5 160t-134.5 101.5t-173.5 35.5t-173.5 -35.5t-134 -101.5t-86 -160t-30.5 -211t30.5 -211t86 -159.5t134 -101t173.5 -35.5zM65 538q0 253 131 403.5t343 150.5t343 -150t131 -404
q0 -253 -130.5 -403.5t-344.5 -150.5t-343.5 150.5t-129.5 403.5zM678 1253q-22 0 -38 16t-16 38t16 37.5t38 15.5t38.5 -15.5t16.5 -37.5t-16.5 -38t-38.5 -16zM400 1253q-22 0 -38.5 16t-16.5 38t16.5 37.5t38.5 15.5t38 -15.5t16 -37.5t-16 -38t-38 -16z" />
    <glyph glyph-name="divide" unicode="&#xf7;" horiz-adv-x="1179" 
d="M104 555v45h970v-45h-970zM590 152q-29 0 -49.5 20t-20.5 50t20.5 50t49.5 20t49.5 -20t20.5 -50t-20.5 -50t-49.5 -20zM590 841q-29 0 -49.5 20.5t-20.5 50.5t20.5 49.5t49.5 19.5t49.5 -19.5t20.5 -49.5t-20.5 -50.5t-49.5 -20.5z" />
    <glyph glyph-name="oslash" unicode="&#xf8;" horiz-adv-x="1078" 
d="M879 945q134 -151 134 -406t-130.5 -405t-343.5 -150q-164 0 -284 93l-125 -174l-37 26l128 178q-156 150 -156 417t131 417.5t330 150.5t321 -114l115 159l37 -25zM819 938q-110 108 -291 108t-297 -138t-116 -380t135 -381zM539 31q192 0 308.5 137.5t116.5 368.5
t-114 368l-566 -788q104 -86 255 -86z" />
    <glyph glyph-name="ugrave" unicode="&#xf9;" horiz-adv-x="1063" 
d="M944 0h-46v251h-2q-32 -113 -142.5 -190t-266.5 -77t-265 106t-109 285v701h49v-694q0 -165 96.5 -258t256.5 -93t269.5 109.5t109.5 286.5v649h50v-1076zM523 1253l-246 303h63l236 -303h-53z" />
    <glyph glyph-name="uacute" unicode="&#xfa;" horiz-adv-x="1063" 
d="M944 0h-46v251h-2q-32 -113 -142.5 -190t-266.5 -77t-265 106t-109 285v701h49v-694q0 -165 96.5 -258t256.5 -93t269.5 109.5t109.5 286.5v649h50v-1076zM480 1253l236 303h63l-246 -303h-53z" />
    <glyph glyph-name="ucircumflex" unicode="&#xfb;" horiz-adv-x="1063" 
d="M944 0h-46v251h-2q-32 -113 -142.5 -190t-266.5 -77t-265 106t-109 285v701h49v-694q0 -165 96.5 -258t256.5 -93t269.5 109.5t109.5 286.5v649h50v-1076zM815 1253h-56l-230 264h-2l-230 -264h-56l265 303h44z" />
    <glyph glyph-name="udieresis" unicode="&#xfc;" horiz-adv-x="1063" 
d="M668 1253q-22 0 -38.5 16t-16.5 38t16.5 37.5t38.5 15.5t38 -15.5t16 -37.5t-16 -38t-38 -16zM388 1253q-22 0 -38 16t-16 38t16 37.5t38 15.5t38.5 -15.5t16.5 -37.5t-16.5 -38t-38.5 -16zM944 0h-46v251h-2q-32 -113 -142.5 -190t-266.5 -77t-265 106t-109 285v701h49
v-694q0 -165 96.5 -258t256.5 -93t269.5 109.5t109.5 286.5v649h50v-1076z" />
    <glyph glyph-name="yacute" unicode="&#xfd;" horiz-adv-x="888" 
d="M396 1253l236 303h63l-246 -303h-53zM188 -296q67 0 112.5 47t88.5 158l28 72l-415 1095h54l387 -1029h2l388 1029h54l-417 -1101q-74 -195 -130.5 -256.5t-161.5 -61.5q-25 0 -47 9v47q25 -9 57 -9z" />
    <glyph glyph-name="thorn" unicode="&#xfe;" horiz-adv-x="1116" 
d="M888.5 904.5q-112.5 141.5 -294.5 141.5q-183 0 -299 -142.5t-116 -365.5t116 -365.5t299 -142.5t295 140.5t112 366.5t-112.5 367.5zM610 1092q88 0 171.5 -40.5t143.5 -113.5t93 -175t33 -287t-126.5 -338.5t-327.5 -153.5q-144 0 -255.5 82.5t-157.5 223.5h-5v-683
h-49v1869h47v-701h5q45 147 157 232t271 85z" />
    <glyph glyph-name="ydieresis" unicode="&#xff;" horiz-adv-x="888" 
d="M584 1253q-22 0 -38.5 16t-16.5 38t16.5 37.5t38.5 15.5t38 -15.5t16 -37.5t-16 -38t-38 -16zM304 1253q-22 0 -38 16t-16 38t16 37.5t38 15.5t38.5 -15.5t16.5 -37.5t-16.5 -38t-38.5 -16zM188 -296q67 0 112.5 47t88.5 158l28 72l-415 1095h54l387 -1029h2l388 1029h54
l-417 -1101q-74 -195 -130.5 -256.5t-161.5 -61.5q-25 0 -47 9v47q25 -9 57 -9z" />
    <glyph glyph-name="Amacron" unicode="&#x100;" horiz-adv-x="1201" 
d="M882 1616h-564v43h564v-43zM283 547h635l-315 827h-5zM936 501h-671l-190 -501h-55l555 1443h51l555 -1443h-56z" />
    <glyph glyph-name="amacron" unicode="&#x101;" horiz-adv-x="1021" 
d="M818 1305h-584v43h584v-43zM190 68.5q-100 84.5 -100 219.5q0 273 380 304l389 30v97q0 234 -124.5 280.5t-200.5 46.5q-152 0 -244.5 -73.5t-113.5 -209.5h-47q18 153 125.5 241t279.5 88t273 -99.5t101 -270.5v-722h-49v245h-1q-40 -117 -154 -189t-264 -72t-250 84.5z
M859 396v182l-381 -29q-338 -26 -338 -263q0 -111 87.5 -183.5t230.5 -72.5q160 0 280.5 107.5t120.5 258.5z" />
    <glyph glyph-name="Abreve" unicode="&#x102;" horiz-adv-x="1201" 
d="M388 1771q0 -76 59 -125.5t153 -49.5t153 49.5t59 125.5h45q0 -100 -72 -158.5t-185 -58.5t-185 58.5t-72 158.5h45zM283 547h635l-315 827h-5zM936 501h-671l-190 -501h-55l555 1443h51l555 -1443h-56z" />
    <glyph glyph-name="abreve" unicode="&#x103;" horiz-adv-x="1021" 
d="M320 1490q0 -89 58 -141.5t181.5 -52.5t155 75t31.5 119h45q0 -112 -72 -174.5t-186 -62.5q-179 0 -218.5 90t-39.5 147h45zM190 68.5q-100 84.5 -100 219.5q0 273 380 304l389 30v97q0 234 -124.5 280.5t-200.5 46.5q-152 0 -244.5 -73.5t-113.5 -209.5h-47
q18 153 125.5 241t279.5 88t273 -99.5t101 -270.5v-722h-49v245h-1q-40 -117 -154 -189t-264 -72t-250 84.5zM859 396v182l-381 -29q-338 -26 -338 -263q0 -111 87.5 -183.5t230.5 -72.5q160 0 280.5 107.5t120.5 258.5z" />
    <glyph glyph-name="Aogonek" unicode="&#x104;" horiz-adv-x="1201" 
d="M283 547h635l-315 826h-5zM968 -225q0 133 154 237l-186 488h-671l-190 -500h-55l555 1443h51l554 -1445q-163 -91 -163 -219q0 -61 41 -100t108 -39h15v-45q-2 -1 -5 -1h-20q-129 0 -158.5 70.5t-29.5 110.5z" />
    <glyph glyph-name="aogonek" unicode="&#x105;" horiz-adv-x="1021" 
d="M859 396v182l-381 -29q-338 -26 -338 -263q0 -111 87.5 -183.5t230.5 -72.5q160 0 280.5 107.5t120.5 258.5zM695 -225q0 134 164 240v230h-1q-40 -117 -154 -189t-264 -72t-250 84.5t-100 219.5q0 273 380 304l389 30v97q0 234 -124.5 280.5t-200.5 46.5
q-152 0 -244.5 -73.5t-113.5 -209.5h-47q18 153 125.5 241t279.5 88t273 -99.5t101 -270.5v-725q-164 -102 -164 -201q0 -78 41 -117t108 -39h15v-45q-2 -1 -4 -1h-21q-129 0 -158.5 70.5t-29.5 110.5z" />
    <glyph glyph-name="Cacute" unicode="&#x106;" horiz-adv-x="1303" 
d="M189.5 237q-126.5 151 -126.5 491t169.5 537.5t459.5 197.5q216 0 378 -141t180 -343h-49q-20 184 -167 310.5t-342 126.5q-266 0 -422.5 -184t-156.5 -504t158 -510.5t421 -190.5q201 0 346 114.5t163 298.5h49q-18 -203 -175 -331.5t-399 -128.5q-128 0 -244 53
t-242.5 204zM655 1554l293 287h66l-303 -287h-56z" />
    <glyph glyph-name="cacute" unicode="&#x107;" horiz-adv-x="1019" 
d="M486 1254l236 303h63l-246 -303h-53zM522 1046q-84 0 -162 -36t-132.5 -102t-83.5 -160t-29 -269t113 -311.5t306 -136.5q145 0 246.5 76.5t125.5 199.5h50q-26 -144 -140.5 -233.5t-281.5 -89.5q-216 0 -342.5 150t-126.5 404q0 255 127 404.5t342 149.5q164 0 281 -94
t143 -238h-50q-26 126 -128 206t-258 80z" />
    <glyph glyph-name="Ccircumflex" unicode="&#x108;" horiz-adv-x="1303" 
d="M716 1841l266 -287h-59l-229 249h-2l-229 -249h-59l266 287h46zM189.5 237q-126.5 151 -126.5 491t169.5 537.5t459.5 197.5q216 0 378 -141t180 -343h-49q-20 184 -167 310.5t-342 126.5q-266 0 -422.5 -184t-156.5 -504t158 -510.5t421 -190.5q201 0 346 114.5
t163 298.5h49q-18 -203 -175 -331.5t-399 -128.5q-128 0 -244 53t-242.5 204z" />
    <glyph glyph-name="ccircumflex" unicode="&#x109;" horiz-adv-x="1019" 
d="M522 1046q-84 0 -162 -36t-132.5 -102t-83.5 -160t-29 -269t113 -311.5t306 -136.5q145 0 246.5 76.5t125.5 199.5h50q-26 -144 -140.5 -233.5t-281.5 -89.5q-216 0 -342.5 150t-126.5 404q0 255 127 404.5t342 149.5q164 0 281 -94t143 -238h-50q-26 126 -128 206
t-258 80zM821 1254h-56l-230 264h-2l-230 -264h-56l265 303h44z" />
    <glyph glyph-name="Cdotaccent" unicode="&#x10a;" horiz-adv-x="1303" 
d="M189.5 237q-126.5 151 -126.5 491t169.5 537.5t459.5 197.5q216 0 378 -141t180 -343h-49q-20 184 -167 310.5t-342 126.5q-266 0 -422.5 -184t-156.5 -504t158 -510.5t421 -190.5q201 0 346 114.5t163 298.5h49q-18 -203 -175 -331.5t-399 -128.5q-128 0 -244 53
t-242.5 204zM693 1556q-26 0 -45 19t-19 45t19 44.5t45 18.5t45 -18.5t19 -44.5t-19 -45t-45 -19z" />
    <glyph glyph-name="cdotaccent" unicode="&#x10b;" horiz-adv-x="1019" 
d="M534 1254q-26 0 -45 19t-19 45t19 45t45 19t45.5 -19t19.5 -45t-19.5 -45t-45.5 -19zM522 1046q-84 0 -162 -36t-132.5 -102t-83.5 -160t-29 -269t113 -311.5t306 -136.5q145 0 246.5 76.5t125.5 199.5h50q-26 -144 -140.5 -233.5t-281.5 -89.5q-216 0 -342.5 150
t-126.5 404q0 255 127 404.5t342 149.5q164 0 281 -94t143 -238h-50q-26 126 -128 206t-258 80z" />
    <glyph glyph-name="Ccaron" unicode="&#x10c;" horiz-adv-x="1303" 
d="M404 1841h59l229 -250h2l229 250h59l-266 -287h-46zM189.5 237q-126.5 151 -126.5 491t169.5 537.5t459.5 197.5q216 0 378 -141t180 -343h-49q-20 184 -167 310.5t-342 126.5q-266 0 -422.5 -184t-156.5 -504t158 -510.5t421 -190.5q201 0 346 114.5t163 298.5h49
q-18 -203 -175 -331.5t-399 -128.5q-128 0 -244 53t-242.5 204z" />
    <glyph glyph-name="ccaron" unicode="&#x10d;" horiz-adv-x="1019" 
d="M522 1046q-84 0 -162 -36t-132.5 -102t-83.5 -160t-29 -269t113 -311.5t306 -136.5q145 0 246.5 76.5t125.5 199.5h50q-26 -144 -140.5 -233.5t-281.5 -89.5q-216 0 -342.5 150t-126.5 404q0 255 127 404.5t342 149.5q164 0 281 -94t143 -238h-50q-26 126 -128 206
t-258 80zM512 1254l-265 303h56l230 -264h2l230 264h56l-265 -303h-44z" />
    <glyph glyph-name="Dcaron" unicode="&#x10e;" horiz-adv-x="1313" 
d="M175 47h384q309 0 475 175.5t166 499t-166 499t-475 175.5h-384v-1349zM560 1443q330 0 510 -187.5t180 -533.5q0 -345 -180 -533.5t-510 -188.5h-436v1443h436zM264 1841h59l229 -250h2l229 250h59l-266 -287h-46z" />
    <glyph glyph-name="dcaron" unicode="&#x10f;" horiz-adv-x="1209" 
d="M230 172.5q115 -141.5 298 -141.5q182 0 300 141t118 366t-118.5 366.5t-300.5 141.5t-297 -140.5t-115 -366t115 -367zM193 937.5q128 154.5 331 154.5q155 0 271 -95t149 -236h2v745h50v-1506h-46v322h-2q-35 -146 -150.5 -242t-283.5 -96q-90 0 -174.5 40.5
t-179.5 154t-95 359t128 400zM1192 1121v355h47l-10 -355h-37z" />
    <glyph glyph-name="Dcroat" unicode="&#x110;" horiz-adv-x="1367" 
d="M603 1443q330 0 510 -187.5t180 -533.5q0 -345 -180 -533.5t-510 -188.5h-436v717h-110v47h110v679h436zM602 47q309 0 475 175.5t166 499t-166 499t-475 175.5h-384v-632h382v-47h-382v-670h384z" />
    <glyph glyph-name="dcroat" unicode="&#x111;" horiz-adv-x="1128" 
d="M1104 1282h-107v-1282h-47v300h-5q-44 -145 -156.5 -230.5t-258.5 -85.5q-205 0 -334.5 154.5t-129.5 399t130 399.5t343 155t297 -118.5t107 -188.5h5v497h-298v44h298v184h49v-184h107v-44zM831 904q-117 142 -299 142t-299 -141.5t-117 -366t117 -366.5t300 -142
t299 142.5t116 366t-117 365.5z" />
    <glyph glyph-name="Emacron" unicode="&#x112;" horiz-adv-x="1050" 
d="M819 1616h-564v43h564v-43zM950 0h-826v1443h826v-47h-776v-632h740v-46h-740v-671h776v-47z" />
    <glyph glyph-name="emacron" unicode="&#x113;" horiz-adv-x="1056" 
d="M818 1305h-584v43h584v-43zM194 130.5q-129 146.5 -129 402.5t128.5 407.5t336.5 151.5t334.5 -143t126.5 -375v-38h-876v-2q0 -238 115.5 -371t311.5 -133q236 0 304 106t80 163h51q-29 -141 -145 -228t-312 -87q-197 0 -326 146.5zM239 918q-115 -128 -123 -337h825
q0 208 -113 336.5t-293 128.5q-181 0 -296 -128z" />
    <glyph glyph-name="Ebreve" unicode="&#x114;" horiz-adv-x="1050" 
d="M325 1771q0 -76 59 -125.5t153 -49.5t153 49.5t59 125.5h45q0 -100 -72 -158.5t-185 -58.5t-185 58.5t-72 158.5h45zM950 0h-826v1443h826v-47h-776v-632h740v-46h-740v-671h776v-47z" />
    <glyph glyph-name="ebreve" unicode="&#x115;" horiz-adv-x="1056" 
d="M320 1490q0 -89 58 -141.5t181.5 -52.5t155 75t31.5 119h45q0 -112 -72 -174.5t-186 -62.5q-179 0 -218.5 90t-39.5 147h45zM194 130.5q-129 146.5 -129 402.5t128.5 407.5t336.5 151.5t334.5 -143t126.5 -375v-38h-876v-2q0 -238 115.5 -371t311.5 -133q236 0 304 106
t80 163h51q-29 -141 -145 -228t-312 -87q-197 0 -326 146.5zM239 918q-115 -128 -123 -337h825q0 208 -113 336.5t-293 128.5q-181 0 -296 -128z" />
    <glyph glyph-name="Edotaccent" unicode="&#x116;" horiz-adv-x="1050" 
d="M950 0h-826v1443h826v-47h-776v-632h740v-46h-740v-671h776v-47zM537 1556q-26 0 -45 19t-19 45t19 44.5t45 18.5t45 -18.5t19 -44.5t-19 -45t-45 -19z" />
    <glyph glyph-name="edotaccent" unicode="&#x117;" horiz-adv-x="1056" 
d="M194 130.5q-129 146.5 -129 402.5t128.5 407.5t336.5 151.5t334.5 -143t126.5 -375v-38h-876v-2q0 -238 115.5 -371t311.5 -133q236 0 304 106t80 163h51q-29 -141 -145 -228t-312 -87q-197 0 -326 146.5zM239 918q-115 -128 -123 -337h825q0 208 -113 336.5t-293 128.5
q-181 0 -296 -128zM533 1254q-26 0 -45 19t-19 45t19 45t45 19t45.5 -19t19.5 -45t-19.5 -45t-45.5 -19z" />
    <glyph glyph-name="Eogonek" unicode="&#x118;" horiz-adv-x="1050" 
d="M734 -224q0 125 136 224h-746v1443h826v-47h-776v-632h740v-46h-740v-671h776v-44q-166 -93 -166 -222q0 -97 58 -119t91 -22h17v-45l-27 -1q-83 0 -136 51t-53 131z" />
    <glyph glyph-name="eogonek" unicode="&#x119;" horiz-adv-x="1056" 
d="M239.5 919q-115.5 -127 -123.5 -338h825q0 208 -113 336.5t-293 128.5t-295.5 -127zM531 -217q0 122 123 210v2q-42 -11 -133 -11q-90 0 -178.5 38.5t-183 148.5t-94.5 364t128.5 405.5t336.5 151.5t334.5 -143t126.5 -375v-38h-876v-2q0 -234 114 -369t313 -135
q150 0 254 73t130 196h51q-35 -169 -190 -263q-109 -65 -158 -124.5t-49 -125.5q0 -99 58 -122.5t76 -23.5h16q15 0 16 1v-46l-27 -1q-80 0 -134 54t-54 135z" />
    <glyph glyph-name="Ecaron" unicode="&#x11a;" horiz-adv-x="1050" 
d="M950 0h-826v1443h826v-47h-776v-632h740v-46h-740v-671h776v-47zM248 1841h59l229 -250h2l229 250h59l-266 -287h-46z" />
    <glyph glyph-name="ecaron" unicode="&#x11b;" horiz-adv-x="1056" 
d="M194 130.5q-129 146.5 -129 402.5t128.5 407.5t336.5 151.5t334.5 -143t126.5 -375v-38h-876v-2q0 -238 115.5 -371t311.5 -133q236 0 304 106t80 163h51q-29 -141 -145 -228t-312 -87q-197 0 -326 146.5zM239 918q-115 -128 -123 -337h825q0 208 -113 336.5t-293 128.5
q-181 0 -296 -128zM511 1254l-265 303h56l230 -264h2l230 264h56l-265 -303h-44z" />
    <glyph glyph-name="Gcircumflex" unicode="&#x11c;" horiz-adv-x="1332" 
d="M1259 564q0 -272 -154 -428t-425 -156t-444 209t-173 541t171.5 532.5t450.5 200.5q212 0 368 -117.5t196 -309.5h-49q-42 172 -182.5 276t-332.5 104q-258 0 -415 -188t-157 -500q0 -311 158.5 -506t407.5 -195q250 0 390.5 142.5t140.5 392.5v100h-531v46h580v-144z
M708 1841l266 -287h-59l-229 249h-2l-229 -249h-59l266 287h46z" />
    <glyph glyph-name="gcircumflex" unicode="&#x11d;" horiz-adv-x="1106" 
d="M265.5 -290.5q-110.5 63.5 -134.5 169.5h53q32 -129 159.5 -158t207.5 -29q168 0 277 82t109 224v318h-2q-33 -141 -146.5 -236t-269.5 -95q-201 0 -327.5 153t-126.5 400t126.5 400.5t327.5 153.5q156 0 270 -95.5t149 -241.5h2v321h46v-1076q0 -165 -122.5 -259.5
t-304.5 -94.5q-183 0 -293.5 63.5zM937 538q0 225 -116.5 366.5t-298.5 141.5t-294.5 -141t-112.5 -367.5t113 -366.5t294 -140q183 0 299 141t116 366zM846 1254h-56l-230 264h-2l-230 -264h-56l265 303h44z" />
    <glyph glyph-name="Gbreve" unicode="&#x11e;" horiz-adv-x="1332" 
d="M473 1771q0 -76 59 -125.5t153 -49.5t153 49.5t59 125.5h45q0 -100 -72 -158.5t-185 -58.5t-185 58.5t-72 158.5h45zM1259 564q0 -272 -154 -428t-425 -156t-444 209t-173 541t171.5 532.5t450.5 200.5q212 0 368 -117.5t196 -309.5h-49q-42 172 -182.5 276t-332.5 104
q-258 0 -415 -188t-157 -500q0 -311 158.5 -506t407.5 -195q250 0 390.5 142.5t140.5 392.5v100h-531v46h580v-144z" />
    <glyph glyph-name="gbreve" unicode="&#x11f;" horiz-adv-x="1106" 
d="M265.5 -290.5q-110.5 63.5 -134.5 169.5h53q32 -129 159.5 -158t207.5 -29q168 0 277 82t109 224v318h-2q-33 -141 -146.5 -236t-269.5 -95q-201 0 -327.5 153t-126.5 400t126.5 400.5t327.5 153.5q156 0 270 -95.5t149 -241.5h2v321h46v-1076q0 -165 -122.5 -259.5
t-304.5 -94.5q-183 0 -293.5 63.5zM937 538q0 225 -116.5 366.5t-298.5 141.5t-294.5 -141t-112.5 -367.5t113 -366.5t294 -140q183 0 299 141t116 366zM346 1490q0 -89 58 -141.5t182 -52.5t155 75t31 119h45q0 -112 -72 -174.5t-186 -62.5q-179 0 -218.5 90t-39.5 147h45z
" />
    <glyph glyph-name="Gdotaccent" unicode="&#x120;" horiz-adv-x="1332" 
d="M1259 564q0 -272 -154 -428t-425 -156t-444 209t-173 541t171.5 532.5t450.5 200.5q212 0 368 -117.5t196 -309.5h-49q-42 172 -182.5 276t-332.5 104q-258 0 -415 -188t-157 -500q0 -311 158.5 -506t407.5 -195q250 0 390.5 142.5t140.5 392.5v100h-531v46h580v-144z
M685 1556q-26 0 -45 19t-19 45t19 44.5t45 18.5t45 -18.5t19 -44.5t-19 -45t-45 -19z" />
    <glyph glyph-name="gdotaccent" unicode="&#x121;" horiz-adv-x="1106" 
d="M265.5 -290.5q-110.5 63.5 -134.5 169.5h53q32 -129 159.5 -158t207.5 -29q168 0 277 82t109 224v318h-2q-33 -141 -146.5 -236t-269.5 -95q-201 0 -327.5 153t-126.5 400t126.5 400.5t327.5 153.5q156 0 270 -95.5t149 -241.5h2v321h46v-1076q0 -165 -122.5 -259.5
t-304.5 -94.5q-183 0 -293.5 63.5zM937 538q0 225 -116.5 366.5t-298.5 141.5t-294.5 -141t-112.5 -367.5t113 -366.5t294 -140q183 0 299 141t116 366zM559 1254q-26 0 -45 19t-19 45t19 45t45 19t45.5 -19t19.5 -45t-19.5 -45t-45.5 -19z" />
    <glyph glyph-name="Gcommaaccent" unicode="&#x122;" horiz-adv-x="1332" 
d="M1259 564q0 -272 -154 -428t-425 -156t-444 209t-173 541t171.5 532.5t450.5 200.5q212 0 368 -117.5t196 -309.5h-49q-42 172 -182.5 276t-332.5 104q-258 0 -415 -188t-157 -500q0 -311 158.5 -506t407.5 -195q250 0 390.5 142.5t140.5 392.5v100h-531v46h580v-144z
M570 -480l102 338h57l-113 -338h-46z" />
    <glyph glyph-name="gcommaaccent" unicode="&#x123;" horiz-adv-x="1106" 
d="M265.5 -290.5q-110.5 63.5 -134.5 169.5h53q32 -129 159.5 -158t207.5 -29q168 0 277 82t109 224v318h-2q-33 -141 -146.5 -236t-269.5 -95q-201 0 -327.5 153t-126.5 400t126.5 400.5t327.5 153.5q156 0 270 -95.5t149 -241.5h2v321h46v-1076q0 -165 -122.5 -259.5
t-304.5 -94.5q-183 0 -293.5 63.5zM937 538q0 225 -116.5 366.5t-298.5 141.5t-294.5 -141t-112.5 -367.5t113 -366.5t294 -140q183 0 299 141t116 366zM427 -833l102 338h57l-113 -338h-46z" />
    <glyph glyph-name="Hcircumflex" unicode="&#x124;" horiz-adv-x="1296" 
d="M671 1841l266 -287h-59l-229 249h-2l-229 -249h-59l266 287h46zM1122 0v718h-948v-718h-50v1443h50v-678h948v678h50v-1443h-50z" />
    <glyph glyph-name="hcircumflex" unicode="&#x125;" horiz-adv-x="1075" 
d="M178 1904l266 -287h-59l-229 249h-2l-229 -249h-59l266 287h46zM130 1506h49v-684h2q34 120 139.5 195t243.5 75q178 0 288 -108.5t110 -288.5v-695h-50v693q0 162 -97.5 257.5t-259.5 95.5t-269 -112t-107 -289v-645h-49v1506z" />
    <glyph glyph-name="Hbar" unicode="&#x126;" horiz-adv-x="1373" 
d="M1354 1135h-144v-1135h-50v718h-948v-718h-50v1135h-143v46h143v262h50v-262h948v262h50v-262h144v-46zM1160 1135h-948v-370h948v370z" />
    <glyph glyph-name="hbar" unicode="&#x127;" horiz-adv-x="1152" 
d="M889 986.5q111 -105.5 111 -282.5v-704h-49v694q0 158 -101 255t-258 97t-265.5 -112.5t-108.5 -291.5v-642h-50v1280h-148v44h148v186h50v-186h297v-44h-297v-449h4q38 120 140.5 190.5t259.5 70.5q156 0 267 -105.5z" />
    <glyph glyph-name="Itilde" unicode="&#x128;" horiz-adv-x="298" 
d="M286 1596q97 0 97 158h45q0 -142 -53 -172t-87 -30t-60 12.5t-48 31t-41 40.5t-51.5 53t-75.5 31q-97 0 -97 -158h-45q0 143 53 172t87 29t60 -12.5t48 -31t41 -40t51.5 -52.5t75.5 -31zM124 0v1443h50v-1443h-50z" />
    <glyph glyph-name="itilde" unicode="&#x129;" horiz-adv-x="309" 
d="M291 1298q97 0 97 158h45q0 -142 -53.5 -172t-87.5 -30t-59.5 12.5t-47.5 31t-41 40.5t-51.5 53t-75.5 31q-97 0 -97 -158h-45q0 143 53.5 172t87.5 29t59.5 -12.5t47.5 -31t41 -40t51.5 -52.5t75.5 -31zM130 1076h49v-1076h-49v1076z" />
    <glyph glyph-name="Imacron" unicode="&#x12a;" horiz-adv-x="298" 
d="M431 1616h-564v43h564v-43zM124 0v1443h50v-1443h-50z" />
    <glyph glyph-name="imacron" unicode="&#x12b;" horiz-adv-x="309" 
d="M440 1305h-584v43h584v-43zM130 1076h49v-1076h-49v1076z" />
    <glyph glyph-name="Ibreve" unicode="&#x12c;" horiz-adv-x="298" 
d="M-63 1771q0 -76 59 -125.5t153 -49.5t153 49.5t59 125.5h45q0 -100 -72 -158.5t-185 -58.5t-185 58.5t-72 158.5h45zM124 0v1443h50v-1443h-50z" />
    <glyph glyph-name="ibreve" unicode="&#x12d;" horiz-adv-x="309" 
d="M-58 1490q0 -89 58 -141.5t181.5 -52.5t155 75t31.5 119h45q0 -112 -72 -174.5t-186 -62.5q-179 0 -218.5 90t-39.5 147h45zM130 1076h49v-1076h-49v1076z" />
    <glyph glyph-name="Iogonek" unicode="&#x12e;" horiz-adv-x="298" 
d="M-39 -225q0 135 163 240v1428h50v-1447q-91 -57 -119 -94t-36.5 -64.5t-8.5 -73.5t41 -85t108 -39h15v-45q-2 -1 -4 -1h-21q-129 0 -158.5 70.5t-29.5 110.5z" />
    <glyph glyph-name="iogonek" unicode="&#x12f;" horiz-adv-x="309" 
d="M-34 -225q0 136 164 240v1061h49v-1079q-164 -102 -164 -202q0 -77 41 -116t108 -39h15v-45q-2 -1 -5 -1h-20q-129 0 -158.5 70.5t-29.5 110.5zM155 1366q-20 0 -34.5 14t-14.5 34t14.5 34t34.5 14t34 -14t14 -34t-14 -34t-34 -14z" />
    <glyph glyph-name="Idotaccent" unicode="&#x130;" horiz-adv-x="298" 
d="M149 1556q-26 0 -45 19t-19 45t19 44.5t45 18.5t45 -18.5t19 -44.5t-19 -45t-45 -19zM124 0v1443h50v-1443h-50z" />
    <glyph glyph-name="dotlessi" unicode="&#x131;" horiz-adv-x="309" 
d="M130 1076h49v-1076h-49v1076z" />
    <glyph glyph-name="u0132" unicode="&#x132;" horiz-adv-x="1231" 
d="M1057 384v1059h50v-1062q0 -185 -104.5 -293.5t-275.5 -108.5t-276.5 94t-111.5 242h49q6 -127 97.5 -208t235.5 -81q153 0 244.5 95t91.5 263zM124 0v1443h50v-1443h-50z" />
    <glyph glyph-name="u0133" unicode="&#x133;" horiz-adv-x="618" 
d="M464 1366q-20 0 -34.5 14t-14.5 34t14.5 34t34.5 14t34 -14t14 -34t-14 -34t-34 -14zM488 -80q0 -206 -99.5 -234t-163.5 -28h-29v45h27q112 0 164 50t52 163v1160h49v-1156zM155 1366q-20 0 -34.5 14t-14.5 34t14.5 34t34.5 14t34 -14t14 -34t-14 -34t-34 -14zM130 1076
h49v-1076h-49v1076z" />
    <glyph glyph-name="Jcircumflex" unicode="&#x134;" horiz-adv-x="933" 
d="M807 1841l266 -287h-59l-229 249h-2l-229 -249h-59l266 287h46zM759 384v1059h50v-1062q0 -185 -104.5 -293.5t-275.5 -108.5t-276.5 94t-111.5 242h49q6 -127 97.5 -208t235.5 -81q153 0 244.5 95t91.5 263z" />
    <glyph glyph-name="jcircumflex" unicode="&#x135;" horiz-adv-x="309" 
d="M441 1254h-56l-230 264h-2l-230 -264h-56l265 303h44zM179 -80q0 -206 -99.5 -234t-163.5 -28h-29v45h27q112 0 164 50t52 163v1160h49v-1156z" />
    <glyph glyph-name="Kcommaaccent" unicode="&#x136;" horiz-adv-x="1107" 
d="M410 -480l102 338h57l-113 -338h-46zM124 0v1443h50v-836h4l784 836h64l-594 -635l664 -808h-64l-636 773l-222 -237v-536h-50z" />
    <glyph glyph-name="kcommaaccent" unicode="&#x137;" horiz-adv-x="913" 
d="M352 -480l102 338h57l-113 -338h-46zM179 0h-49v1506h49v-1003h2l645 573h70l-517 -463l519 -613h-65l-493 583l-161 -142v-441z" />
    <glyph glyph-name="Lacute" unicode="&#x139;" horiz-adv-x="1009" 
d="M949 0h-825v1443h50v-1396h775v-47zM111 1554l293 287h66l-303 -287h-56z" />
    <glyph glyph-name="lacute" unicode="&#x13a;" horiz-adv-x="309" 
d="M130 1506h49v-1506h-49v1506zM117 1617l293 287h66l-303 -287h-56z" />
    <glyph glyph-name="Lcommaaccent" unicode="&#x13b;" horiz-adv-x="1009" 
d="M949 0h-825v1443h50v-1396h775v-47zM422 -480l102 338h57l-113 -338h-46z" />
    <glyph glyph-name="lcommaaccent" unicode="&#x13c;" horiz-adv-x="309" 
d="M130 1506h49v-1506h-49v1506zM40 -480l102 338h57l-113 -338h-46z" />
    <glyph glyph-name="Lcaron" unicode="&#x13d;" horiz-adv-x="1009" 
d="M949 0h-825v1443h50v-1396h775v-47zM408 1088v355h49l-12 -355h-37z" />
    <glyph glyph-name="lcaron" unicode="&#x13e;" horiz-adv-x="393" 
d="M130 1506h49v-1506h-49v1506zM376 1121v355h47l-11 -355h-36z" />
    <glyph glyph-name="Lslash" unicode="&#x141;" horiz-adv-x="1046" 
d="M986 47v-47h-825v721l-128 -71v47l128 71v675h50v-648l406 224v-47l-406 -224v-701h775z" />
    <glyph glyph-name="lslash" unicode="&#x142;" horiz-adv-x="312" 
d="M179 0h-49v745l-116 -71v51l116 71v710h49v-680l118 73v-51l-118 -73v-775z" />
    <glyph glyph-name="Nacute" unicode="&#x143;" horiz-adv-x="1315" 
d="M124 0v1443h55l958 -1348h4v1348h50v-1443h-46l-967 1359h-4v-1359h-50zM619 1554l293 287h66l-303 -287h-56z" />
    <glyph glyph-name="nacute" unicode="&#x144;" horiz-adv-x="1063" 
d="M120 1076h46v-254h2q34 120 138.5 195t243.5 75q178 0 289 -107.5t111 -288.5v-696h-49v694q0 161 -99.5 256.5t-261.5 95.5t-266.5 -112t-104.5 -288v-646h-49v1076zM490 1254l236 303h63l-246 -303h-53z" />
    <glyph glyph-name="Ncommaaccent" unicode="&#x145;" horiz-adv-x="1315" 
d="M124 0v1443h55l958 -1348h4v1348h50v-1443h-46l-967 1359h-4v-1359h-50zM542 -480l102 338h57l-113 -338h-46z" />
    <glyph glyph-name="ncommaaccent" unicode="&#x146;" horiz-adv-x="1063" 
d="M120 1076h46v-254h2q34 120 138.5 195t243.5 75q178 0 289 -107.5t111 -288.5v-696h-49v694q0 161 -99.5 256.5t-261.5 95.5t-266.5 -112t-104.5 -288v-646h-49v1076zM405 -480l102 338h57l-113 -338h-46z" />
    <glyph glyph-name="Ncaron" unicode="&#x147;" horiz-adv-x="1315" 
d="M124 0v1443h55l958 -1348h4v1348h50v-1443h-46l-967 1359h-4v-1359h-50zM368 1841h59l229 -250h2l229 250h59l-266 -287h-46z" />
    <glyph glyph-name="ncaron" unicode="&#x148;" horiz-adv-x="1063" 
d="M120 1076h46v-254h2q34 120 138.5 195t243.5 75q178 0 289 -107.5t111 -288.5v-696h-49v694q0 161 -99.5 256.5t-261.5 95.5t-266.5 -112t-104.5 -288v-646h-49v1076zM516 1254l-265 303h56l230 -264h2l230 264h56l-265 -303h-44z" />
    <glyph glyph-name="Omacron" unicode="&#x14c;" horiz-adv-x="1398" 
d="M981 1616h-564v43h564v-43zM272.5 215.5q159.5 -188.5 426.5 -188.5t426.5 188.5t159.5 506.5t-159.5 506t-427.5 188q-269 0 -427 -187.5t-158 -506t159.5 -507zM1163 1262q172 -201 172 -541t-172 -540.5t-464.5 -200.5t-464 200.5t-171.5 541.5t172 541t464 200
t464 -201z" />
    <glyph glyph-name="omacron" unicode="&#x14d;" horiz-adv-x="1078" 
d="M539 31q95 0 173.5 35.5t134.5 101.5t86.5 159.5t30.5 210.5t-30.5 211t-86.5 160t-134.5 101.5t-173.5 35.5t-173.5 -35.5t-134 -101.5t-86 -160t-30.5 -211t30.5 -211t86 -159.5t134 -101t173.5 -35.5zM65 538q0 253 131 403.5t343 150.5t343 -150t131 -404
q0 -253 -130.5 -403.5t-344.5 -150.5t-343.5 150.5t-129.5 403.5zM824 1304h-584v43h584v-43z" />
    <glyph glyph-name="Obreve" unicode="&#x14e;" horiz-adv-x="1398" 
d="M487 1771q0 -76 59 -125.5t153 -49.5t153 49.5t59 125.5h45q0 -100 -72 -158.5t-185 -58.5t-185 58.5t-72 158.5h45zM272.5 215.5q159.5 -188.5 426.5 -188.5t426.5 188.5t159.5 506.5t-159.5 506t-427.5 188q-269 0 -427 -187.5t-158 -506t159.5 -507zM1163 1262
q172 -201 172 -541t-172 -540.5t-464.5 -200.5t-464 200.5t-171.5 541.5t172 541t464 200t464 -201z" />
    <glyph glyph-name="obreve" unicode="&#x14f;" horiz-adv-x="1078" 
d="M539 31q95 0 173.5 35.5t134.5 101.5t86.5 159.5t30.5 210.5t-30.5 211t-86.5 160t-134.5 101.5t-173.5 35.5t-173.5 -35.5t-134 -101.5t-86 -160t-30.5 -211t30.5 -211t86 -159.5t134 -101t173.5 -35.5zM65 538q0 253 131 403.5t343 150.5t343 -150t131 -404
q0 -253 -130.5 -403.5t-344.5 -150.5t-343.5 150.5t-129.5 403.5zM326 1489q0 -89 58 -141.5t182 -52.5t155 75t31 119h45q0 -112 -72 -174.5t-186 -62.5q-179 0 -218.5 90t-39.5 147h45z" />
    <glyph glyph-name="Ohungarumlaut" unicode="&#x150;" horiz-adv-x="1398" 
d="M272.5 215.5q159.5 -188.5 426.5 -188.5t426.5 188.5t159.5 506.5t-159.5 506t-427.5 188q-269 0 -427 -187.5t-158 -506t159.5 -507zM1163 1262q172 -201 172 -541t-172 -540.5t-464.5 -200.5t-464 200.5t-171.5 541.5t172 541t464 200t464 -201zM553 1554l293 287h66
l-303 -287h-56zM807 1554l294 287h65l-303 -287h-56z" />
    <glyph glyph-name="ohungarumlaut" unicode="&#x151;" horiz-adv-x="1078" 
d="M539 31q95 0 173.5 35.5t134.5 101.5t86.5 159.5t30.5 210.5t-30.5 211t-86.5 160t-134.5 101.5t-173.5 35.5t-173.5 -35.5t-134 -101.5t-86 -160t-30.5 -211t30.5 -211t86 -159.5t134 -101t173.5 -35.5zM65 538q0 253 131 403.5t343 150.5t343 -150t131 -404
q0 -253 -130.5 -403.5t-344.5 -150.5t-343.5 150.5t-129.5 403.5zM635 1556h62l-245 -303h-52zM858 1556h62l-245 -303h-52z" />
    <glyph glyph-name="OE" unicode="&#x152;" horiz-adv-x="2167" 
d="M236 1264.5q173 198.5 469 198.5q333 0 446 -165t146 -268v413h797v-47h-747v-632h711v-46h-711v-671h747v-47h-797v414q-138 -434 -612 -434q-129 0 -247.5 51.5t-246.5 198.5t-128 491.5t173 543zM705 1416q-135 0 -244.5 -49t-187 -139.5t-119 -218.5t-41.5 -287
t41.5 -287t119 -219t187 -140t244.5 -49t244.5 49t187 139.5t119 219t41.5 287.5t-42 287t-119 218.5t-186.5 139.5t-244.5 49z" />
    <glyph glyph-name="oe" unicode="&#x153;" horiz-adv-x="1955" 
d="M847.5 164.5q116.5 137.5 116.5 369.5t-116.5 370.5t-309 138.5t-308 -138.5t-115.5 -370t116 -369.5t308 -138t308.5 137.5zM1840 580q0 207 -114 336.5t-294 129.5t-294.5 -129.5t-122.5 -336.5h825zM65 534q0 254 129.5 404.5t344.5 150.5q177 0 300 -107.5
t147 -276.5h5q22 168 145 277.5t313 109.5q189 0 315 -143t126 -374v-40h-876v-2q0 -227 117 -365t310 -138q156 0 257.5 75.5t126.5 193.5h51q-29 -140 -144.5 -227.5t-292.5 -87.5t-301.5 109.5t-146.5 275.5h-5q-22 -171 -145.5 -279.5t-301.5 -108.5
q-217 0 -345.5 149.5t-128.5 403.5z" />
    <glyph glyph-name="Racute" unicode="&#x154;" horiz-adv-x="1124" 
d="M571 630h-397v-630h-50v1443h448q216 0 340 -108.5t124 -298.5q0 -242 -132.5 -312t-214.5 -84l381 -640h-57l-376 632q-28 -2 -66 -2zM174 676h397q192 0 303 96.5t111 264.5q0 169 -110.5 264t-304.5 95h-396v-720zM445 1554l293 287h66l-303 -287h-56z" />
    <glyph glyph-name="racute" unicode="&#x155;" horiz-adv-x="603" 
d="M456 1045q-131 0 -209 -104.5t-78 -270.5v-670h-49v1076h46v-223h2q71 239 297 239q60 0 108 -21v-51q-51 25 -117 25zM286 1254l236 303h63l-246 -303h-53z" />
    <glyph glyph-name="Rcommaaccent" unicode="&#x156;" horiz-adv-x="1124" 
d="M368 -480l102 338h57l-113 -338h-46zM571 630h-397v-630h-50v1443h448q216 0 340 -108.5t124 -298.5q0 -242 -132.5 -312t-214.5 -84l381 -640h-57l-376 632q-28 -2 -66 -2zM174 676h397q192 0 303 96.5t111 264.5q0 169 -110.5 264t-304.5 95h-396v-720z" />
    <glyph glyph-name="rcommaaccent" unicode="&#x157;" horiz-adv-x="603" 
d="M30 -480l102 338h57l-113 -338h-46zM456 1045q-131 0 -209 -104.5t-78 -270.5v-670h-49v1076h46v-223h2q71 239 297 239q60 0 108 -21v-51q-51 25 -117 25z" />
    <glyph glyph-name="Rcaron" unicode="&#x158;" horiz-adv-x="1124" 
d="M194 1841h59l229 -250h2l229 250h59l-266 -287h-46zM571 630h-397v-630h-50v1443h448q216 0 340 -108.5t124 -298.5q0 -242 -132.5 -312t-214.5 -84l381 -640h-57l-376 632q-28 -2 -66 -2zM174 676h397q192 0 303 96.5t111 264.5q0 169 -110.5 264t-304.5 95h-396v-720z
" />
    <glyph glyph-name="rcaron" unicode="&#x159;" horiz-adv-x="603" 
d="M456 1045q-131 0 -209 -104.5t-78 -270.5v-670h-49v1076h46v-223h2q71 239 297 239q60 0 108 -21v-51q-51 25 -117 25zM312 1254l-265 303h56l230 -264h2l230 264h56l-265 -303h-44z" />
    <glyph glyph-name="Sacute" unicode="&#x15a;" horiz-adv-x="1114" 
d="M1010 377q0 121 -85 193.5t-277 120.5l-167 42q-201 50 -295 133.5t-94 215.5q0 164 135 272.5t331 108.5t332 -104.5t142 -256.5h-50q-6 136 -129 225.5t-297 89.5t-294 -95.5t-120 -239.5q0 -168 132 -224t223 -78l165 -41q208 -53 303 -137.5t95 -222.5
q0 -175 -136.5 -287t-355 -112t-363.5 113t-153 289h50q8 -157 140 -256.5t328 -99.5q195 0 317.5 99.5t122.5 251.5zM515 1554l293 287h66l-303 -287h-56z" />
    <glyph glyph-name="sacute" unicode="&#x15b;" horiz-adv-x="905" 
d="M406 1254l236 303h63l-246 -303h-53zM458 1046q-134 0 -225.5 -67t-91.5 -170q0 -124 89 -160.5t150 -50.5l167 -40q237 -59 269.5 -141.5t32.5 -142.5q0 -127 -110 -208.5t-280 -81.5t-282.5 93t-120.5 227h50q10 -115 108.5 -194.5t243.5 -79.5q144 0 242.5 69
t98.5 177q0 135 -97.5 177.5t-169.5 59.5l-169 39q-135 32 -203 92t-68 174t105.5 194t261.5 80t257.5 -88t115.5 -240h-48q-23 198 -140.5 240t-185.5 42z" />
    <glyph glyph-name="Scircumflex" unicode="&#x15c;" horiz-adv-x="1114" 
d="M576 1841l266 -287h-59l-229 249h-2l-229 -249h-59l266 287h46zM1010 377q0 121 -85 193.5t-277 120.5l-167 42q-201 50 -295 133.5t-94 215.5q0 164 135 272.5t331 108.5t332 -104.5t142 -256.5h-50q-6 136 -129 225.5t-297 89.5t-294 -95.5t-120 -239.5
q0 -168 132 -224t223 -78l165 -41q208 -53 303 -137.5t95 -222.5q0 -175 -136.5 -287t-355 -112t-363.5 113t-153 289h50q8 -157 140 -256.5t328 -99.5q195 0 317.5 99.5t122.5 251.5z" />
    <glyph glyph-name="scircumflex" unicode="&#x15d;" horiz-adv-x="905" 
d="M458 1046q-134 0 -225.5 -67t-91.5 -170q0 -124 89 -160.5t150 -50.5l167 -40q237 -59 269.5 -141.5t32.5 -142.5q0 -127 -110 -208.5t-280 -81.5t-282.5 93t-120.5 227h50q10 -115 108.5 -194.5t243.5 -79.5q144 0 242.5 69t98.5 177q0 135 -97.5 177.5t-169.5 59.5
l-169 39q-135 32 -203 92t-68 174t105.5 194t261.5 80t257.5 -88t115.5 -240h-48q-23 198 -140.5 240t-185.5 42zM741 1254h-56l-230 264h-2l-230 -264h-56l265 303h44z" />
    <glyph glyph-name="Scedilla" unicode="&#x15e;" horiz-adv-x="1114" 
d="M644.5 -383q49.5 36 49.5 89t-42.5 82.5t-121.5 29.5h-50v33l58 130q-208 8 -343 120t-143 281h50q8 -157 140 -256.5t328 -99.5q195 0 317.5 99.5t122.5 251.5q0 121 -85 193.5t-277 120.5l-167 42q-201 50 -295 133.5t-94 215.5q0 164 135 272.5t331 108.5t332 -104.5
t142 -256.5h-50q-6 136 -129 225.5t-297 89.5t-294 -95.5t-120 -239.5q0 -168 132 -224t223 -78l165 -41q208 -53 303 -137.5t95 -222.5q0 -170 -131.5 -282.5t-343.5 -116.5l-51 -120q94 0 150 -41.5t56 -114.5t-60.5 -119.5t-147.5 -46.5t-130 17v43q47 -17 120 -17
t122.5 36z" />
    <glyph glyph-name="scedilla" unicode="&#x15f;" horiz-adv-x="905" 
d="M533.5 -383q49.5 36 49.5 89t-42.5 82.5t-121.5 29.5h-50v33l60 134q-158 8 -261.5 99.5t-111.5 219.5h50q10 -115 108.5 -194.5t243.5 -79.5q144 0 242.5 69t98.5 177q0 135 -97.5 177.5t-169.5 59.5l-169 39q-135 32 -203 92t-68 174t105.5 194t261.5 80t257.5 -88
t115.5 -240h-48q-23 198 -140.5 240t-185.5 42q-134 0 -225.5 -67t-91.5 -170q0 -124 89 -160.5t150 -50.5l167 -40q237 -59 269.5 -141.5t32.5 -142.5q0 -123 -105 -204.5t-269 -85.5l-52 -124q94 0 150 -41.5t56 -114.5t-60.5 -119.5t-147.5 -46.5t-130 17v43
q47 -17 120 -17t122.5 36z" />
    <glyph glyph-name="Scaron" unicode="&#x160;" horiz-adv-x="1114" 
d="M264 1841h59l229 -250h2l229 250h59l-266 -287h-46zM1010 377q0 121 -85 193.5t-277 120.5l-167 42q-201 50 -295 133.5t-94 215.5q0 164 135 272.5t331 108.5t332 -104.5t142 -256.5h-50q-6 136 -129 225.5t-297 89.5t-294 -95.5t-120 -239.5q0 -168 132 -224t223 -78
l165 -41q208 -53 303 -137.5t95 -222.5q0 -175 -136.5 -287t-355 -112t-363.5 113t-153 289h50q8 -157 140 -256.5t328 -99.5q195 0 317.5 99.5t122.5 251.5z" />
    <glyph glyph-name="scaron" unicode="&#x161;" horiz-adv-x="905" 
d="M458 1046q-134 0 -225.5 -67t-91.5 -170q0 -124 89 -160.5t150 -50.5l167 -40q237 -59 269.5 -141.5t32.5 -142.5q0 -127 -110 -208.5t-280 -81.5t-282.5 93t-120.5 227h50q10 -115 108.5 -194.5t243.5 -79.5q144 0 242.5 69t98.5 177q0 135 -97.5 177.5t-169.5 59.5
l-169 39q-135 32 -203 92t-68 174t105.5 194t261.5 80t257.5 -88t115.5 -240h-48q-23 198 -140.5 240t-185.5 42zM432 1254l-265 303h56l230 -264h2l230 264h56l-265 -303h-44z" />
    <glyph glyph-name="Tcedilla" unicode="&#x162;" horiz-adv-x="1117" 
d="M633.5 -383q49.5 36 49.5 89t-42.5 82.5t-121.5 29.5h-50v33l66 149h-1v1396h-521v47h1091v-47h-521v-1396h-1l-59 -140q94 0 150 -41.5t56 -114.5t-60.5 -119.5t-147.5 -46.5t-130 17v43q47 -17 120 -17t122.5 36z" />
    <glyph glyph-name="tcedilla" unicode="&#x163;" horiz-adv-x="527" 
d="M466 -181.5q56 -41.5 56 -114.5t-60.5 -119.5t-147.5 -46.5t-130 17v43q47 -17 102 -17q91 0 140.5 36t49.5 89t-42.5 82.5t-121.5 29.5h-50v33l68 153q-78 13 -114 67.5t-36 162.5v797h-160v45h160v288h49v-288h228v-45h-228v-796q0 -103 38.5 -146.5t124.5 -43.5h13
l57 1h13v-46h-13h-36q-37 -1 -51 -1l-59 -139q94 0 150 -41.5z" />
    <glyph glyph-name="Tcaron" unicode="&#x164;" horiz-adv-x="1117" 
d="M534 0v1396h-521v47h1091v-47h-521v-1396h-49zM270 1841h59l229 -250h2l229 250h59l-266 -287h-46z" />
    <glyph glyph-name="tcaron" unicode="&#x165;" horiz-adv-x="637" 
d="M389 -1q-109 0 -159 54.5t-50 180.5v797h-160v45h160v288h49v-288h228v-45h-228v-796q0 -103 38.5 -146.5t124.5 -43.5h13l57 1h13v-46h-13h-14zM370 1235v355h47l-11 -355h-36z" />
    <glyph glyph-name="Tbar" unicode="&#x166;" horiz-adv-x="1120" 
d="M583 1396v-617h302v-45h-302v-734h-49v734h-299v45h299v617h-521v47h1091v-47h-521z" />
    <glyph glyph-name="tbar" unicode="&#x167;" horiz-adv-x="527" 
d="M389 -1q-109 0 -159 54.5t-50 180.5v394h-160v45h160v358h-160v45h160v288h49v-288h228v-45h-228v-358h228v-45h-228v-393q0 -103 38.5 -146.5t124.5 -43.5h13l57 1h13v-46h-13h-14z" />
    <glyph glyph-name="Utilde" unicode="&#x168;" horiz-adv-x="1305" 
d="M790 1596q97 0 97 158h45q0 -142 -53 -172t-87 -30t-60 12.5t-48 31t-41 40.5t-51.5 53t-75.5 31q-97 0 -97 -158h-45q0 143 53 172t87 29t60 -12.5t48 -31t41 -40t51.5 -52.5t75.5 -31zM174 500q0 -218 129.5 -345.5t350 -127.5t350 127.5t129.5 345.5v943h50v-944
q0 -237 -143 -378t-386.5 -141t-386.5 141t-143 378v944h50v-943z" />
    <glyph glyph-name="utilde" unicode="&#x169;" horiz-adv-x="1063" 
d="M664 1297q97 0 97 158h45q0 -142 -53 -172t-87 -30t-60 12.5t-48 31t-41 40.5t-51.5 53t-75.5 31q-97 0 -97 -158h-45q0 143 53 172t87 29t60 -12.5t48 -31t41 -40t51.5 -52.5t75.5 -31zM944 0h-46v251h-2q-32 -113 -142.5 -190t-266.5 -77t-265 106t-109 285v701h49
v-694q0 -165 96.5 -258t256.5 -93t269.5 109.5t109.5 286.5v649h50v-1076z" />
    <glyph glyph-name="Umacron" unicode="&#x16a;" horiz-adv-x="1305" 
d="M935 1616h-564v43h564v-43zM174 500q0 -218 129.5 -345.5t350 -127.5t350 127.5t129.5 345.5v943h50v-944q0 -237 -143 -378t-386.5 -141t-386.5 141t-143 378v944h50v-943z" />
    <glyph glyph-name="umacron" unicode="&#x16b;" horiz-adv-x="1063" 
d="M813 1304h-584v43h584v-43zM944 0h-46v251h-2q-32 -113 -142.5 -190t-266.5 -77t-265 106t-109 285v701h49v-694q0 -165 96.5 -258t256.5 -93t269.5 109.5t109.5 286.5v649h50v-1076z" />
    <glyph glyph-name="Ubreve" unicode="&#x16c;" horiz-adv-x="1305" 
d="M441 1771q0 -76 59 -125.5t153 -49.5t153 49.5t59 125.5h45q0 -100 -72 -158.5t-185 -58.5t-185 58.5t-72 158.5h45zM174 500q0 -218 129.5 -345.5t350 -127.5t350 127.5t129.5 345.5v943h50v-944q0 -237 -143 -378t-386.5 -141t-386.5 141t-143 378v944h50v-943z" />
    <glyph glyph-name="ubreve" unicode="&#x16d;" horiz-adv-x="1063" 
d="M315 1489q0 -89 58 -141.5t181.5 -52.5t155 75t31.5 119h45q0 -112 -72 -174.5t-186 -62.5q-179 0 -218.5 90t-39.5 147h45zM944 0h-46v251h-2q-32 -113 -142.5 -190t-266.5 -77t-265 106t-109 285v701h49v-694q0 -165 96.5 -258t256.5 -93t269.5 109.5t109.5 286.5v649
h50v-1076z" />
    <glyph glyph-name="Uring" unicode="&#x16e;" horiz-adv-x="1305" 
d="M174 500q0 -218 129.5 -345.5t350 -127.5t350 127.5t129.5 345.5v943h50v-944q0 -237 -143 -378t-386.5 -141t-386.5 141t-143 378v944h50v-943zM742.5 1581.5q36.5 36.5 36.5 76.5t-9.5 63t-26.5 40.5t-40 27.5t-63 10t-77 -37t-37 -77t9.5 -63t37.5 -50t80.5 -27
t89 36.5zM653 1506q-34 0 -64 13t-52.5 35.5t-35.5 53t-13 64.5t13 64t35.5 52.5t52.5 35.5t64 13t63.5 -13t52 -35.5t35.5 -52.5t13 -64t-13 -64.5t-35.5 -53t-52 -35.5t-63.5 -13z" />
    <glyph glyph-name="uring" unicode="&#x16f;" horiz-adv-x="1063" 
d="M617.5 1323.5q36.5 36.5 36.5 76.5t-9.5 63t-26.5 40.5t-40 27.5t-63 10t-77 -37t-37 -77t9.5 -63t37.5 -50t80.5 -27t89 36.5zM528 1248q-34 0 -64 13t-52.5 35.5t-35.5 53t-13 64.5t13 64t35.5 52.5t52.5 35.5t64 13t63.5 -13t52 -35.5t35.5 -52.5t13 -64t-13 -64.5
t-35.5 -53t-52 -35.5t-63.5 -13zM944 0h-46v251h-2q-32 -113 -142.5 -190t-266.5 -77t-265 106t-109 285v701h49v-694q0 -165 96.5 -258t256.5 -93t269.5 109.5t109.5 286.5v649h50v-1076z" />
    <glyph glyph-name="Uhungarumlaut" unicode="&#x170;" horiz-adv-x="1305" 
d="M507 1554l293 287h66l-303 -287h-56zM761 1554l294 287h65l-303 -287h-56zM174 500q0 -218 129.5 -345.5t350 -127.5t350 127.5t129.5 345.5v943h50v-944q0 -237 -143 -378t-386.5 -141t-386.5 141t-143 378v944h50v-943z" />
    <glyph glyph-name="uhungarumlaut" unicode="&#x171;" horiz-adv-x="1063" 
d="M944 0h-46v251h-2q-32 -113 -142.5 -190t-266.5 -77t-265 106t-109 285v701h49v-694q0 -165 96.5 -258t256.5 -93t269.5 109.5t109.5 286.5v649h50v-1076zM624 1556h62l-245 -303h-52zM847 1556h62l-245 -303h-52z" />
    <glyph glyph-name="Uogonek" unicode="&#x172;" horiz-adv-x="1307" 
d="M839 -406q-130 0 -159.5 70t-29.5 122q0 108 137 207v4q-60 -17 -158 -17q-97 0 -195 36.5t-204 140t-106 342.5v944h50v-943q0 -213 131.5 -343t347.5 -130t348 130.5t132 342.5v943h50v-944q0 -172 -72.5 -286.5t-242.5 -213.5q-168 -102 -168 -220q0 -61 41 -100
t108 -39h16v-45h-1l-7 -1h-18z" />
    <glyph glyph-name="uogonek" unicode="&#x173;" horiz-adv-x="1063" 
d="M731 -225q0 133 166 240v230h-4q-62 -187 -189 -224t-206 -37q-167 0 -276 107t-109 280v705h49v-691q0 -159 96 -256.5t259 -97.5t270 113t107 288v644h50v-1079q-164 -102 -164 -201q0 -78 41 -117t107 -39h16v-45q-2 -1 -4 -1h-21q-129 0 -158.5 70.5t-29.5 110.5z
" />
    <glyph glyph-name="Wcircumflex" unicode="&#x174;" horiz-adv-x="1777" 
d="M488 0h-41l-406 1443h52l374 -1344h4l396 1344h43l395 -1344h5l374 1344h51l-406 -1443h-40l-398 1338h-5zM911 1841l266 -287h-59l-229 249h-2l-229 -249h-59l266 287h46z" />
    <glyph glyph-name="wcircumflex" unicode="&#x175;" horiz-adv-x="1406" 
d="M1087 0h-66l-317 1016h-2l-317 -1016h-66l-317 1076h55l294 -1021h2l317 1021h66l317 -1021h2l294 1021h55zM990 1254h-56l-230 264h-2l-230 -264h-56l265 303h44z" />
    <glyph glyph-name="Ycircumflex" unicode="&#x176;" horiz-adv-x="1148" 
d="M597 1841l266 -287h-59l-229 249h-2l-229 -249h-59l266 287h46zM550 0v631l-529 812h60l492 -758h4l491 758h59l-527 -812v-631h-50z" />
    <glyph glyph-name="ycircumflex" unicode="&#x177;" horiz-adv-x="888" 
d="M731 1253h-56l-230 264h-2l-230 -264h-56l265 303h44zM188 -296q67 0 112.5 47t88.5 158l28 72l-415 1095h54l387 -1029h2l388 1029h54l-417 -1101q-74 -195 -130.5 -256.5t-161.5 -61.5q-25 0 -47 9v47q25 -9 57 -9z" />
    <glyph glyph-name="Ydieresis" unicode="&#x178;" horiz-adv-x="1148" 
d="M714 1556q-22 0 -38.5 16t-16.5 38t16.5 37.5t38.5 15.5t38 -15.5t16 -37.5t-16 -38t-38 -16zM434 1556q-22 0 -38 16t-16 38t16 37.5t38 15.5t38.5 -15.5t16.5 -37.5t-16.5 -38t-38.5 -16zM550 0v631l-529 812h60l492 -758h4l491 758h59l-527 -812v-631h-50z" />
    <glyph glyph-name="Zacute" unicode="&#x179;" horiz-adv-x="1147" 
d="M1018 1396h-925v47h989v-43l-953 -1349v-4h954v-47h-1019v42l954 1350v4zM535 1554l293 287h66l-303 -287h-56z" />
    <glyph glyph-name="zacute" unicode="&#x17a;" horiz-adv-x="910" 
d="M792 1031h-734v45h794v-47l-736 -982v-2h736v-45h-794v47l734 982v2zM407 1253l236 303h63l-246 -303h-53z" />
    <glyph glyph-name="Zdotaccent" unicode="&#x17b;" horiz-adv-x="1147" 
d="M1018 1396h-925v47h989v-43l-953 -1349v-4h954v-47h-1019v42l954 1350v4zM573 1556q-26 0 -45 19t-19 45t19 44.5t45 18.5t45 -18.5t19 -44.5t-19 -45t-45 -19z" />
    <glyph glyph-name="zdotaccent" unicode="&#x17c;" horiz-adv-x="910" 
d="M792 1031h-734v45h794v-47l-736 -982v-2h736v-45h-794v47l734 982v2zM455 1253q-26 0 -45 19t-19 45t19 45t45 19t45.5 -19t19.5 -45t-19.5 -45t-45.5 -19z" />
    <glyph glyph-name="Zcaron" unicode="&#x17d;" horiz-adv-x="1147" 
d="M284 1841h59l229 -250h2l229 250h59l-266 -287h-46zM1018 1396h-925v47h989v-43l-953 -1349v-4h954v-47h-1019v42l954 1350v4z" />
    <glyph glyph-name="zcaron" unicode="&#x17e;" horiz-adv-x="910" 
d="M792 1031h-734v45h794v-47l-736 -982v-2h736v-45h-794v47l734 982v2zM433 1253l-265 303h56l230 -264h2l230 264h56l-265 -303h-44z" />
    <glyph glyph-name="florin" unicode="&#x192;" horiz-adv-x="1179" 
d="M966 1417q-115 0 -185.5 -71.5t-97.5 -228.5l-53 -308h431v-46h-439l-77 -441q-31 -176 -112.5 -258.5t-226.5 -82.5q-101 0 -161 35v48q60 -37 141 -37q143 0 212 72.5t97 229.5l76 434h-415v46h423l54 313q60 341 322 341q127 0 178 -33v-49q-52 36 -167 36z" />
    <glyph glyph-name="Ohorn" unicode="&#x1a0;" horiz-adv-x="1436" 
d="M1134 1291q201 -201 201 -557t-171 -555t-465 -199t-465 198.5t-171 542t171.5 543t467.5 199.5q124 0 202 -28t118 -47t99.5 -47t117.5 -28q111 0 111 138v136h48v-140q0 -85 -40 -131.5t-105 -46.5t-115 26zM272 216.5q159 -189.5 427 -189.5t427 189.5t159 506
t-159.5 505t-427.5 188.5t-426.5 -188t-158.5 -505t159 -506.5z" />
    <glyph glyph-name="ohorn" unicode="&#x1a1;" horiz-adv-x="1157" 
d="M925 887q88 -138 88 -370t-128.5 -382.5t-345.5 -150.5t-346 150.5t-129 405t129.5 403.5t349.5 149q152 0 250.5 -70.5t128.5 -84.5t76 -14t73 33t27 105v135h49v-138q0 -181 -153 -181q-31 0 -65 13zM848 907q-116 139 -310 139q-193 0 -308.5 -138.5t-115.5 -369
t115 -369t309 -138.5q193 0 309.5 139t116.5 368.5t-116 368.5z" />
    <glyph glyph-name="Uhorn" unicode="&#x1af;" horiz-adv-x="1456" 
d="M1194 1312h58q78 0 112 36.5t34 119.5v119h49v-128q0 -192 -192 -192h-35q-34 0 -37 3v-771q0 -238 -144 -378.5t-386 -140.5t-385.5 140t-143.5 379v944h50v-943q0 -213 131.5 -343t347.5 -130t348 130t132 343v943h50v-128q3 -3 11 -3z" />
    <glyph glyph-name="uhorn" unicode="&#x1b0;" horiz-adv-x="1198" 
d="M1004 876h-28q-29 0 -32 3v-879h-47v245h-4q-62 -187 -189 -224t-206 -37q-167 0 -276 107t-109 280v705h49v-691q0 -159 96 -256.5t259 -97.5t270 113t107 288v644h50v-152q0 -2 5 -2h52q78 0 112 36t34 119v119h49v-128q0 -192 -192 -192z" />
    <glyph glyph-name="u01C4" unicode="&#x1c4;" horiz-adv-x="2459" 
d="M1597 1841h59l229 -250h2l229 250h59l-266 -287h-46zM2331 1396h-925v47h989v-43l-953 -1349v-4h954v-47h-1019v42l954 1350v4zM175 47h384q309 0 475 175.5t166 499t-166 499t-475 175.5h-384v-1349zM560 1443q330 0 510 -187.5t180 -533.5q0 -345 -180 -533.5
t-510 -188.5h-436v1443h436z" />
    <glyph glyph-name="u01C5" unicode="&#x1c5;" horiz-adv-x="2223" 
d="M2105 1031h-734v45h794v-47l-736 -982v-2h736v-45h-794v47l734 982v2zM1746 1253l-265 303h56l230 -264h2l230 264h56l-265 -303h-44zM175 47h384q309 0 475 175.5t166 499t-166 499t-475 175.5h-384v-1349zM560 1443q330 0 510 -187.5t180 -533.5q0 -345 -180 -533.5
t-510 -188.5h-436v1443h436z" />
    <glyph glyph-name="u01C6" unicode="&#x1c6;" horiz-adv-x="2036" 
d="M1918 1031h-734v45h794v-47l-736 -982v-2h736v-45h-794v47l734 982v2zM1559 1253l-265 303h56l230 -264h2l230 264h56l-265 -303h-44zM230 172.5q115 -141.5 298 -141.5q182 0 300 141t118 366t-118.5 366.5t-300.5 141.5t-297 -140.5t-115 -366t115 -367zM193 937.5
q128 154.5 331 154.5q155 0 271 -95t149 -236h2v745h50v-1506h-46v322h-2q-35 -146 -150.5 -242t-283.5 -96q-90 0 -174.5 40.5t-179.5 154t-95 359t128 400z" />
    <glyph glyph-name="u01C7" unicode="&#x1c7;" horiz-adv-x="1934" 
d="M949 0h-825v1443h50v-1396h775v-47zM1760 384v1059h50v-1062q0 -185 -104.5 -293.5t-275.5 -108.5t-276.5 94t-111.5 242h49q6 -127 97.5 -208t235.5 -81q153 0 244.5 95t91.5 263z" />
    <glyph glyph-name="u01C8" unicode="&#x1c8;" horiz-adv-x="1310" 
d="M949 0h-825v1443h50v-1396h775v-47zM1156 1366q-20 0 -34.5 14t-14.5 34t14.5 34t34.5 14t34 -14t14 -34t-14 -34t-34 -14zM1180 -80q0 -206 -99.5 -234t-163.5 -28h-29v45h27q112 0 164 50t52 163v1160h49v-1156z" />
    <glyph glyph-name="u01C9" unicode="&#x1c9;" horiz-adv-x="618" 
d="M130 1506h49v-1506h-49v1506zM464 1366q-20 0 -34.5 14t-14.5 34t14.5 34t34.5 14t34 -14t14 -34t-14 -34t-34 -14zM488 -80q0 -206 -99.5 -234t-163.5 -28h-29v45h27q112 0 164 50t52 163v1160h49v-1156z" />
    <glyph glyph-name="u01CA" unicode="&#x1ca;" horiz-adv-x="2248" 
d="M124 0v1443h55l958 -1348h4v1348h50v-1443h-46l-967 1359h-4v-1359h-50zM2074 384v1059h50v-1062q0 -185 -104.5 -293.5t-275.5 -108.5t-276.5 94t-111.5 242h49q6 -127 97.5 -208t235.5 -81q153 0 244.5 95t91.5 263z" />
    <glyph glyph-name="u01CB" unicode="&#x1cb;" horiz-adv-x="1624" 
d="M124 0v1443h55l958 -1348h4v1348h50v-1443h-46l-967 1359h-4v-1359h-50zM1470 1366q-20 0 -34.5 14t-14.5 34t14.5 34t34.5 14t34 -14t14 -34t-14 -34t-34 -14zM1494 -80q0 -206 -99.5 -234t-163.5 -28h-29v45h27q112 0 164 50t52 163v1160h49v-1156z" />
    <glyph glyph-name="u01CC" unicode="&#x1cc;" horiz-adv-x="1372" 
d="M120 1076h46v-254h2q34 120 138.5 195t243.5 75q178 0 289 -107.5t111 -288.5v-696h-49v694q0 161 -99.5 256.5t-261.5 95.5t-266.5 -112t-104.5 -288v-646h-49v1076zM1218 1366q-20 0 -34.5 14t-14.5 34t14.5 34t34.5 14t34 -14t14 -34t-14 -34t-34 -14zM1242 -80
q0 -206 -99.5 -234t-163.5 -28h-29v45h27q112 0 164 50t52 163v1160h49v-1156z" />
    <glyph glyph-name="Acaron" unicode="&#x1cd;" horiz-adv-x="1201" 
d="M311 1841h59l229 -250h2l229 250h59l-266 -287h-46zM283 547h635l-315 827h-5zM936 501h-671l-190 -501h-55l555 1443h51l555 -1443h-56z" />
    <glyph glyph-name="acaron" unicode="&#x1ce;" horiz-adv-x="1021" 
d="M511 1254l-265 303h56l230 -264h2l230 264h56l-265 -303h-44zM190 68.5q-100 84.5 -100 219.5q0 273 380 304l389 30v97q0 234 -124.5 280.5t-200.5 46.5q-152 0 -244.5 -73.5t-113.5 -209.5h-47q18 153 125.5 241t279.5 88t273 -99.5t101 -270.5v-722h-49v245h-1
q-40 -117 -154 -189t-264 -72t-250 84.5zM859 396v182l-381 -29q-338 -26 -338 -263q0 -111 87.5 -183.5t230.5 -72.5q160 0 280.5 107.5t120.5 258.5z" />
    <glyph glyph-name="Icaron" unicode="&#x1cf;" horiz-adv-x="298" 
d="M-140 1841h59l229 -250h2l229 250h59l-266 -287h-46zM124 0v1443h50v-1443h-50z" />
    <glyph glyph-name="icaron" unicode="&#x1d0;" horiz-adv-x="309" 
d="M130 1076h49v-1076h-49v1076zM133 1254l-265 303h56l230 -264h2l230 264h56l-265 -303h-44z" />
    <glyph glyph-name="Ocaron" unicode="&#x1d1;" horiz-adv-x="1398" 
d="M272.5 215.5q159.5 -188.5 426.5 -188.5t426.5 188.5t159.5 506.5t-159.5 506t-427.5 188q-269 0 -427 -187.5t-158 -506t159.5 -507zM1163 1262q172 -201 172 -541t-172 -540.5t-464.5 -200.5t-464 200.5t-171.5 541.5t172 541t464 200t464 -201zM410 1841h59l229 -250
h2l229 250h59l-266 -287h-46z" />
    <glyph glyph-name="ocaron" unicode="&#x1d2;" horiz-adv-x="1078" 
d="M539 31q95 0 173.5 35.5t134.5 101.5t86.5 159.5t30.5 210.5t-30.5 211t-86.5 160t-134.5 101.5t-173.5 35.5t-173.5 -35.5t-134 -101.5t-86 -160t-30.5 -211t30.5 -211t86 -159.5t134 -101t173.5 -35.5zM65 538q0 253 131 403.5t343 150.5t343 -150t131 -404
q0 -253 -130.5 -403.5t-344.5 -150.5t-343.5 150.5t-129.5 403.5zM517 1253l-265 303h56l230 -264h2l230 264h56l-265 -303h-44z" />
    <glyph glyph-name="Ucaron" unicode="&#x1d3;" horiz-adv-x="1305" 
d="M174 500q0 -218 129.5 -345.5t350 -127.5t350 127.5t129.5 345.5v943h50v-944q0 -237 -143 -378t-386.5 -141t-386.5 141t-143 378v944h50v-943zM364 1841h59l229 -250h2l229 250h59l-266 -287h-46z" />
    <glyph glyph-name="ucaron" unicode="&#x1d4;" horiz-adv-x="1063" 
d="M944 0h-46v251h-2q-32 -113 -142.5 -190t-266.5 -77t-265 106t-109 285v701h49v-694q0 -165 96.5 -258t256.5 -93t269.5 109.5t109.5 286.5v649h50v-1076zM506 1253l-265 303h56l230 -264h2l230 264h56l-265 -303h-44z" />
    <glyph glyph-name="Udieresismacron" unicode="&#x1d5;" horiz-adv-x="1305" 
d="M792 1662q22 0 37.5 -15.5t15.5 -37.5t-15.5 -37t-37.5 -15t-38 15t-16 37t16 37.5t38 15.5zM935 1888v-42h-564v42h564zM514 1662q22 0 38 -15.5t16 -37.5t-16 -37t-38 -15t-37.5 15t-15.5 37t15.5 37.5t37.5 15.5zM174 500q0 -218 129.5 -345.5t350 -127.5t350 127.5
t129.5 345.5v943h50v-944q0 -237 -143 -378t-386.5 -141t-386.5 141t-143 378v944h50v-943z" />
    <glyph glyph-name="udieresismacron" unicode="&#x1d6;" horiz-adv-x="1063" 
d="M813 1584h-584v43h584v-43zM668 1253q-22 0 -38.5 15.5t-16.5 37.5t16.5 38t38.5 16t37.5 -16t15.5 -38t-15.5 -37.5t-37.5 -15.5zM388 1253q-22 0 -37.5 15.5t-15.5 37.5t15.5 38t37.5 16t38.5 -16t16.5 -38t-16.5 -37.5t-38.5 -15.5zM944 0h-46v251h-2
q-32 -113 -142.5 -190t-266.5 -77t-265 106t-109 285v701h49v-694q0 -165 96.5 -258t256.5 -93t269.5 109.5t109.5 286.5v649h50v-1076z" />
    <glyph glyph-name="Udieresisacute" unicode="&#x1d7;" horiz-adv-x="1305" 
d="M174 500q0 -218 129.5 -345.5t350 -127.5t350 127.5t129.5 345.5v943h50v-944q0 -237 -143 -378t-386.5 -141t-386.5 141t-143 378v944h50v-943zM792 1557q-22 0 -38 15t-16 37t16 37.5t38 15.5t37.5 -15.5t15.5 -37.5t-15.5 -37t-37.5 -15zM514 1557q-22 0 -37.5 15
t-15.5 37t15.5 37.5t37.5 15.5t38 -15.5t16 -37.5t-16 -37t-38 -15zM823 1957h63l-221 -202h-56z" />
    <glyph glyph-name="udieresisacute" unicode="&#x1d8;" horiz-adv-x="1063" 
d="M944 0h-46v251h-2q-32 -113 -142.5 -190t-266.5 -77t-265 106t-109 285v701h49v-694q0 -165 96.5 -258t256.5 -93t269.5 109.5t109.5 286.5v649h50v-1076zM668 1253q-22 0 -38.5 16t-16.5 38t16.5 37.5t38.5 15.5t38 -15.5t16 -37.5t-16 -38t-38 -16zM388 1253
q-22 0 -38 16t-16 38t16 37.5t38 15.5t38.5 -15.5t16.5 -37.5t-16.5 -38t-38.5 -16zM729 1802h66l-252 -291h-54z" />
    <glyph glyph-name="Udieresiscaron" unicode="&#x1d9;" horiz-adv-x="1305" 
d="M174 500q0 -218 129.5 -345.5t350 -127.5t350 127.5t129.5 345.5v943h50v-944q0 -237 -143 -378t-386.5 -141t-386.5 141t-143 378v944h50v-943zM792 1662q22 0 37.5 -15.5t15.5 -37.5t-15.5 -37t-37.5 -15t-38 15t-16 37t16 37.5t38 15.5zM514 1662q22 0 38 -15.5
t16 -37.5t-16 -37t-38 -15t-37.5 15t-15.5 37t15.5 37.5t37.5 15.5zM365 1957h67l220 -167h2l220 167h67l-265 -202h-46z" />
    <glyph glyph-name="udieresiscaron" unicode="&#x1da;" horiz-adv-x="1063" 
d="M944 0h-46v251h-2q-32 -113 -142.5 -190t-266.5 -77t-265 106t-109 285v701h49v-694q0 -165 96.5 -258t256.5 -93t269.5 109.5t109.5 286.5v649h50v-1076zM504 1511l-263 291h55l231 -253h2l231 253h55l-263 -291h-48zM668 1253q-22 0 -38.5 16t-16.5 38t16.5 37.5
t38.5 15.5t38 -15.5t16 -37.5t-16 -38t-38 -16zM388 1253q-22 0 -38 16t-16 38t16 37.5t38 15.5t38.5 -15.5t16.5 -37.5t-16.5 -38t-38.5 -16z" />
    <glyph glyph-name="Udieresisgrave" unicode="&#x1db;" horiz-adv-x="1305" 
d="M174 500q0 -218 129.5 -345.5t350 -127.5t350 127.5t129.5 345.5v943h50v-944q0 -237 -143 -378t-386.5 -141t-386.5 141t-143 378v944h50v-943zM792 1557q-22 0 -38 15t-16 37t16 37.5t38 15.5t37.5 -15.5t15.5 -37.5t-15.5 -37t-37.5 -15zM514 1557q-22 0 -37.5 15
t-15.5 37t15.5 37.5t37.5 15.5t38 -15.5t16 -37.5t-16 -37t-38 -15zM641 1755l-221 202h63l214 -202h-56z" />
    <glyph glyph-name="udieresisgrave" unicode="&#x1dc;" horiz-adv-x="1063" 
d="M944 0h-46v251h-2q-32 -113 -142.5 -190t-266.5 -77t-265 106t-109 285v701h49v-694q0 -165 96.5 -258t256.5 -93t269.5 109.5t109.5 286.5v649h50v-1076zM668 1253q-22 0 -38.5 16t-16.5 38t16.5 37.5t38.5 15.5t38 -15.5t16 -37.5t-16 -38t-38 -16zM388 1253
q-22 0 -38 16t-16 38t16 37.5t38 15.5t38.5 -15.5t16.5 -37.5t-16.5 -38t-38.5 -16zM513 1511l-252 291h66l240 -291h-54z" />
    <glyph glyph-name="Adieresismacron" unicode="&#x1de;" horiz-adv-x="1201" 
d="M739 1662q22 0 37.5 -15.5t15.5 -37.5t-15.5 -37t-37.5 -15t-38 15t-16 37t16 37.5t38 15.5zM882 1888v-42h-564v42h564zM461 1662q22 0 38 -15.5t16 -37.5t-16 -37t-38 -15t-37.5 15t-15.5 37t15.5 37.5t37.5 15.5zM283 547h635l-315 827h-5zM936 501h-671l-190 -501
h-55l555 1443h51l555 -1443h-56z" />
    <glyph glyph-name="adieresismacron" unicode="&#x1df;" horiz-adv-x="1021" 
d="M818 1585h-584v43h584v-43zM672 1254q-22 0 -38 16t-16 38t16 37.5t38 15.5t38 -15.5t16 -37.5t-16 -38t-38 -16zM394 1254q-22 0 -38 16t-16 38t16 37.5t38 15.5t38 -15.5t16 -37.5t-16 -38t-38 -16zM190 68.5q-100 84.5 -100 219.5q0 273 380 304l389 30v97
q0 234 -124.5 280.5t-200.5 46.5q-152 0 -244.5 -73.5t-113.5 -209.5h-47q18 153 125.5 241t279.5 88t273 -99.5t101 -270.5v-722h-49v245h-1q-40 -117 -154 -189t-264 -72t-250 84.5zM859 396v182l-381 -29q-338 -26 -338 -263q0 -111 87.5 -183.5t230.5 -72.5
q160 0 280.5 107.5t120.5 258.5z" />
    <glyph glyph-name="Adotmacron" unicode="&#x1e0;" horiz-adv-x="1201" 
d="M882 1846h-564v42h564v-42zM600 1555q-26 0 -45 18.5t-19 44.5t19 44.5t45 18.5t45 -18.5t19 -44.5t-19 -44.5t-45 -18.5zM283 547h635l-315 827h-5zM936 501h-671l-190 -501h-55l555 1443h51l555 -1443h-56z" />
    <glyph glyph-name="adotmacron" unicode="&#x1e1;" horiz-adv-x="1021" 
d="M818 1585h-584v43h584v-43zM533 1254q-26 0 -45 19t-19 45t19 44.5t45 18.5t45 -18.5t19 -44.5t-19 -45t-45 -19zM190 68.5q-100 84.5 -100 219.5q0 273 380 304l389 30v97q0 234 -124.5 280.5t-200.5 46.5q-152 0 -244.5 -73.5t-113.5 -209.5h-47q18 153 125.5 241
t279.5 88t273 -99.5t101 -270.5v-722h-49v245h-1q-40 -117 -154 -189t-264 -72t-250 84.5zM859 396v182l-381 -29q-338 -26 -338 -263q0 -111 87.5 -183.5t230.5 -72.5q160 0 280.5 107.5t120.5 258.5z" />
    <glyph glyph-name="AEmacron" unicode="&#x1e2;" horiz-adv-x="1889" 
d="M1593 1616h-564v43h564v-43zM1010 411h-689l-208 -411h-55l733 1443h985v-47h-718v-633h681v-46h-681v-670h718v-47h-766v411zM1010 458v939h-191l-476 -939h667z" />
    <glyph glyph-name="aemacron" unicode="&#x1e3;" horiz-adv-x="1848" 
d="M1219 1305h-584v43h584v-43zM859 401v150l-384 -26q-335 -22 -335 -243q0 -111 87.5 -181.5t232.5 -70.5q161 0 280 108t119 263zM1733 588q0 207 -110.5 332.5t-292.5 125.5t-297.5 -127t-123.5 -331h824zM90 280q0 264 375 289l394 27v141q0 145 -87.5 227t-242.5 82
q-226 0 -287 -108.5t-70 -174.5h-48q16 151 127.5 240t273.5 89q163 0 265.5 -82.5t108.5 -225.5h5q43 136 155 222t273 86q207 0 329 -139t122 -370v-40h-875v-7q0 -230 117 -368t311 -138q153 0 253 75t125 194h51q-29 -141 -144 -228t-281 -87t-279.5 83t-163.5 244h-4
q-38 -150 -159 -238.5t-282 -88.5t-261.5 82t-100.5 214z" />
    <glyph glyph-name="Gcaron" unicode="&#x1e6;" horiz-adv-x="1332" 
d="M1259 564q0 -272 -154 -428t-425 -156t-444 209t-173 541t171.5 532.5t450.5 200.5q212 0 368 -117.5t196 -309.5h-49q-42 172 -182.5 276t-332.5 104q-258 0 -415 -188t-157 -500q0 -311 158.5 -506t407.5 -195q250 0 390.5 142.5t140.5 392.5v100h-531v46h580v-144z
M396 1841h59l229 -250h2l229 250h59l-266 -287h-46z" />
    <glyph glyph-name="gcaron" unicode="&#x1e7;" horiz-adv-x="1106" 
d="M265.5 -290.5q-110.5 63.5 -134.5 169.5h53q32 -129 159.5 -158t207.5 -29q168 0 277 82t109 224v318h-2q-33 -141 -146.5 -236t-269.5 -95q-201 0 -327.5 153t-126.5 400t126.5 400.5t327.5 153.5q156 0 270 -95.5t149 -241.5h2v321h46v-1076q0 -165 -122.5 -259.5
t-304.5 -94.5q-183 0 -293.5 63.5zM937 538q0 225 -116.5 366.5t-298.5 141.5t-294.5 -141t-112.5 -367.5t113 -366.5t294 -140q183 0 299 141t116 366zM537 1254l-265 303h56l230 -264h2l230 264h56l-265 -303h-44z" />
    <glyph glyph-name="Kcaron" unicode="&#x1e8;" horiz-adv-x="1107" 
d="M236 1841h59l229 -250h2l229 250h59l-266 -287h-46zM124 0v1443h50v-836h4l784 836h64l-594 -635l664 -808h-64l-636 773l-222 -237v-536h-50z" />
    <glyph glyph-name="kcaron" unicode="&#x1e9;" horiz-adv-x="913" 
d="M-134 1904h59l229 -250h2l229 250h59l-266 -287h-46zM179 0h-49v1506h49v-1003h2l645 573h70l-517 -463l519 -613h-65l-493 583l-161 -142v-441z" />
    <glyph glyph-name="Oogonek" unicode="&#x1ea;" horiz-adv-x="1397" 
d="M272 216.5q159 -189.5 427 -189.5t427 189.5t159 506t-159.5 505t-427.5 188.5t-426.5 -188t-158.5 -505t159 -506.5zM918 -406h-17q-129 0 -158.5 70t-29.5 110q0 123 131 219v4q-55 -17 -174 -17t-236.5 51.5t-244 199t-126.5 491.5t171 542.5t464.5 198.5t465 -199.5
t171.5 -541.5q0 -457 -180 -574.5t-224 -143.5q-169 -104 -169 -225q0 -61 41 -100t108 -39h16v-45q-8 -1 -9 -1z" />
    <glyph glyph-name="oogonek" unicode="&#x1eb;" horiz-adv-x="1078" 
d="M848 907q-116 139 -310 139q-193 0 -308.5 -138.5t-115.5 -369t115 -369t309 -138.5q193 0 309.5 139t116.5 368.5t-116 368.5zM509 -218q0 123 123 211v4q-42 -13 -121 -13q-80 0 -168 39t-150 111t-95.5 174.5t-33.5 229.5t33.5 229.5t95.5 174.5t150 111t250.5 39
t291 -150t128.5 -404q0 -357 -255 -504q-104 -60 -151.5 -120t-47.5 -126t41 -107t107 -41h18v-45l-27 -1q-80 0 -134.5 54.5t-54.5 133.5z" />
    <glyph glyph-name="Oogonekmacron" unicode="&#x1ec;" horiz-adv-x="1397" 
d="M981 1616h-564v43h564v-43zM272 216.5q159 -189.5 427 -189.5t427 189.5t159 506t-159.5 505t-427.5 188.5t-426.5 -188t-158.5 -505t159 -506.5zM918 -406h-17q-129 0 -158.5 70t-29.5 110q0 123 131 219v4q-55 -17 -174 -17t-236.5 51.5t-244 199t-126.5 491.5
t171 542.5t464.5 198.5t465 -199.5t171.5 -541.5q0 -457 -180 -574.5t-224 -143.5q-169 -104 -169 -225q0 -61 41 -100t108 -39h16v-45q-8 -1 -9 -1z" />
    <glyph glyph-name="oogonekmacron" unicode="&#x1ed;" horiz-adv-x="1078" 
d="M848 907q-116 139 -310 139q-193 0 -308.5 -138.5t-115.5 -369t115 -369t309 -138.5q193 0 309.5 139t116.5 368.5t-116 368.5zM509 -218q0 123 123 211v4q-42 -13 -121 -13q-80 0 -168 39t-150 111t-95.5 174.5t-33.5 229.5t33.5 229.5t95.5 174.5t150 111t250.5 39
t291 -150t128.5 -404q0 -357 -255 -504q-104 -60 -151.5 -120t-47.5 -126t41 -107t107 -41h18v-45l-27 -1q-80 0 -134.5 54.5t-54.5 133.5zM824 1304h-584v43h584v-43z" />
    <glyph glyph-name="u01F1" unicode="&#x1f1;" horiz-adv-x="2459" 
d="M175 47h384q309 0 475 175.5t166 499t-166 499t-475 175.5h-384v-1349zM560 1443q330 0 510 -187.5t180 -533.5q0 -345 -180 -533.5t-510 -188.5h-436v1443h436zM2331 1396h-925v47h989v-43l-953 -1349v-4h954v-47h-1019v42l954 1350v4z" />
    <glyph glyph-name="u01F2" unicode="&#x1f2;" horiz-adv-x="2223" 
d="M175 47h384q309 0 475 175.5t166 499t-166 499t-475 175.5h-384v-1349zM560 1443q330 0 510 -187.5t180 -533.5q0 -345 -180 -533.5t-510 -188.5h-436v1443h436zM2105 1031h-734v45h794v-47l-736 -982v-2h736v-45h-794v47l734 982v2z" />
    <glyph glyph-name="u01F3" unicode="&#x1f3;" horiz-adv-x="2036" 
d="M230 172.5q115 -141.5 298 -141.5q182 0 300 141t118 366t-118.5 366.5t-300.5 141.5t-297 -140.5t-115 -366t115 -367zM193 937.5q128 154.5 331 154.5q155 0 271 -95t149 -236h2v745h50v-1506h-46v322h-2q-35 -146 -150.5 -242t-283.5 -96q-90 0 -174.5 40.5
t-179.5 154t-95 359t128 400zM1918 1031h-734v45h794v-47l-736 -982v-2h736v-45h-794v47l734 982v2z" />
    <glyph glyph-name="Gacute" unicode="&#x1f4;" horiz-adv-x="1332" 
d="M1259 564q0 -272 -154 -428t-425 -156t-444 209t-173 541t171.5 532.5t450.5 200.5q212 0 368 -117.5t196 -309.5h-49q-42 172 -182.5 276t-332.5 104q-258 0 -415 -188t-157 -500q0 -311 158.5 -506t407.5 -195q250 0 390.5 142.5t140.5 392.5v100h-531v46h580v-144z
M647 1554l293 287h66l-303 -287h-56z" />
    <glyph glyph-name="gacute" unicode="&#x1f5;" horiz-adv-x="1106" 
d="M265.5 -290.5q-110.5 63.5 -134.5 169.5h53q32 -129 159.5 -158t207.5 -29q168 0 277 82t109 224v318h-2q-33 -141 -146.5 -236t-269.5 -95q-201 0 -327.5 153t-126.5 400t126.5 400.5t327.5 153.5q156 0 270 -95.5t149 -241.5h2v321h46v-1076q0 -165 -122.5 -259.5
t-304.5 -94.5q-183 0 -293.5 63.5zM937 538q0 225 -116.5 366.5t-298.5 141.5t-294.5 -141t-112.5 -367.5t113 -366.5t294 -140q183 0 299 141t116 366zM511 1254l236 303h63l-246 -303h-53z" />
    <glyph glyph-name="Ngrave" unicode="&#x1f8;" horiz-adv-x="1315" 
d="M124 0v1443h55l958 -1348h4v1348h50v-1443h-46l-967 1359h-4v-1359h-50zM336 1841h66l294 -287h-57z" />
    <glyph glyph-name="ngrave" unicode="&#x1f9;" horiz-adv-x="1063" 
d="M120 1076h46v-254h2q34 120 138.5 195t243.5 75q178 0 289 -107.5t111 -288.5v-696h-49v694q0 161 -99.5 256.5t-261.5 95.5t-266.5 -112t-104.5 -288v-646h-49v1076zM533 1254l-246 303h63l236 -303h-53z" />
    <glyph glyph-name="Aringacute" unicode="&#x1fa;" horiz-adv-x="1201" 
d="M782 2083l-163 -164h-53l154 164h62zM600 1542q53 0 89.5 37t36.5 77t-9.5 63t-26.5 40.5t-40 27.5t-63.5 10t-76.5 -37.5t-36 -76.5q0 -40 9.5 -63.5t36.5 -50.5t80 -27zM600 1504q-34 0 -64 13t-52.5 35.5t-35.5 52.5t-13 64t13 64.5t35.5 53t52.5 35.5t64 13t64 -13
t52.5 -35.5t35.5 -53t13 -64.5t-13 -64t-35.5 -52.5t-52.5 -35.5t-64 -13zM283 547h635l-315 827h-5zM936 501h-671l-190 -501h-55l555 1443h51l555 -1443h-56z" />
    <glyph glyph-name="aringacute" unicode="&#x1fb;" horiz-adv-x="1021" 
d="M654 1813h60l-162 -165h-51zM407 1396q0 -26 9.5 -49.5t26.5 -40.5t40 -27t63 -10t76.5 36.5t36.5 76.5t-9.5 63.5t-26.5 40.5t-40 27t-50 10t-50 -10t-40 -27t-26.5 -40.5t-9.5 -49.5zM533 1231q-34 0 -64 13t-52.5 35.5t-35.5 52.5t-13 64t13 64t35.5 52.5t52.5 36
t64 13.5t64 -13.5t52.5 -36t35.5 -52.5t13 -64t-13 -64t-35.5 -52.5t-52.5 -35.5t-64 -13zM190 68.5q-100 84.5 -100 219.5q0 273 380 304l389 30v97q0 234 -124.5 280.5t-200.5 46.5q-152 0 -244.5 -73.5t-113.5 -209.5h-47q18 153 125.5 241t279.5 88t273 -99.5
t101 -270.5v-722h-49v245h-1q-40 -117 -154 -189t-264 -72t-250 84.5zM859 396v182l-381 -29q-338 -26 -338 -263q0 -111 87.5 -183.5t230.5 -72.5q160 0 280.5 107.5t120.5 258.5z" />
    <glyph glyph-name="AEacute" unicode="&#x1fc;" horiz-adv-x="1889" 
d="M1010 411h-689l-208 -411h-55l733 1443h985v-47h-718v-633h681v-46h-681v-670h718v-47h-766v411zM1010 458v939h-191l-476 -939h667zM1273 1554l293 287h66l-303 -287h-56z" />
    <glyph glyph-name="aeacute" unicode="&#x1fd;" horiz-adv-x="1848" 
d="M859 401v150l-384 -26q-335 -22 -335 -243q0 -111 87.5 -181.5t232.5 -70.5q161 0 280 108t119 263zM1733 588q0 207 -110.5 332.5t-292.5 125.5t-297.5 -127t-123.5 -331h824zM90 280q0 264 375 289l394 27v141q0 145 -87.5 227t-242.5 82q-226 0 -287 -108.5
t-70 -174.5h-48q16 151 127.5 240t273.5 89q163 0 265.5 -82.5t108.5 -225.5h5q43 136 155 222t273 86q207 0 329 -139t122 -370v-40h-875v-7q0 -230 117 -368t311 -138q153 0 253 75t125 194h51q-29 -141 -144 -228t-281 -87t-279.5 83t-163.5 244h-4q-38 -150 -159 -238.5
t-282 -88.5t-261.5 82t-100.5 214zM886 1254l236 303h63l-246 -303h-53z" />
    <glyph glyph-name="Oslashacute" unicode="&#x1fe;" horiz-adv-x="1398" 
d="M1168 1256q167 -200 167 -538t-172 -538t-464 -200q-249 0 -412 147l-173 -222l-37 25l178 228q-192 200 -192 552t172 552.5t454 200.5q281 0 449 -174l151 194l36 -25zM271.5 1228.5q-158.5 -187.5 -158.5 -514.5t174 -515l820 1050q-157 167 -417 167t-418.5 -187.5z
M1125.5 215.5q159.5 188.5 159.5 500.5t-149 500l-818 -1049q152 -140 381 -140q267 0 426.5 188.5zM762 1554h-56l293 287h66z" />
    <glyph glyph-name="oslashacute" unicode="&#x1ff;" horiz-adv-x="1078" 
d="M879 945q134 -151 134 -406t-130.5 -405t-343.5 -150q-164 0 -284 93l-125 -174l-37 26l128 178q-156 150 -156 417t131 417.5t330 150.5t321 -114l115 159l37 -25zM819 938q-110 108 -291 108t-297 -138t-116 -380t135 -381zM539 31q192 0 308.5 137.5t116.5 368.5
t-114 368l-566 -788q104 -86 255 -86zM583 1254h-53l236 303h63z" />
    <glyph glyph-name="Adblgrave" unicode="&#x200;" horiz-adv-x="1201" 
d="M133 1841h65l294 -287h-56zM387 1841h66l293 -287h-56zM283 547h635l-315 827h-5zM936 501h-671l-190 -501h-55l555 1443h51l555 -1443h-56z" />
    <glyph glyph-name="adblgrave" unicode="&#x201;" horiz-adv-x="1021" 
d="M620 1254l-245 303h62l235 -303h-52zM397 1254l-245 303h62l235 -303h-52zM190 68.5q-100 84.5 -100 219.5q0 273 380 304l389 30v97q0 234 -124.5 280.5t-200.5 46.5q-152 0 -244.5 -73.5t-113.5 -209.5h-47q18 153 125.5 241t279.5 88t273 -99.5t101 -270.5v-722h-49
v245h-1q-40 -117 -154 -189t-264 -72t-250 84.5zM859 396v182l-381 -29q-338 -26 -338 -263q0 -111 87.5 -183.5t230.5 -72.5q160 0 280.5 107.5t120.5 258.5z" />
    <glyph glyph-name="Ainvertedbreve" unicode="&#x202;" horiz-adv-x="1201" 
d="M343 1554q0 100 72 158.5t185 58.5t185 -58.5t72 -158.5h-45q0 117 -82 145.5t-152.5 28.5t-130 -49t-59.5 -125h-45zM283 547h635l-315 827h-5zM936 501h-671l-190 -501h-55l555 1443h51l555 -1443h-56z" />
    <glyph glyph-name="ainvertedbreve" unicode="&#x203;" horiz-adv-x="1021" 
d="M275 1254q0 111 72 173.5t186 62.5q179 0 218.5 -89.5t39.5 -146.5h-45q0 88 -58 140.5t-181.5 52.5t-155 -74.5t-31.5 -118.5h-45zM190 68.5q-100 84.5 -100 219.5q0 273 380 304l389 30v97q0 234 -124.5 280.5t-200.5 46.5q-152 0 -244.5 -73.5t-113.5 -209.5h-47
q18 153 125.5 241t279.5 88t273 -99.5t101 -270.5v-722h-49v245h-1q-40 -117 -154 -189t-264 -72t-250 84.5zM859 396v182l-381 -29q-338 -26 -338 -263q0 -111 87.5 -183.5t230.5 -72.5q160 0 280.5 107.5t120.5 258.5z" />
    <glyph glyph-name="Edblgrave" unicode="&#x204;" horiz-adv-x="1050" 
d="M950 0h-826v1443h826v-47h-776v-632h740v-46h-740v-671h776v-47zM70 1841h65l294 -287h-56zM324 1841h66l293 -287h-56z" />
    <glyph glyph-name="edblgrave" unicode="&#x205;" horiz-adv-x="1056" 
d="M620 1254l-245 303h62l235 -303h-52zM397 1254l-245 303h62l235 -303h-52zM194 130.5q-129 146.5 -129 402.5t128.5 407.5t336.5 151.5t334.5 -143t126.5 -375v-38h-876v-2q0 -238 115.5 -371t311.5 -133q236 0 304 106t80 163h51q-29 -141 -145 -228t-312 -87
q-197 0 -326 146.5zM239 918q-115 -128 -123 -337h825q0 208 -113 336.5t-293 128.5q-181 0 -296 -128z" />
    <glyph glyph-name="Einvertedbreve" unicode="&#x206;" horiz-adv-x="1050" 
d="M280 1554q0 100 72 158.5t185 58.5t185 -58.5t72 -158.5h-45q0 117 -82 145.5t-152.5 28.5t-130 -49t-59.5 -125h-45zM950 0h-826v1443h826v-47h-776v-632h740v-46h-740v-671h776v-47z" />
    <glyph glyph-name="einvertedbreve" unicode="&#x207;" horiz-adv-x="1056" 
d="M275 1254q0 111 72 173.5t186 62.5q179 0 218.5 -89.5t39.5 -146.5h-45q0 88 -58 140.5t-181.5 52.5t-155 -74.5t-31.5 -118.5h-45zM194 130.5q-129 146.5 -129 402.5t128.5 407.5t336.5 151.5t334.5 -143t126.5 -375v-38h-876v-2q0 -238 115.5 -371t311.5 -133
q236 0 304 106t80 163h51q-29 -141 -145 -228t-312 -87q-197 0 -326 146.5zM239 918q-115 -128 -123 -337h825q0 208 -113 336.5t-293 128.5q-181 0 -296 -128z" />
    <glyph glyph-name="Idblgrave" unicode="&#x208;" horiz-adv-x="298" 
d="M-318 1841h65l294 -287h-56zM-64 1841h66l293 -287h-56zM124 0v1443h50v-1443h-50z" />
    <glyph glyph-name="idblgrave" unicode="&#x209;" horiz-adv-x="309" 
d="M242 1254l-245 303h62l235 -303h-52zM19 1254l-245 303h62l235 -303h-52zM130 1076h49v-1076h-49v1076z" />
    <glyph glyph-name="Iinvertedbreve" unicode="&#x20a;" horiz-adv-x="298" 
d="M-108 1554q0 100 72 158.5t185 58.5t185 -58.5t72 -158.5h-45q0 117 -82 145.5t-152.5 28.5t-130 -49t-59.5 -125h-45zM124 0v1443h50v-1443h-50z" />
    <glyph glyph-name="iinvertedbreve" unicode="&#x20b;" horiz-adv-x="309" 
d="M-103 1254q0 111 72 173.5t186 62.5q179 0 218.5 -89.5t39.5 -146.5h-45q0 88 -58 140.5t-181.5 52.5t-155 -74.5t-31.5 -118.5h-45zM130 1076h49v-1076h-49v1076z" />
    <glyph glyph-name="Odblgrave" unicode="&#x20c;" horiz-adv-x="1398" 
d="M272.5 215.5q159.5 -188.5 426.5 -188.5t426.5 188.5t159.5 506.5t-159.5 506t-427.5 188q-269 0 -427 -187.5t-158 -506t159.5 -507zM1163 1262q172 -201 172 -541t-172 -540.5t-464.5 -200.5t-464 200.5t-171.5 541.5t172 541t464 200t464 -201zM232 1841h65l294 -287
h-56zM486 1841h66l293 -287h-56z" />
    <glyph glyph-name="odblgrave" unicode="&#x20d;" horiz-adv-x="1078" 
d="M626 1253l-245 303h62l235 -303h-52zM403 1253l-245 303h62l235 -303h-52zM539 31q95 0 173.5 35.5t134.5 101.5t86.5 159.5t30.5 210.5t-30.5 211t-86.5 160t-134.5 101.5t-173.5 35.5t-173.5 -35.5t-134 -101.5t-86 -160t-30.5 -211t30.5 -211t86 -159.5t134 -101
t173.5 -35.5zM65 538q0 253 131 403.5t343 150.5t343 -150t131 -404q0 -253 -130.5 -403.5t-344.5 -150.5t-343.5 150.5t-129.5 403.5z" />
    <glyph glyph-name="Oinvertedbreve" unicode="&#x20e;" horiz-adv-x="1398" 
d="M272.5 215.5q159.5 -188.5 426.5 -188.5t426.5 188.5t159.5 506.5t-159.5 506t-427.5 188q-269 0 -427 -187.5t-158 -506t159.5 -507zM1163 1262q172 -201 172 -541t-172 -540.5t-464.5 -200.5t-464 200.5t-171.5 541.5t172 541t464 200t464 -201zM442 1554
q0 100 72 158.5t185 58.5t185 -58.5t72 -158.5h-45q0 117 -82 145.5t-152.5 28.5t-130 -49t-59.5 -125h-45z" />
    <glyph glyph-name="oinvertedbreve" unicode="&#x20f;" horiz-adv-x="1078" 
d="M281 1253q0 111 72 173.5t186 62.5q179 0 218.5 -89.5t39.5 -146.5h-45q0 88 -58 140.5t-181.5 52.5t-155 -74.5t-31.5 -118.5h-45zM539 31q95 0 173.5 35.5t134.5 101.5t86.5 159.5t30.5 210.5t-30.5 211t-86.5 160t-134.5 101.5t-173.5 35.5t-173.5 -35.5t-134 -101.5
t-86 -160t-30.5 -211t30.5 -211t86 -159.5t134 -101t173.5 -35.5zM65 538q0 253 131 403.5t343 150.5t343 -150t131 -404q0 -253 -130.5 -403.5t-344.5 -150.5t-343.5 150.5t-129.5 403.5z" />
    <glyph glyph-name="Rdblgrave" unicode="&#x210;" horiz-adv-x="1124" 
d="M571 630h-397v-630h-50v1443h448q216 0 340 -108.5t124 -298.5q0 -242 -132.5 -312t-214.5 -84l381 -640h-57l-376 632q-28 -2 -66 -2zM174 676h397q192 0 303 96.5t111 264.5q0 169 -110.5 264t-304.5 95h-396v-720zM16 1841h65l294 -287h-56zM270 1841h66l293 -287h-56
z" />
    <glyph glyph-name="rdblgrave" unicode="&#x211;" horiz-adv-x="603" 
d="M421 1254l-245 303h62l235 -303h-52zM198 1254l-245 303h62l235 -303h-52zM456 1045q-131 0 -209 -104.5t-78 -270.5v-670h-49v1076h46v-223h2q71 239 297 239q60 0 108 -21v-51q-51 25 -117 25z" />
    <glyph glyph-name="Rinvertedbreve" unicode="&#x212;" horiz-adv-x="1124" 
d="M226 1554q0 100 72 158.5t185 58.5t185 -58.5t72 -158.5h-45q0 117 -82 145.5t-152.5 28.5t-130 -49t-59.5 -125h-45zM571 630h-397v-630h-50v1443h448q216 0 340 -108.5t124 -298.5q0 -242 -132.5 -312t-214.5 -84l381 -640h-57l-376 632q-28 -2 -66 -2zM174 676h397
q192 0 303 96.5t111 264.5q0 169 -110.5 264t-304.5 95h-396v-720z" />
    <glyph glyph-name="rinvertedbreve" unicode="&#x213;" horiz-adv-x="603" 
d="M76 1254q0 111 72 173.5t186 62.5q179 0 218.5 -89.5t39.5 -146.5h-45q0 88 -58 140.5t-181.5 52.5t-155 -74.5t-31.5 -118.5h-45zM456 1045q-131 0 -209 -104.5t-78 -270.5v-670h-49v1076h46v-223h2q71 239 297 239q60 0 108 -21v-51q-51 25 -117 25z" />
    <glyph glyph-name="Udblgrave" unicode="&#x214;" horiz-adv-x="1305" 
d="M174 500q0 -218 129.5 -345.5t350 -127.5t350 127.5t129.5 345.5v943h50v-944q0 -237 -143 -378t-386.5 -141t-386.5 141t-143 378v944h50v-943zM186 1841h65l294 -287h-56zM440 1841h66l293 -287h-56z" />
    <glyph glyph-name="udblgrave" unicode="&#x215;" horiz-adv-x="1063" 
d="M615 1253l-245 303h62l235 -303h-52zM392 1253l-245 303h62l235 -303h-52zM944 0h-46v251h-2q-32 -113 -142.5 -190t-266.5 -77t-265 106t-109 285v701h49v-694q0 -165 96.5 -258t256.5 -93t269.5 109.5t109.5 286.5v649h50v-1076z" />
    <glyph glyph-name="Uinvertedbreve" unicode="&#x216;" horiz-adv-x="1305" 
d="M396 1554q0 100 72 158.5t185 58.5t185 -58.5t72 -158.5h-45q0 117 -82 145.5t-152.5 28.5t-130 -49t-59.5 -125h-45zM174 500q0 -218 129.5 -345.5t350 -127.5t350 127.5t129.5 345.5v943h50v-944q0 -237 -143 -378t-386.5 -141t-386.5 141t-143 378v944h50v-943z" />
    <glyph glyph-name="uinvertedbreve" unicode="&#x217;" horiz-adv-x="1063" 
d="M270 1253q0 111 72 173.5t186 62.5q179 0 218.5 -89.5t39.5 -146.5h-45q0 88 -58 140.5t-181.5 52.5t-155 -74.5t-31.5 -118.5h-45zM944 0h-46v251h-2q-32 -113 -142.5 -190t-266.5 -77t-265 106t-109 285v701h49v-694q0 -165 96.5 -258t256.5 -93t269.5 109.5
t109.5 286.5v649h50v-1076z" />
    <glyph glyph-name="Scommaaccent" unicode="&#x218;" horiz-adv-x="1114" 
d="M455 -480l102 338h57l-113 -338h-46zM1010 377q0 121 -85 193.5t-277 120.5l-167 42q-201 50 -295 133.5t-94 215.5q0 164 135 272.5t331 108.5t332 -104.5t142 -256.5h-50q-6 136 -129 225.5t-297 89.5t-294 -95.5t-120 -239.5q0 -168 132 -224t223 -78l165 -41
q208 -53 303 -137.5t95 -222.5q0 -175 -136.5 -287t-355 -112t-363.5 113t-153 289h50q8 -157 140 -256.5t328 -99.5q195 0 317.5 99.5t122.5 251.5z" />
    <glyph glyph-name="scommaaccent" unicode="&#x219;" horiz-adv-x="905" 
d="M344 -480l102 338h57l-113 -338h-46zM458 1046q-134 0 -225.5 -67t-91.5 -170q0 -124 89 -160.5t150 -50.5l167 -40q237 -59 269.5 -141.5t32.5 -142.5q0 -127 -110 -208.5t-280 -81.5t-282.5 93t-120.5 227h50q10 -115 108.5 -194.5t243.5 -79.5q144 0 242.5 69
t98.5 177q0 135 -97.5 177.5t-169.5 59.5l-169 39q-135 32 -203 92t-68 174t105.5 194t261.5 80t257.5 -88t115.5 -240h-48q-23 198 -140.5 240t-185.5 42z" />
    <glyph glyph-name="Tcommaaccent" unicode="&#x21a;" horiz-adv-x="1117" 
d="M534 0v1396h-521v47h1091v-47h-521v-1396h-49zM444 -480l102 338h57l-113 -338h-46z" />
    <glyph glyph-name="tcommaaccent" unicode="&#x21b;" horiz-adv-x="527" 
d="M389 -1q-109 0 -159 54.5t-50 180.5v797h-160v45h160v288h49v-288h228v-45h-228v-796q0 -103 38.5 -146.5t124.5 -43.5h13l57 1h13v-46h-13h-14zM237 -480l102 338h57l-113 -338h-46z" />
    <glyph glyph-name="Hcaron" unicode="&#x21e;" horiz-adv-x="1296" 
d="M359 1841h59l229 -250h2l229 250h59l-266 -287h-46zM1122 0v718h-948v-718h-50v1443h50v-678h948v678h50v-1443h-50z" />
    <glyph glyph-name="hcaron" unicode="&#x21f;" horiz-adv-x="1075" 
d="M-134 1904h59l229 -250h2l229 250h59l-266 -287h-46zM130 1506h49v-684h2q34 120 139.5 195t243.5 75q178 0 288 -108.5t110 -288.5v-695h-50v693q0 162 -97.5 257.5t-259.5 95.5t-269 -112t-107 -289v-645h-49v1506z" />
    <glyph glyph-name="Adotaccent" unicode="&#x226;" horiz-adv-x="1201" 
d="M600 1556q-26 0 -45 19t-19 45t19 44.5t45 18.5t45 -18.5t19 -44.5t-19 -45t-45 -19zM283 547h635l-315 827h-5zM936 501h-671l-190 -501h-55l555 1443h51l555 -1443h-56z" />
    <glyph glyph-name="adotaccent" unicode="&#x227;" horiz-adv-x="1021" 
d="M533 1254q-26 0 -45 19t-19 45t19 45t45 19t45.5 -19t19.5 -45t-19.5 -45t-45.5 -19zM190 68.5q-100 84.5 -100 219.5q0 273 380 304l389 30v97q0 234 -124.5 280.5t-200.5 46.5q-152 0 -244.5 -73.5t-113.5 -209.5h-47q18 153 125.5 241t279.5 88t273 -99.5t101 -270.5
v-722h-49v245h-1q-40 -117 -154 -189t-264 -72t-250 84.5zM859 396v182l-381 -29q-338 -26 -338 -263q0 -111 87.5 -183.5t230.5 -72.5q160 0 280.5 107.5t120.5 258.5z" />
    <glyph glyph-name="Ecedilla" unicode="&#x228;" horiz-adv-x="1050" 
d="M611.5 -383q49.5 36 49.5 89t-42.5 82.5t-121.5 29.5h-50v33l66 149h-389v1443h826v-47h-776v-632h740v-46h-740v-671h776v-47h-390l-59 -140q94 0 150 -41.5t56 -114.5t-60.5 -119.5t-147.5 -46.5t-130 17v43q47 -17 120 -17t122.5 36z" />
    <glyph glyph-name="ecedilla" unicode="&#x229;" horiz-adv-x="1056" 
d="M615.5 -383q49.5 36 49.5 89t-42.5 82.5t-121.5 29.5h-50v33l60 134q-207 10 -326.5 156.5t-119.5 397.5q0 250 128.5 401.5t336.5 151.5t334.5 -143t126.5 -375v-38h-876v-2q0 -238 115.5 -371t311.5 -133q236 0 304 106t80 163h51q-27 -137 -139 -224t-281 -91
l-52 -124q94 0 150 -41.5t56 -114.5t-60.5 -119.5t-147.5 -46.5t-130 17v43q47 -17 120 -17t122.5 36zM941 581q0 208 -113 336.5t-293 128.5t-295.5 -128t-123.5 -337h825z" />
    <glyph glyph-name="Odieresismacron" unicode="&#x22a;" horiz-adv-x="1398" 
d="M838 1662q22 0 37.5 -15.5t15.5 -37.5t-15.5 -37t-37.5 -15t-38 15t-16 37t16 37.5t38 15.5zM981 1888v-42h-564v42h564zM560 1662q22 0 38 -15.5t16 -37.5t-16 -37t-38 -15t-37.5 15t-15.5 37t15.5 37.5t37.5 15.5zM272.5 215.5q159.5 -188.5 426.5 -188.5t426.5 188.5
t159.5 506.5t-159.5 506t-427.5 188q-269 0 -427 -187.5t-158 -506t159.5 -507zM1163 1262q172 -201 172 -541t-172 -540.5t-464.5 -200.5t-464 200.5t-171.5 541.5t172 541t464 200t464 -201z" />
    <glyph glyph-name="odieresismacron" unicode="&#x22b;" horiz-adv-x="1078" 
d="M539 31q95 0 173.5 35.5t134.5 101.5t86.5 159.5t30.5 210.5t-30.5 211t-86.5 160t-134.5 101.5t-173.5 35.5t-173.5 -35.5t-134 -101.5t-86 -160t-30.5 -211t30.5 -211t86 -159.5t134 -101t173.5 -35.5zM65 538q0 253 131 403.5t343 150.5t343 -150t131 -404
q0 -253 -130.5 -403.5t-344.5 -150.5t-343.5 150.5t-129.5 403.5zM824 1584h-584v43h584v-43zM678 1253q-22 0 -38 15.5t-16 37.5t16 38t38 16t38 -16t16 -38t-16 -37.5t-38 -15.5zM400 1253q-22 0 -38 15.5t-16 37.5t16 38t38 16t38 -16t16 -38t-16 -37.5t-38 -15.5z" />
    <glyph glyph-name="Otildemacron" unicode="&#x22c;" horiz-adv-x="1398" 
d="M272.5 215.5q159.5 -188.5 426.5 -188.5t426.5 188.5t159.5 506.5t-159.5 506t-427.5 188q-269 0 -427 -187.5t-158 -506t159.5 -507zM1163 1262q172 -201 172 -541t-172 -540.5t-464.5 -200.5t-464 200.5t-171.5 541.5t172 541t464 200t464 -201zM981 1846h-564v42h564
v-42zM817 1595q93 0 93 131h45q0 -77 -36 -125.5t-95 -48.5t-89 27.5t-45.5 47t-42 47t-66.5 27.5q-94 0 -94 -131h-45q0 121 52 147.5t84 26.5t55 -11t41.5 -27.5t34 -36t42 -47t66.5 -27.5z" />
    <glyph glyph-name="otildemacron" unicode="&#x22d;" horiz-adv-x="1078" 
d="M539 31q95 0 173.5 35.5t134.5 101.5t86.5 159.5t30.5 210.5t-30.5 211t-86.5 160t-134.5 101.5t-173.5 35.5t-173.5 -35.5t-134 -101.5t-86 -160t-30.5 -211t30.5 -211t86 -159.5t134 -101t173.5 -35.5zM65 538q0 253 131 403.5t343 150.5t343 -150t131 -404
q0 -253 -130.5 -403.5t-344.5 -150.5t-343.5 150.5t-129.5 403.5zM831 1584h-584v43h584v-43zM780 1436h45q0 -142 -53.5 -172t-87.5 -30t-59.5 12.5t-47.5 31t-41 40.5t-51.5 53t-75.5 31q-97 0 -97 -158h-45q0 143 53.5 172t87.5 29t59.5 -12.5t47.5 -31t41 -40
t51.5 -52.5t75.5 -31q97 0 97 158z" />
    <glyph glyph-name="Odotaccent" unicode="&#x22e;" horiz-adv-x="1398" 
d="M272.5 215.5q159.5 -188.5 426.5 -188.5t426.5 188.5t159.5 506.5t-159.5 506t-427.5 188q-269 0 -427 -187.5t-158 -506t159.5 -507zM1163 1262q172 -201 172 -541t-172 -540.5t-464.5 -200.5t-464 200.5t-171.5 541.5t172 541t464 200t464 -201zM699 1556q-26 0 -45 19
t-19 45t19 44.5t45 18.5t45 -18.5t19 -44.5t-19 -45t-45 -19z" />
    <glyph glyph-name="odotaccent" unicode="&#x22f;" horiz-adv-x="1078" 
d="M539 31q95 0 173.5 35.5t134.5 101.5t86.5 159.5t30.5 210.5t-30.5 211t-86.5 160t-134.5 101.5t-173.5 35.5t-173.5 -35.5t-134 -101.5t-86 -160t-30.5 -211t30.5 -211t86 -159.5t134 -101t173.5 -35.5zM65 538q0 253 131 403.5t343 150.5t343 -150t131 -404
q0 -253 -130.5 -403.5t-344.5 -150.5t-343.5 150.5t-129.5 403.5zM539 1253q-26 0 -45 19t-19 45t19 45t45 19t45.5 -19t19.5 -45t-19.5 -45t-45.5 -19z" />
    <glyph glyph-name="Odotaccentmacron" unicode="&#x230;" horiz-adv-x="1398" 
d="M272.5 215.5q159.5 -188.5 426.5 -188.5t426.5 188.5t159.5 506.5t-159.5 506t-427.5 188q-269 0 -427 -187.5t-158 -506t159.5 -507zM1163 1262q172 -201 172 -541t-172 -540.5t-464.5 -200.5t-464 200.5t-171.5 541.5t172 541t464 200t464 -201zM981 1846h-564v42h564
v-42zM699 1555q-26 0 -45 18.5t-19 44.5t19 44.5t45 18.5t45 -18.5t19 -44.5t-19 -44.5t-45 -18.5z" />
    <glyph glyph-name="odotaccentmacron" unicode="&#x231;" horiz-adv-x="1078" 
d="M824 1584h-584v43h584v-43zM539 1253q-26 0 -45 19t-19 45t19 44.5t45 18.5t45 -18.5t19 -44.5t-19 -45t-45 -19zM539 31q95 0 173.5 35.5t134.5 101.5t86.5 159.5t30.5 210.5t-30.5 211t-86.5 160t-134.5 101.5t-173.5 35.5t-173.5 -35.5t-134 -101.5t-86 -160
t-30.5 -211t30.5 -211t86 -159.5t134 -101t173.5 -35.5zM65 538q0 253 131 403.5t343 150.5t343 -150t131 -404q0 -253 -130.5 -403.5t-344.5 -150.5t-343.5 150.5t-129.5 403.5z" />
    <glyph glyph-name="Ymacron" unicode="&#x232;" horiz-adv-x="1148" 
d="M856 1616h-564v43h564v-43zM550 0v631l-529 812h60l492 -758h4l491 758h59l-527 -812v-631h-50z" />
    <glyph glyph-name="ymacron" unicode="&#x233;" horiz-adv-x="888" 
d="M729 1304h-584v43h584v-43zM188 -296q67 0 112.5 47t88.5 158l28 72l-415 1095h54l387 -1029h2l388 1029h54l-417 -1101q-74 -195 -130.5 -256.5t-161.5 -61.5q-25 0 -47 9v47q25 -9 57 -9z" />
    <glyph glyph-name="dotlessj" unicode="&#x237;" horiz-adv-x="309" 
d="M179 -80q0 -206 -99.5 -234t-163.5 -28h-29v45h27q112 0 164 50t52 163v1160h49v-1156z" />
    <glyph glyph-name="circumflex" unicode="&#x2c6;" horiz-adv-x="686" 
d="M630 1254h-56l-230 264h-2l-230 -264h-56l265 303h44z" />
    <glyph glyph-name="caron" unicode="&#x2c7;" horiz-adv-x="686" 
d="M321 1254l-265 303h56l230 -264h2l230 264h56l-265 -303h-44z" />
    <glyph glyph-name="breve" unicode="&#x2d8;" horiz-adv-x="814" 
d="M194 1490q0 -89 58 -141.5t182 -52.5t155 75t31 119h45q0 -112 -72 -174.5t-186 -62.5q-179 0 -218.5 90t-39.5 147h45z" />
    <glyph glyph-name="dotaccent" unicode="&#x2d9;" horiz-adv-x="807" 
d="M403 1254q-26 0 -45 19t-19 45t19 45t45 19t45.5 -19t19.5 -45t-19.5 -45t-45.5 -19z" />
    <glyph glyph-name="ring" unicode="&#x2da;" horiz-adv-x="689" 
d="M434.5 1324.5q36.5 36.5 36.5 76.5t-9.5 63t-26.5 40.5t-40 27.5t-63 10t-77 -37t-37 -77t9.5 -63t37.5 -50t80.5 -27t89 36.5zM345 1249q-34 0 -64 13t-52.5 35.5t-35.5 53t-13 64.5t13 64t35.5 52.5t52.5 35.5t64 13t63.5 -13t52 -35.5t35.5 -52.5t13 -64t-13 -64.5
t-35.5 -53t-52 -35.5t-63.5 -13z" />
    <glyph glyph-name="ogonek" unicode="&#x2db;" horiz-adv-x="516" 
d="M170 -329q-49 47 -49 116q0 142 150 235l39 -7q-141 -84 -141 -178.5t36.5 -131t101.5 -36.5t104 27v-44q-47 -28 -119 -28q-73 0 -122 47z" />
    <glyph glyph-name="tilde" unicode="&#x2dc;" horiz-adv-x="686" 
d="M480 1298q97 0 97 158h45q0 -142 -53 -172t-87 -30t-60 12.5t-48 31t-41 40.5t-51.5 53t-75.5 31q-97 0 -97 -158h-45q0 143 53 172t87 29t60 -12.5t48 -31t41 -40t51.5 -52.5t75.5 -31z" />
    <glyph glyph-name="hungarumlaut" unicode="&#x2dd;" horiz-adv-x="815" 
d="M402 1557h62l-245 -303h-52zM625 1557h62l-245 -303h-52z" />
    <glyph glyph-name="gravecmb" unicode="&#x300;" 
d="M-5 1254l-246 303h63l236 -303h-53z" />
    <glyph glyph-name="acutecmb" unicode="&#x301;" 
d="M-48 1254l236 303h63l-246 -303h-53z" />
    <glyph glyph-name="circumflexcmb" unicode="&#x302;" 
d="M287 1254h-56l-230 264h-2l-230 -264h-56l265 303h44z" />
    <glyph glyph-name="tildecmb" unicode="&#x303;" 
d="M137 1298q97 0 97 158h45q0 -142 -53.5 -172t-87.5 -30t-59.5 12.5t-47.5 31t-41 40.5t-51.5 53t-75.5 31q-97 0 -97 -158h-45q0 143 53.5 172t87.5 29t59.5 -12.5t47.5 -31t41 -40t51.5 -52.5t75.5 -31z" />
    <glyph glyph-name="macroncmb" unicode="&#x304;" 
d="M285 1305h-584v43h584v-43z" />
    <glyph glyph-name="brevecmb" unicode="&#x306;" 
d="M-213 1490q0 -89 58 -141.5t182 -52.5t155 75t31 119h45q0 -112 -72 -174.5t-186 -62.5q-179 0 -218.5 90t-39.5 147h45z" />
    <glyph glyph-name="dotaccentcmb" unicode="&#x307;" 
d="M0 1254q-26 0 -45 19t-19 45t19 45t45 19t45.5 -19t19.5 -45t-19.5 -45t-45.5 -19z" />
    <glyph glyph-name="dieresiscmb" unicode="&#x308;" 
d="M140 1254q-22 0 -38.5 16t-16.5 38t16.5 37.5t38.5 15.5t38 -15.5t16 -37.5t-16 -38t-38 -16zM-140 1254q-22 0 -38 16t-16 38t16 37.5t38 15.5t38.5 -15.5t16.5 -37.5t-16.5 -38t-38.5 -16z" />
    <glyph glyph-name="hookabovecmb" unicode="&#x309;" 
d="M-8 1514q65 0 105 -37t40 -89q0 -102 -99 -146l-27 32q80 36 80 107q0 41 -29.5 65.5t-83.5 24.5t-93 -31v45q42 29 107 29z" />
    <glyph glyph-name="ringcmb" unicode="&#x30a;" 
d="M89.5 1324.5q36.5 36.5 36.5 76.5t-9.5 63t-26.5 40.5t-40 27.5t-63 10t-77 -37t-37 -77t9.5 -63t37.5 -50t80.5 -27t89 36.5zM0 1249q-34 0 -64 13t-52.5 35.5t-35.5 53t-13 64.5t13 64t35.5 52.5t52.5 35.5t64 13t63.5 -13t52 -35.5t35.5 -52.5t13 -64t-13 -64.5
t-35.5 -53t-52 -35.5t-63.5 -13z" />
    <glyph glyph-name="hungarumlautcmb" unicode="&#x30b;" 
d="M96 1557h62l-245 -303h-52zM319 1557h62l-245 -303h-52z" />
    <glyph glyph-name="caroncmb" unicode="&#x30c;" 
d="M-22 1254l-265 303h56l230 -264h2l230 264h56l-265 -303h-44z" />
    <glyph glyph-name="dblgravecmb" unicode="&#x30f;" 
d="M87 1254l-245 303h62l235 -303h-52zM-136 1254l-245 303h62l235 -303h-52z" />
    <glyph glyph-name="invertedbrevecmb" unicode="&#x311;" 
d="M-258 1254q0 111 72 173.5t186 62.5q179 0 218.5 -89.5t39.5 -146.5h-45q0 88 -58 140.5t-181.5 52.5t-155 -74.5t-31.5 -118.5h-45z" />
    <glyph glyph-name="horncmb" unicode="&#x31b;" 
d="M8 1086h34q164 0 164 160v114h49v-123q0 -146 -82.5 -171t-106.5 -25h-32q-31 0 -34 3v45q3 -3 8 -3z" />
    <glyph glyph-name="dotbelowcmb" unicode="&#x323;" 
d="M0 -268q-26 0 -45 19t-19 45t19 44.5t45 18.5t45 -18.5t19 -44.5t-19 -45t-45 -19z" />
    <glyph glyph-name="dieresisbelowcmb" unicode="&#x324;" 
d="M140 -249q-22 0 -38.5 16t-16.5 38t16.5 37.5t38.5 15.5t38 -15.5t16 -37.5t-16 -38t-38 -16zM-140 -249q-22 0 -38 16t-16 38t16 37.5t38 15.5t38.5 -15.5t16.5 -37.5t-16.5 -38t-38.5 -16z" />
    <glyph glyph-name="ringbelowcmb" unicode="&#x325;" 
d="M89.5 -397.5q36.5 36.5 36.5 76.5t-9.5 63t-26.5 40.5t-40 27.5t-63 10t-77 -37t-37 -77t9.5 -63t37.5 -50t80.5 -27t89 36.5zM0 -473q-34 0 -64 13t-52.5 35.5t-35.5 53t-13 64.5t13 64t35.5 52.5t52.5 35.5t64 13t63.5 -13t52 -35.5t35.5 -52.5t13 -64t-13 -64.5
t-35.5 -53t-52 -35.5t-63.5 -13z" />
    <glyph glyph-name="commabelowcmb" unicode="&#x326;" 
d="M-115 -480l102 338h57l-113 -338h-46z" />
    <glyph glyph-name="cedillacmb" unicode="&#x327;" 
d="M124 -294q0 53 -42.5 82.5t-121.5 29.5h-50v33l69 155l44 -6l-59 -140q94 0 150 -41.5t56 -114.5t-60.5 -119.5t-147.5 -46.5t-130 17v43q47 -17 102 -17q91 0 140.5 36t49.5 89z" />
    <glyph glyph-name="ogonekcmb" unicode="&#x328;" 
d="M-122 -329q-49 47 -49 116q0 142 150 235l39 -7q-141 -84 -141 -178.5t36.5 -131t101.5 -36.5t104 27v-44q-47 -28 -119 -28q-73 0 -122 47z" />
    <glyph glyph-name="circumflexbelowcmb" unicode="&#x32d;" 
d="M23 -141l266 -287h-59l-229 249h-2l-229 -249h-59l266 287h46z" />
    <glyph glyph-name="brevebelowcmb" unicode="&#x32e;" 
d="M-212 -144q0 -76 59 -125.5t153 -49.5t153 49.5t59 125.5h45q0 -100 -72 -158.5t-185 -58.5t-185 58.5t-72 158.5h45z" />
    <glyph glyph-name="tildebelowcmb" unicode="&#x330;" 
d="M137 -308q97 0 97 158h45q0 -142 -53.5 -172t-87.5 -30t-59.5 12.5t-47.5 31t-41 40.5t-51.5 53t-75.5 31q-97 0 -97 -158h-45q0 143 53.5 172t87.5 29t59.5 -12.5t47.5 -31t41 -40t51.5 -52.5t75.5 -31z" />
    <glyph glyph-name="macronbelowcmb" unicode="&#x331;" 
d="M282 -244h-564v43h564v-43z" />
    <glyph glyph-name="greekquestionmark" unicode="&#x37e;" horiz-adv-x="488" 
d="M163 -211l56 384h53l-68 -384h-41zM244 770q-24 0 -40.5 17t-16.5 41t16.5 40t40.5 16t40.5 -16t16.5 -40t-16.5 -41t-40.5 -17z" />
    <glyph glyph-name="tonosgreek" unicode="&#x384;" horiz-adv-x="541" 
d="M268 1571h62l-110 -317h-43z" />
    <glyph glyph-name="dieresistonosgreek" unicode="&#x385;" horiz-adv-x="795" 
d="M362 1254l54 317h63l-73 -317h-44zM572 1254q-22 0 -38.5 16t-16.5 38t16.5 37.5t38.5 15.5t38 -15.5t16 -37.5t-16 -38t-38 -16zM224 1254q-22 0 -38.5 16t-16.5 38t16.5 37.5t38.5 15.5t38 -15.5t16 -37.5t-16 -38t-38 -16z" />
    <glyph glyph-name="Alphatonosgreek" unicode="&#x386;" horiz-adv-x="1199" 
d="M144 1101l99 342h63l-117 -342h-45zM282 547h635l-315 827h-5zM935 501h-671l-190 -501h-55l555 1443h51l555 -1443h-56z" />
    <glyph glyph-name="anoteleia" unicode="&#x387;" horiz-adv-x="488" 
d="M244 962q-24 0 -40.5 17t-16.5 41t16.5 40.5t40.5 16.5t40.5 -16.5t16.5 -40.5t-16.5 -41t-40.5 -17z" />
    <glyph glyph-name="Epsilontonosgreek" unicode="&#x388;" horiz-adv-x="1227" 
d="M1154 0h-826v1443h826v-47h-776v-632h740v-46h-740v-671h776v-47zM44 1101l99 342h63l-117 -342h-45z" />
    <glyph glyph-name="Etatonosgreek" unicode="&#x389;" horiz-adv-x="1501" 
d="M1326 0v718h-948v-718h-50v1443h50v-678h948v678h50v-1443h-50zM44 1101l99 342h63l-117 -342h-45z" />
    <glyph glyph-name="Iotatonosgreek" unicode="&#x38a;" horiz-adv-x="502" 
d="M44 1101l99 342h63l-117 -342h-45zM328 0v1443h50v-1443h-50z" />
    <glyph glyph-name="Omicrontonosgreek" unicode="&#x38c;" horiz-adv-x="1516" 
d="M42 1101l99 342h63l-117 -342h-45zM818 1416q-269 0 -427.5 -187.5t-158.5 -506t159.5 -507t426.5 -188.5t426.5 188.5t159.5 506.5t-158.5 506t-427.5 188zM1282 1262q172 -201 172 -541t-172 -540.5t-464.5 -200.5t-464 200.5t-171.5 541.5t172 541t464 200t464 -201z
" />
    <glyph glyph-name="Upsilontonosgreek" unicode="&#x38e;" horiz-adv-x="1433" 
d="M836 0v631l-529 812h60l492 -758h4l491 758h59l-527 -812v-631h-50zM43 1102l99 342h63l-117 -342h-45z" />
    <glyph glyph-name="Omegatonosgreek" unicode="&#x38f;" horiz-adv-x="1585" 
d="M42 1101l99 342h63l-117 -342h-45zM1481 766q0 -484 -473 -715v-4h476v-47h-528v75q362 172 418.5 371.5t56.5 329.5t-43.5 250t-122 206.5t-188 135t-308.5 48.5t-366 -182t-167 -469q0 -237 115 -406t360 -284v-75h-528v47h476v4q-473 231 -473 715q0 308 179.5 502.5
t468.5 194.5t468 -194.5t179 -502.5z" />
    <glyph glyph-name="iotadieresistonosgreek" unicode="&#x390;" horiz-adv-x="468" 
d="M123 1254l54 317h63l-73 -317h-44zM332 1254q-22 0 -38 16t-16 38t16 37.5t38 15.5t38.5 -15.5t16.5 -37.5t-16.5 -38t-38.5 -16zM-16 1254q-22 0 -38 16t-16 38t16 37.5t38 15.5t38.5 -15.5t16.5 -37.5t-16.5 -38t-38.5 -16zM354 -10q-124 0 -179 58.5t-55 193.5v834h49
v-833q0 -110 44 -159t144 -49q53 0 89 10l1 -45q-31 -10 -93 -10z" />
    <glyph glyph-name="Alphagreek" unicode="&#x391;" horiz-adv-x="1201" 
d="M283 547h635l-315 827h-5zM936 501h-671l-190 -501h-55l555 1443h51l555 -1443h-56z" />
    <glyph glyph-name="Betagreek" unicode="&#x392;" horiz-adv-x="1139" 
d="M600 46q204 0 321 90t117 245t-122.5 246.5t-337.5 91.5h-404v-673h426zM174 765h401q175 0 280 89.5t105 232.5q0 144 -104 227t-272 83h-410v-632zM124 0v1443h464q188 0 305 -96t117 -253q0 -203 -112.5 -267.5t-180.5 -77.5v-4q161 -17 265.5 -114t104.5 -261
t-129.5 -267t-355.5 -103h-478z" />
    <glyph glyph-name="Gammagreek" unicode="&#x393;" horiz-adv-x="973" 
d="M124 0v1443h797v-47h-747v-1396h-50z" />
    <glyph glyph-name="Deltagreek" unicode="&#x394;" horiz-adv-x="1254" 
d="M102 47h1050v5l-523 1322h-4l-523 -1322v-5zM41 0v37l560 1406h51l561 -1406v-37h-1172z" />
    <glyph glyph-name="Epsilongreek" unicode="&#x395;" horiz-adv-x="1023" 
d="M950 0h-826v1443h826v-47h-776v-632h740v-46h-740v-671h776v-47z" />
    <glyph glyph-name="Zetagreek" unicode="&#x396;" horiz-adv-x="1147" 
d="M1018 1396h-925v47h989v-43l-953 -1349v-4h954v-47h-1019v42l954 1350v4z" />
    <glyph glyph-name="Etagreek" unicode="&#x397;" horiz-adv-x="1296" 
d="M1122 0v718h-948v-718h-50v1443h50v-678h948v678h50v-1443h-50z" />
    <glyph glyph-name="Thetagreek" unicode="&#x398;" horiz-adv-x="1398" 
d="M699 1416q-134 0 -242.5 -48.5t-185 -139t-117.5 -219t-41 -287.5t41.5 -287.5t118 -219t184.5 -139.5t242 -49t242.5 49t185 139.5t118 219t41.5 287.5t-41.5 287.5t-118 219t-185 139t-242.5 48.5zM699 1463q292 0 464.5 -201t172.5 -541t-172 -540.5t-465 -200.5
t-464.5 200.5t-171.5 541.5t172 541t464 200zM346 707v47h706v-47h-706z" />
    <glyph glyph-name="Iotagreek" unicode="&#x399;" horiz-adv-x="298" 
d="M124 0v1443h50v-1443h-50z" />
    <glyph glyph-name="Kappagreek" unicode="&#x39a;" horiz-adv-x="1107" 
d="M124 0v1443h50v-836h4l784 836h64l-594 -635l664 -808h-64l-636 773l-222 -237v-536h-50z" />
    <glyph glyph-name="Lambdagreek" unicode="&#x39b;" horiz-adv-x="1161" 
d="M583 1369h-5l-503 -1369h-55l535 1443h51l535 -1443h-56z" />
    <glyph glyph-name="Mugreek" unicode="&#x39c;" horiz-adv-x="1576" 
d="M1451 0h-49v1328h-4l-584 -1327h-53l-584 1327h-4v-1328h-49v1443h53l609 -1380h4l606 1380h55v-1443z" />
    <glyph glyph-name="Nugreek" unicode="&#x39d;" horiz-adv-x="1315" 
d="M124 0v1443h55l958 -1348h4v1348h50v-1443h-46l-967 1359h-4v-1359h-50z" />
    <glyph glyph-name="Xigreek" unicode="&#x39e;" horiz-adv-x="1154" 
d="M1082 49v-49h-1009v49h1009zM131 719v49h892v-49h-892zM1082 1443v-49h-1009v49h1009z" />
    <glyph glyph-name="Omicrongreek" unicode="&#x39f;" horiz-adv-x="1398" 
d="M272.5 215.5q159.5 -188.5 426.5 -188.5t426.5 188.5t159.5 506.5t-159.5 506t-427.5 188q-269 0 -427 -187.5t-158 -506t159.5 -507zM1163 1262q172 -201 172 -541t-172 -540.5t-464.5 -200.5t-464 200.5t-171.5 541.5t172 541t464 200t464 -201z" />
    <glyph glyph-name="Pigreek" unicode="&#x3a0;" horiz-adv-x="1276" 
d="M1102 0v1396h-928v-1396h-50v1443h1028v-1443h-50z" />
    <glyph glyph-name="Rhogreek" unicode="&#x3a1;" horiz-adv-x="1087" 
d="M174 648h394q192 0 304.5 101t112.5 274.5t-113 273t-304 99.5h-394v-748zM572 1443q212 0 337.5 -114t125.5 -307t-125.5 -307t-338.5 -114h-397v-601h-50v1443h448z" />
    <glyph glyph-name="Sigmagreek" unicode="&#x3a3;" horiz-adv-x="1126" 
d="M128 47h934v-47h-998v42l483 698l-465 659v44h960v-47h-894v-4l457 -648v-4l-477 -689v-4z" />
    <glyph glyph-name="Taugreek" unicode="&#x3a4;" horiz-adv-x="1117" 
d="M534 0v1396h-521v47h1091v-47h-521v-1396h-49z" />
    <glyph glyph-name="Upsilongreek" unicode="&#x3a5;" horiz-adv-x="1148" 
d="M550 0v631l-529 812h60l492 -758h4l491 758h59l-527 -812v-631h-50z" />
    <glyph glyph-name="Phigreek" unicode="&#x3a6;" horiz-adv-x="1511" 
d="M730 -59v123q-324 0 -505.5 174t-181.5 486q0 311 181 484.5t506 175.5v106h50v-106q325 -2 507 -176t182 -484q0 -311 -182.5 -485.5t-506.5 -174.5v-123h-50zM93 724q0 -287 169.5 -450.5t467.5 -163.5v1227q-300 -2 -468.5 -164t-168.5 -449zM1247.5 1173
q-169.5 162 -467.5 164v-1227q298 0 467.5 163.5t169.5 450.5t-169.5 449z" />
    <glyph glyph-name="Chigreek" unicode="&#x3a7;" horiz-adv-x="1190" 
d="M565 721v1l-523 721h60l493 -680h1l494 680h59l-523 -721l522 -722h-60l-492 680h-1l-495 -680h-59z" />
    <glyph glyph-name="Psigreek" unicode="&#x3a8;" horiz-adv-x="1399" 
d="M674 0v357q-283 0 -427 141t-144 418v527h50v-527q0 -252 132 -382t389 -130v1039h50v-1039q257 0 389.5 130t132.5 382v527h50v-527q0 -277 -144.5 -418t-427.5 -141v-357h-50z" />
    <glyph glyph-name="Omegagreek" unicode="&#x3a9;" horiz-adv-x="1503" 
d="M1399 766q0 -484 -473 -715v-4h476v-47h-528v75q362 172 418.5 371.5t56.5 329.5t-43.5 250t-122 206.5t-188 135t-308.5 48.5t-366 -182t-167 -469q0 -237 115 -406t360 -284v-75h-528v47h476v4q-473 231 -473 715q0 308 179.5 502.5t468.5 194.5t468 -194.5t179 -502.5
z" />
    <glyph glyph-name="Iotadieresisgreek" unicode="&#x3aa;" horiz-adv-x="347" 
d="M338 1556q-22 0 -38.5 16t-16.5 38t16.5 37.5t38.5 15.5t38 -15.5t16 -37.5t-16 -38t-38 -16zM58 1556q-22 0 -38 16t-16 38t16 37.5t38 15.5t38.5 -15.5t16.5 -37.5t-16.5 -38t-38.5 -16zM173 0v1443h50v-1443h-50z" />
    <glyph glyph-name="Upsilondieresisgreek" unicode="&#x3ab;" horiz-adv-x="1208" 
d="M774 1556q-22 0 -38.5 16t-16.5 38t16.5 37.5t38.5 15.5t38 -15.5t16 -37.5t-16 -38t-38 -16zM494 1556q-22 0 -38 16t-16 38t16 37.5t38 15.5t38.5 -15.5t16.5 -37.5t-16.5 -38t-38.5 -16zM610 0v631l-529 812h60l492 -758h4l491 758h59l-527 -812v-631h-50z" />
    <glyph glyph-name="alphatonosgreek" unicode="&#x3ac;" horiz-adv-x="1209" 
d="M600 1571h62l-110 -317h-43zM976 192q0 -156 104 -156q49 0 79 9l5 -44q-24 -10 -92 -10q-143 0 -146 190v134h-2q-28 -136 -144 -233.5t-258 -97.5q-200 0 -328.5 156.5t-128.5 397.5t128.5 397.5t325.5 156.5q137 0 256.5 -94.5t152.5 -242.5h2v321h46v-884zM812 175
q114 144 114 363t-117.5 363.5t-290.5 144.5t-288 -144.5t-115 -364.5t114.5 -363t291.5 -143t291 144z" />
    <glyph glyph-name="epsilontonosgreek" unicode="&#x3ad;" horiz-adv-x="1019" 
d="M232 26q-156 42 -156 267q0 152 90.5 201t145.5 59v2q-100 9 -157 73t-57 149q0 152 110 233.5t291 81.5t300 -90t139 -241h-49q-12 124 -122.5 204.5t-267.5 80.5t-254.5 -69t-97.5 -181q0 -111 76 -163.5t234 -52.5h145v-48h-147q-237 0 -283.5 -96t-46.5 -154
q0 -118 94 -184.5t255 -66.5q162 0 281 76t151 199h51q-30 -142 -163.5 -232t-313.5 -90q-92 0 -248 42zM571 1571h62l-110 -317h-43z" />
    <glyph glyph-name="etatonosgreek" unicode="&#x3ae;" horiz-adv-x="1203" 
d="M571 1571h62l-110 -317h-43zM175 1086q136 0 140 -201v-53q0 -5 1 -10h2q61 193 188.5 231.5t205.5 38.5q161 0 269.5 -109.5t108.5 -277.5v-1098h-49v1081q0 157 -95 257.5t-257 100.5t-266 -110.5t-104 -297.5v-638h-49v884q0 157 -117 157q-43 0 -72 -10v45
q30 10 94 10z" />
    <glyph glyph-name="iotatonosgreek" unicode="&#x3af;" horiz-adv-x="468" 
d="M217 1571h62l-110 -317h-43zM354 -10q-124 0 -179 58.5t-55 193.5v834h49v-833q0 -110 44 -159t144 -49q53 0 89 10l1 -45q-31 -10 -93 -10z" />
    <glyph glyph-name="upsilondieresistonosgreek" unicode="&#x3b0;" horiz-adv-x="1031" 
d="M865 1076q80 -204 80 -491t-115.5 -444t-312.5 -157q-196 0 -300 110t-104 313v669h49v-666q0 -184 91 -281.5t265 -97.5t275.5 144.5t101.5 422.5t-81 478h51zM451 1254l54 317h63l-73 -317h-44zM660 1254q-22 0 -38 16t-16 38t16 37.5t38 15.5t38.5 -15.5t16.5 -37.5
t-16.5 -38t-38.5 -16zM312 1254q-22 0 -38 16t-16 38t16 37.5t38 15.5t38.5 -15.5t16.5 -37.5t-16.5 -38t-38.5 -16z" />
    <glyph glyph-name="alphagreek" unicode="&#x3b1;" horiz-adv-x="1209" 
d="M976 192q0 -156 104 -156q49 0 79 9l5 -44q-24 -10 -92 -10q-143 0 -146 190v134h-2q-28 -136 -144 -233.5t-258 -97.5q-200 0 -328.5 156.5t-128.5 397.5t128.5 397.5t325.5 156.5q137 0 256.5 -94.5t152.5 -242.5h2v321h46v-884zM812 175q114 144 114 363t-117.5 363.5
t-290.5 144.5t-288 -144.5t-115 -364.5t114.5 -363t291.5 -143t291 144z" />
    <glyph glyph-name="betagreek" unicode="&#x3b2;" horiz-adv-x="1108" 
d="M120 1020q0 244 111 373t306 129t299.5 -100t104.5 -265q0 -124 -69.5 -217t-199.5 -121v-2q182 -26 276.5 -132t94.5 -286t-120.5 -297.5t-310.5 -117.5q-257 0 -339.5 126.5t-101.5 204.5h-2v-708h-49v1413zM414 839h149q148 0 239 87.5t91 230.5t-93 230.5t-264 87.5
t-269 -115.5t-98 -343.5v-470q0 -236 118.5 -375.5t305.5 -139.5t293.5 104t106.5 279t-119.5 276t-323.5 101h-136v48z" />
    <glyph glyph-name="gammagreek" unicode="&#x3b3;" horiz-adv-x="971" 
d="M876 910q0 -74 -9.5 -144t-39.5 -171.5t-113.5 -242t-245.5 -359.5v-347h-49v340l-388 1090h54l362 -1025h2q213 289 295.5 472t82.5 392q0 74 -14 161h51q12 -92 12 -166z" />
    <glyph glyph-name="deltagreek" unicode="&#x3b4;" horiz-adv-x="1049" 
d="M814 839q-126 123 -299 123t-292 -123t-119 -337t116.5 -343t304.5 -129q184 0 299.5 123.5t115.5 343.5q0 219 -126 342zM588 1476q-300 0 -299 -197q0 -86 72.5 -145t218.5 -115q146 -57 277.5 -151t131.5 -391q0 -218 -130 -355.5t-337 -137.5t-336.5 140t-129.5 369
q0 228 120.5 364t325.5 146v3q-209 82 -235.5 154.5t-26.5 123.5q0 108 88.5 173t254.5 65t294 -66l-1 -47q-134 67 -288 67z" />
    <glyph glyph-name="epsilongreek" unicode="&#x3b5;" horiz-adv-x="1019" 
d="M232 26q-156 42 -156 267q0 152 90.5 201t145.5 59v2q-100 9 -157 73t-57 149q0 152 110 233.5t291 81.5t300 -90t139 -241h-49q-12 124 -122.5 204.5t-267.5 80.5t-254.5 -69t-97.5 -181q0 -111 76 -163.5t234 -52.5h145v-48h-147q-237 0 -283.5 -96t-46.5 -154
q0 -118 94 -184.5t255 -66.5q162 0 281 76t151 199h51q-30 -142 -163.5 -232t-313.5 -90q-92 0 -248 42z" />
    <glyph glyph-name="zetagreek" unicode="&#x3b6;" horiz-adv-x="838" 
d="M777 -203q0 139 -256 233t-356 207.5t-100 305.5q0 242 189.5 499.5t470.5 413.5v2h-580v48h670v-48q-313 -170 -506.5 -419t-193.5 -495q0 -180 90.5 -278t330.5 -190t265 -164.5t25 -114.5q0 -108 -61 -190l-43 11q55 79 55 179z" />
    <glyph glyph-name="etagreek" unicode="&#x3b7;" horiz-adv-x="1203" 
d="M175 1086q136 0 140 -201v-53q0 -5 1 -10h2q61 193 188.5 231.5t205.5 38.5q161 0 269.5 -109.5t108.5 -277.5v-1098h-49v1081q0 157 -95 257.5t-257 100.5t-266 -110.5t-104 -297.5v-638h-49v884q0 157 -117 157q-43 0 -72 -10v45q30 10 94 10z" />
    <glyph glyph-name="thetagreek" unicode="&#x3b8;" horiz-adv-x="1092" 
d="M546 1475q-204 0 -309 -175.5t-106 -519.5h831q-1 344 -106.5 519.5t-309.5 175.5zM546 31q203 0 309 179t107 524h-831q0 -346 106 -524.5t309 -178.5zM1011 755q0 -771 -465 -771t-465 771q0 380 117.5 573.5t347.5 193.5t347.5 -193.5t117.5 -573.5z" />
    <glyph glyph-name="iotagreek" unicode="&#x3b9;" horiz-adv-x="468" 
d="M354 -10q-124 0 -179 58.5t-55 193.5v834h49v-833q0 -110 44 -159t144 -49q53 0 89 10l1 -45q-31 -10 -93 -10z" />
    <glyph glyph-name="kappagreek" unicode="&#x3ba;" horiz-adv-x="1057" 
d="M169 0h-49v1076h49v-721h2l536 618q78 90 123.5 101.5t83.5 11.5q37 0 63 -10v-45q-28 10 -59 10q-54 0 -89.5 -22t-86.5 -81l-238 -275l484 -663h-62l-455 625l-302 -343v-282z" />
    <glyph glyph-name="lambdagreek" unicode="&#x3bb;" horiz-adv-x="1084" 
d="M873 18.5q-35 27.5 -60 100.5l-299 861h-2l-419 -980h-53l450 1046l-81 225q-59 167 -120.5 185t-104.5 18t-70 -10v48q30 10 78 10q100 0 155 -50t103 -183l405 -1154q21 -57 47.5 -78t70.5 -21t71 9l6 -44q-28 -10 -85 -10t-92 27.5z" />
    <glyph glyph-name="mugreek" unicode="&#x3bc;" horiz-adv-x="1189" 
d="M940 192q0 -156 105 -156q49 0 79 9l5 -44q-24 -10 -91 -10q-142 0 -146 188v23q0 22 -1 43h-2q-37 -118 -140 -189.5t-238 -71.5q-201 0 -264.5 86.5t-75.5 137.5h-2v-601h-49v1469h49v-683q0 -170 92 -266t254 -96t269 112.5t107 288.5v644h49v-884z" />
    <glyph glyph-name="nugreek" unicode="&#x3bd;" horiz-adv-x="970" 
d="M875 919q0 -82 -9 -152.5t-38 -170t-114 -243.5t-241 -353h-60l-382 1076h54l362 -1025h2q211 287 293.5 471.5t82.5 392.5q0 74 -14 161h51q13 -75 13 -157z" />
    <glyph glyph-name="xigreek" unicode="&#x3be;" horiz-adv-x="869" 
d="M130 1128q0 197 135 255.5t218 72.5v2h-353v48h651v-45l-116 -10q-241 -20 -367 -102.5t-126 -218.5t116.5 -210.5t326.5 -74.5h89v-48h-87q-502 0 -502 -347q0 -125 86.5 -201.5t293.5 -156.5t269 -140t62 -162q0 -101 -61 -183l-43 11q55 79 55 182t-91.5 152.5
t-193.5 89.5q-239 92 -333 178.5t-94 235.5t95.5 246t268.5 115v2q-299 77 -299 309z" />
    <glyph glyph-name="omicrongreek" unicode="&#x3bf;" horiz-adv-x="1069" 
d="M838 169q117 138 117 369t-117.5 369.5t-303.5 138.5t-302.5 -138.5t-116.5 -370t115.5 -369t303 -137.5t304.5 138zM534 -16q-106 0 -192.5 38.5t-148 110.5t-95 174t-33.5 230t33.5 230.5t95 174.5t148 111t192.5 39t192.5 -39t148 -111t95.5 -174.5t34 -230.5
t-34 -230t-95.5 -174t-148 -110.5t-192.5 -38.5z" />
    <glyph glyph-name="pigreek" unicode="&#x3c0;" horiz-adv-x="1278" 
d="M983 191q0 -155 104 -155q49 0 79 9l5 -44q-24 -10 -92 -10t-106.5 47.5t-38.5 147.5v843h-597v-1028h-49v1028h-214v47h1128v-47h-219v-838z" />
    <glyph glyph-name="rhogreek" unicode="&#x3c1;" horiz-adv-x="1072" 
d="M85 550q0 250 125 396t334 146q208 0 335.5 -154.5t127.5 -402.5q0 -247 -127 -399t-333 -152q-145 0 -261.5 94t-148.5 237h-2v-708h-50v943zM957 539q0 228 -113 367.5t-301 139.5t-298 -132.5t-110 -363.5t115.5 -375t297.5 -144q184 0 296.5 140t112.5 368z" />
    <glyph glyph-name="sigmafinalgreek" unicode="&#x3c2;" horiz-adv-x="1018" 
d="M777 -203q0 139 -256 233t-356 207t-100 303q0 253 126.5 402.5t341.5 149.5q163 0 279 -92t145 -239h-51q-27 127 -128.5 206t-244.5 79q-194 0 -306 -137t-112 -367q0 -122 28.5 -181t61 -94.5t104.5 -83t200 -96.5q127 -49 179 -79.5t95 -76.5t43 -144t-61 -180
l-43 11q55 79 55 179z" />
    <glyph glyph-name="sigmagreek" unicode="&#x3c3;" horiz-adv-x="1195" 
d="M834.5 170.5q118.5 139.5 118.5 366.5t-108 359t-302 132t-311 -136t-117 -362t113.5 -362.5t300.5 -136.5t305.5 139.5zM743 1026q257 -114 257 -506q0 -106 -34 -208t-96.5 -175t-150 -113t-191.5 -40q-207 0 -335 149t-128 399t132.5 397t364.5 147h558v-47h-377v-3z
" />
    <glyph glyph-name="taugreek" unicode="&#x3c4;" horiz-adv-x="971" 
d="M675 35q53 0 86 10l5 -45q-33 -10 -95 -10q-126 0 -180.5 58.5t-54.5 194.5v786h-376v47h860v-47h-434v-783q0 -113 44 -162t145 -49z" />
    <glyph glyph-name="upsilongreek" unicode="&#x3c5;" horiz-adv-x="1031" 
d="M865 1076q80 -204 80 -491t-115.5 -444t-312.5 -157q-196 0 -300 110t-104 313v669h49v-666q0 -184 91 -281.5t265 -97.5t275.5 144.5t101.5 422.5t-81 478h51z" />
    <glyph glyph-name="phigreek" unicode="&#x3c6;" horiz-adv-x="1350" 
d="M651 1048q-245 0 -395.5 -141t-150.5 -369t152 -369t394 -141v1020zM700 28q242 0 394 141t152 369t-151.5 369t-394.5 141v-1020zM215 935.5q160 148.5 436 156.5v263h49v-263q275 -8 435 -156.5t160 -396.5t-161 -397.5t-434 -157.5v-377h-49v377q-274 8 -435 157.5
t-161 397.5t160 396.5z" />
    <glyph glyph-name="chigreek" unicode="&#x3c7;" horiz-adv-x="1152" 
d="M148 1041q-46 0 -74 -10v45q30 10 70 10q73 0 113 -31t80 -110l282 -560h2l379 691h56l-408 -736l288 -576q32 -66 65 -93.5t77 -27.5t76 10l5 -45q-31 -10 -73 -10q-77 0 -115 33t-79 112l-278 551h-2l-375 -687h-56l404 732l-289 579q-36 72 -69 97.5t-79 25.5z" />
    <glyph glyph-name="psigreek" unicode="&#x3c8;" horiz-adv-x="1269" 
d="M1183 580q0 -240 -122 -415.5t-405 -181.5v-376h-49v377q-360 0 -427 159.5t-67 262.5v670h49v-674q0 -260 162.5 -315.5t282.5 -55.5v1324h49v-1325q340 7 409 208.5t69 337.5q0 301 -83 500h52q80 -198 80 -496z" />
    <glyph glyph-name="omegagreek" unicode="&#x3c9;" horiz-adv-x="1445" 
d="M442 -19q-178 0 -267 134.5t-89 379.5t65.5 387.5t103.5 193.5h60q-128 -156 -154 -326t-26 -267q0 -210 77 -333t215 -123q195 0 233 146.5t38 236.5v326h49v-326q0 -275 103.5 -329t169.5 -54q134 0 212 124t78 362t-69 375t-111 188h61q116 -161 142.5 -331.5
t26.5 -270.5q0 -223 -89 -358t-252 -135q-112 0 -189.5 68t-105.5 193h-2q-29 -124 -106.5 -192.5t-173.5 -68.5z" />
    <glyph glyph-name="iotadieresisgreek" unicode="&#x3ca;" horiz-adv-x="468" 
d="M354 -10q-124 0 -179 58.5t-55 193.5v834h49v-833q0 -110 44 -159t144 -49q53 0 89 10l1 -45q-31 -10 -93 -10zM290 1254q-22 0 -38 16t-16 38t16 37.5t38 15.5t38.5 -15.5t16.5 -37.5t-16.5 -38t-38.5 -16zM12 1254q-22 0 -38.5 16t-16.5 38t16.5 37.5t38.5 15.5
t38 -15.5t16 -37.5t-16 -38t-38 -16z" />
    <glyph glyph-name="upsilondieresisgreek" unicode="&#x3cb;" horiz-adv-x="1031" 
d="M865 1076q80 -204 80 -491t-115.5 -444t-312.5 -157q-196 0 -300 110t-104 313v669h49v-666q0 -184 91 -281.5t265 -97.5t275.5 144.5t101.5 422.5t-81 478h51zM624 1254q-22 0 -38 16t-16 38t16 37.5t38 15.5t38.5 -15.5t16.5 -37.5t-16.5 -38t-38.5 -16zM346 1254
q-22 0 -38.5 16t-16.5 38t16.5 37.5t38.5 15.5t38 -15.5t16 -37.5t-16 -38t-38 -16z" />
    <glyph glyph-name="omicrontonosgreek" unicode="&#x3cc;" horiz-adv-x="1069" 
d="M600 1571h62l-110 -317h-43zM838 169q117 138 117 369t-117.5 369.5t-303.5 138.5t-302.5 -138.5t-116.5 -370t115.5 -369t303 -137.5t304.5 138zM534 -16q-106 0 -192.5 38.5t-148 110.5t-95 174t-33.5 230t33.5 230.5t95 174.5t148 111t192.5 39t192.5 -39t148 -111
t95.5 -174.5t34 -230.5t-34 -230t-95.5 -174t-148 -110.5t-192.5 -38.5z" />
    <glyph glyph-name="upsilontonosgreek" unicode="&#x3cd;" horiz-adv-x="1031" 
d="M865 1076q80 -204 80 -491t-115.5 -444t-312.5 -157q-196 0 -300 110t-104 313v669h49v-666q0 -184 91 -281.5t265 -97.5t275.5 144.5t101.5 422.5t-81 478h51zM532 1571h62l-110 -317h-43z" />
    <glyph glyph-name="omegatonosgreek" unicode="&#x3ce;" horiz-adv-x="1445" 
d="M793 1571h62l-110 -317h-43zM442 -19q-178 0 -267 134.5t-89 379.5t65.5 387.5t103.5 193.5h60q-128 -156 -154 -326t-26 -267q0 -210 77 -333t215 -123q195 0 233 146.5t38 236.5v326h49v-326q0 -275 103.5 -329t169.5 -54q134 0 212 124t78 362t-69 375t-111 188h61
q116 -161 142.5 -331.5t26.5 -270.5q0 -223 -89 -358t-252 -135q-112 0 -189.5 68t-105.5 193h-2q-29 -124 -106.5 -192.5t-173.5 -68.5z" />
    <glyph glyph-name="Iocyrillic" unicode="&#x401;" horiz-adv-x="1043" 
d="M960 0h-826v1443h826v-47h-776v-632h740v-46h-740v-671h776v-47zM686 1556q-22 0 -38 16t-16 38t16 37.5t38 15.5t38.5 -15.5t16.5 -37.5t-16.5 -38t-38.5 -16zM408 1556q-22 0 -38.5 16t-16.5 38t16.5 37.5t38.5 15.5t38 -15.5t16 -37.5t-16 -38t-38 -16z" />
    <glyph glyph-name="Djecyrillic" unicode="&#x402;" horiz-adv-x="1524" 
d="M1054 38q149 0 238.5 104t89.5 280t-107 281.5t-286 105.5t-272 -68.5t-125 -107.5v-633h-49v1396h-520v47h1091v-47h-522v-694h5q70 71 172 112.5t212 41.5q212 0 331 -120.5t119 -314.5q0 -195 -104.5 -313t-271.5 -118q-73 0 -103 10v47q28 -9 102 -9z" />
    <glyph glyph-name="Gjecyrillic" unicode="&#x403;" horiz-adv-x="1011" 
d="M134 0v1443h815v-47h-765v-1396h-50zM471 1554l293 287h66l-303 -287h-56z" />
    <glyph glyph-name="Ecyrillic" unicode="&#x404;" horiz-adv-x="1322" 
d="M199.5 237q-126.5 151 -126.5 491t169.5 537.5t459.5 197.5q216 0 378 -137.5t180 -334.5h-49q-20 179 -167 302t-342 123q-260 0 -415.5 -175t-163.5 -476h772v-47h-772q2 -317 160.5 -504t418.5 -187q202 0 346 111.5t162 289.5h49q-18 -199 -175 -323.5t-398 -124.5
q-128 0 -244 53t-242.5 204z" />
    <glyph glyph-name="Dzecyrillic" unicode="&#x405;" horiz-adv-x="1134" 
d="M1020 377q0 121 -85 193.5t-277 120.5l-167 42q-201 50 -295 133.5t-94 215.5q0 164 135 272.5t331 108.5t332 -104.5t142 -256.5h-50q-6 136 -129 225.5t-297 89.5t-294 -95.5t-120 -239.5q0 -168 132 -224t223 -78l165 -41q208 -53 303 -137.5t95 -222.5
q0 -175 -136.5 -287t-355 -112t-363.5 113t-153 289h50q8 -157 140 -256.5t328 -99.5q195 0 317.5 99.5t122.5 251.5z" />
    <glyph glyph-name="Icyrillic" unicode="&#x406;" horiz-adv-x="318" 
d="M134 0v1443h50v-1443h-50z" />
    <glyph glyph-name="Yicyrillic" unicode="&#x407;" horiz-adv-x="318" 
d="M298 1556q-22 0 -38 16t-16 38t16 37.5t38 15.5t38.5 -15.5t16.5 -37.5t-16.5 -38t-38.5 -16zM20 1556q-22 0 -38.5 16t-16.5 38t16.5 37.5t38.5 15.5t38 -15.5t16 -37.5t-16 -38t-38 -16zM134 0v1443h50v-1443h-50z" />
    <glyph glyph-name="Jecyrillic" unicode="&#x408;" horiz-adv-x="953" 
d="M769 384v1059h50v-1062q0 -185 -104.5 -293.5t-275.5 -108.5t-276.5 94t-111.5 242h49q6 -127 97.5 -208t235.5 -81q153 0 244.5 95t91.5 263z" />
    <glyph glyph-name="Ljecyrillic" unicode="&#x409;" horiz-adv-x="2039" 
d="M1508 47q190 0 304 101.5t114 271.5t-114 271.5t-304 101.5h-393v-746h393zM76 38q187 0 211 419l60 986h768v-603h396q213 0 338.5 -113.5t125.5 -306t-125.5 -306.5t-338.5 -114h-446v1396h-670l-57 -946q-18 -326 -105 -392.5t-160 -66.5q-24 0 -39 4.5t-17 4.5v47
q9 -9 59 -9z" />
    <glyph glyph-name="Njecyrillic" unicode="&#x40a;" horiz-adv-x="2083" 
d="M184 0h-50v1443h50v-678h927v678h50v-678h396q213 0 338.5 -100.5t125.5 -276.5t-125.5 -282t-338.5 -106h-446v718h-927v-718zM1554 47q192 0 305 94t113 247t-113.5 241.5t-304.5 88.5h-393v-671h393z" />
    <glyph glyph-name="Tshecyrillic" unicode="&#x40b;" horiz-adv-x="1544" 
d="M989 856q195 0 314 -126.5t119 -334.5v-395h-50v387q0 190 -106 306t-279 116q-174 0 -268 -68t-127 -108v-633h-49v1396h-520v47h1091v-47h-522v-693h5q157 153 392 153z" />
    <glyph glyph-name="Kjecyrillic" unicode="&#x40c;" horiz-adv-x="1135" 
d="M184 723v-723h-50v1443h50v-684h4l792 684h73l-814 -699l868 -744h-76l-843 723h-4zM556 1554h-56l293 287h66z" />
    <glyph glyph-name="Ushortcyrillic" unicode="&#x40e;" horiz-adv-x="1114" 
d="M274 -9q-50 0 -65.5 4.5t-16.5 4.5v47q1 0 18.5 -4.5t57.5 -4.5q83 0 145.5 80t134.5 237l-517 1088h57l484 -1025h5l452 1025h54l-474 -1072q-90 -202 -137.5 -262t-97.5 -89t-100 -29zM364 1770q0 -126 83 -151.5t129 -25.5q94 0 153 46.5t59 130.5h46
q0 -102 -70 -159.5t-219 -57.5t-188 82t-39 135h46z" />
    <glyph glyph-name="Dzhecyrillic" unicode="&#x40f;" horiz-adv-x="1305" 
d="M134 0v1443h50v-1396h937v1396h50v-1443h-494v-285h-49v285h-494z" />
    <glyph glyph-name="Acyrillic" unicode="&#x410;" horiz-adv-x="1221" 
d="M293 547h635l-315 827h-5zM946 501h-671l-190 -501h-55l555 1443h51l555 -1443h-56z" />
    <glyph glyph-name="Becyrillic" unicode="&#x411;" horiz-adv-x="1118" 
d="M586 47q192 0 305 98t113 264t-113.5 264.5t-304.5 98.5h-402v-725h402zM927 110.5q-126 -110.5 -338 -110.5h-455v1443h802v-47h-752v-577h405q212 0 338 -110.5t126 -299t-126 -299z" />
    <glyph glyph-name="Vecyrillic" unicode="&#x412;" horiz-adv-x="1159" 
d="M610 46q204 0 321 90t117 245t-122.5 246.5t-337.5 91.5h-404v-673h426zM184 765h401q175 0 280 89.5t105 232.5q0 144 -104 227t-272 83h-410v-632zM134 0v1443h464q188 0 305 -96t117 -253q0 -203 -112.5 -267.5t-180.5 -77.5v-4q161 -17 265.5 -114t104.5 -261
t-129.5 -267t-355.5 -103h-478z" />
    <glyph glyph-name="Gecyrillic" unicode="&#x413;" horiz-adv-x="1011" 
d="M134 0v1443h815v-47h-765v-1396h-50z" />
    <glyph glyph-name="Decyrillic" unicode="&#x414;" horiz-adv-x="1341" 
d="M60 -286h-49v333h93q135 66 158 407l60 989h816v-1396h189v-333h-49v286h-1218v-286zM189 47h899v1349h-718l-57 -948q-18 -300 -124 -396v-5z" />
    <glyph glyph-name="Iecyrillic" unicode="&#x415;" horiz-adv-x="1043" 
d="M960 0h-826v1443h826v-47h-776v-632h740v-46h-740v-671h776v-47z" />
    <glyph glyph-name="Zhecyrillic" unicode="&#x416;" horiz-adv-x="1756" 
d="M903 723v-723h-50v723h-4l-757 -723h-73l779 744l-727 699h72l706 -684h4v684h50v-684h4l706 684h69l-726 -698l781 -745h-74l-756 723h-4z" />
    <glyph glyph-name="Zecyrillic" unicode="&#x417;" horiz-adv-x="1102" 
d="M358 774h166q192 0 302 89t110 230q0 140 -106.5 232.5t-271.5 92.5q-166 0 -275 -88.5t-127 -225.5h-49q18 158 139.5 259.5t310.5 101.5t309 -105t120 -261q0 -204 -120.5 -266.5t-196.5 -76.5v-4q175 -12 273.5 -109t98.5 -264t-135.5 -283.5t-348.5 -116.5
t-349 109.5t-146 267.5h50q10 -136 133 -233t312 -97t311.5 103t122.5 262q0 247 -174.5 292t-292.5 45h-166v46z" />
    <glyph glyph-name="Iicyrillic" unicode="&#x418;" horiz-adv-x="1335" 
d="M1151 1358h-5l-962 -1358h-50v1443h50v-1358h5l962 1358h50v-1443h-50v1358z" />
    <glyph glyph-name="Iishortcyrillic" unicode="&#x419;" horiz-adv-x="1335" 
d="M1151 1358h-5l-962 -1358h-50v1443h50v-1358h5l962 1358h50v-1443h-50v1358zM456 1770q0 -126 83 -151.5t129 -25.5q94 0 153 46.5t59 130.5h46q0 -102 -70 -159.5t-219 -57.5t-188 82t-39 135h46z" />
    <glyph glyph-name="Kacyrillic" unicode="&#x41a;" horiz-adv-x="1136" 
d="M184 723v-723h-50v1443h50v-684h4l792 684h73l-814 -699l868 -744h-76l-843 723h-4z" />
    <glyph glyph-name="Elcyrillic" unicode="&#x41b;" horiz-adv-x="1258" 
d="M76 38q187 0 211 419l60 986h777v-1443h-50v1396h-679l-57 -946q-18 -328 -105 -393.5t-160 -65.5q-24 0 -39 4.5t-17 4.5v47q9 -9 59 -9z" />
    <glyph glyph-name="Emcyrillic" unicode="&#x41c;" horiz-adv-x="1596" 
d="M1461 0h-49v1328h-4l-584 -1327h-53l-584 1327h-4v-1328h-49v1443h53l609 -1380h4l606 1380h55v-1443z" />
    <glyph glyph-name="Encyrillic" unicode="&#x41d;" horiz-adv-x="1316" 
d="M1132 0v718h-948v-718h-50v1443h50v-678h948v678h50v-1443h-50z" />
    <glyph glyph-name="Ocyrillic" unicode="&#x41e;" horiz-adv-x="1418" 
d="M282.5 215.5q159.5 -188.5 426.5 -188.5t426.5 188.5t159.5 506.5t-159.5 506t-427.5 188q-269 0 -427 -187.5t-158 -506t159.5 -507zM1173 1262q172 -201 172 -541t-172 -540.5t-464.5 -200.5t-464 200.5t-171.5 541.5t172 541t464 200t464 -201z" />
    <glyph glyph-name="Pecyrillic" unicode="&#x41f;" horiz-adv-x="1305" 
d="M1122 0v1396h-938v-1396h-50v1443h1037v-1443h-49z" />
    <glyph glyph-name="Ercyrillic" unicode="&#x420;" horiz-adv-x="1107" 
d="M184 648h394q192 0 304.5 101t112.5 274.5t-113 273t-304 99.5h-394v-748zM582 1443q212 0 337.5 -114t125.5 -307t-125.5 -307t-338.5 -114h-397v-601h-50v1443h448z" />
    <glyph glyph-name="Escyrillic" unicode="&#x421;" horiz-adv-x="1322" 
d="M199.5 237q-126.5 151 -126.5 491t169.5 537.5t459.5 197.5q216 0 378 -137.5t180 -334.5h-49q-20 179 -167 302t-342 123q-266 0 -422.5 -184t-156.5 -504t158 -510.5t421 -190.5q202 0 346 111.5t162 289.5h49q-18 -199 -175 -323.5t-398 -124.5q-128 0 -244 53
t-242.5 204z" />
    <glyph glyph-name="Tecyrillic" unicode="&#x422;" horiz-adv-x="1137" 
d="M544 0v1396h-521v47h1091v-47h-521v-1396h-49z" />
    <glyph glyph-name="Ucyrillic" unicode="&#x423;" horiz-adv-x="1114" 
d="M274 -9q-50 0 -65.5 4.5t-16.5 4.5v47q1 0 18.5 -4.5t57.5 -4.5q83 0 145.5 80t134.5 237l-517 1088h57l484 -1025h5l452 1025h54l-474 -1072q-90 -202 -137.5 -262t-97.5 -89t-100 -29z" />
    <glyph glyph-name="Efcyrillic" unicode="&#x424;" horiz-adv-x="1498" 
d="M725 149q-308 0 -485 154t-177 419t178 419t484 154v159h50v-159q305 0 483 -154.5t178 -418.5q0 -265 -177.5 -419t-483.5 -154v-160h-50v160zM1220 1105q-166 143 -445 143v-1053q279 0 445 144.5t166 383.5t-166 382zM725 1248q-280 0 -446 -143t-166 -382t166 -383.5
t446 -144.5v1053z" />
    <glyph glyph-name="Xacyrillic" unicode="&#x425;" horiz-adv-x="1210" 
d="M575 721v1l-523 721h60l493 -680h1l494 680h59l-523 -721l522 -722h-60l-492 680h-1l-495 -680h-59z" />
    <glyph glyph-name="Tsecyrillic" unicode="&#x426;" horiz-adv-x="1365" 
d="M1302 -285v285h-1168v1443h50v-1396h928v1396h50v-1396h189v-332h-49z" />
    <glyph glyph-name="Checyrillic" unicode="&#x427;" horiz-adv-x="1185" 
d="M569 588q-207 0 -335.5 126.5t-128.5 335.5v393h49v-385q0 -197 117 -310t290 -113t286 64t154 119v625h50v-1443h-50v753h-3q-165 -165 -429 -165z" />
    <glyph glyph-name="Shacyrillic" unicode="&#x428;" horiz-adv-x="1737" 
d="M134 1443h50v-1396h660v1396h49v-1396h660v1396h50v-1443h-1469v1443z" />
    <glyph glyph-name="Shchacyrillic" unicode="&#x429;" horiz-adv-x="1806" 
d="M1743 -285v285h-1609v1443h50v-1396h660v1396h49v-1396h660v1396h50v-1396h189v-332h-49z" />
    <glyph glyph-name="Hardsigncyrillic" unicode="&#x42a;" horiz-adv-x="1356" 
d="M827 47q190 0 304 101.5t114 271.5t-114 271.5t-304 101.5h-394v-746h394zM384 0v1396h-358v47h407v-603h397q213 0 338.5 -113.5t125.5 -306t-125.5 -306.5t-338.5 -114h-446z" />
    <glyph glyph-name="Yericyrillic" unicode="&#x42b;" horiz-adv-x="1462" 
d="M578 47q191 0 304 101.5t113 271.5t-114 271.5t-303 101.5h-394v-746h394zM134 1443h50v-603h397q213 0 338.5 -113.5t125.5 -306t-125.5 -306.5t-338.5 -114h-447v1443zM1278 0v1443h50v-1443h-50z" />
    <glyph glyph-name="Softsigncyrillic" unicode="&#x42c;" horiz-adv-x="1107" 
d="M578 47q191 0 304 101.5t113 271.5t-114 271.5t-303 101.5h-394v-746h394zM134 1443h50v-603h397q213 0 338.5 -113.5t125.5 -306t-125.5 -306.5t-338.5 -114h-447v1443z" />
    <glyph glyph-name="Ereversedcyrillic" unicode="&#x42d;" horiz-adv-x="1334" 
d="M654 -20q-247 0 -408.5 124.5t-183.5 323.5h51q20 -174 169.5 -287.5t356.5 -113.5q262 0 417 188.5t155 502.5h-763v47h762q-10 297 -164 474t-407 177q-195 0 -348.5 -123.5t-177.5 -301.5h-51q24 199 192 335.5t385 136.5q288 0 455 -199.5t167 -543.5t-123 -490.5
t-238.5 -198t-245.5 -51.5z" />
    <glyph glyph-name="IUcyrillic" unicode="&#x42e;" horiz-adv-x="1813" 
d="M1124 1417q-129 0 -234 -49t-178.5 -140t-113.5 -219t-40 -287t40 -287.5t113.5 -219.5t178.5 -140t234 -49t234 49.5t178.5 140t113.5 219t40 287.5t-40 287t-113.5 219t-178.5 140t-234 49zM508 718h-324v-718h-50v1443h50v-678h325q10 324 174.5 511.5t445.5 187.5
q280 0 446 -199t166 -543t-165 -543.5t-451 -199.5t-451.5 198.5t-165.5 540.5z" />
    <glyph glyph-name="IAcyrillic" unicode="&#x42f;" horiz-adv-x="1119" 
d="M201.5 1333.5q123.5 109.5 340.5 109.5h442v-1443h-49v628h-425l-422 -628h-56l425 635q-170 20 -274.5 126t-104.5 285q0 178 123.5 287.5zM935 1396h-390q-194 0 -306 -96.5t-112 -264t112 -264t306 -96.5h390v721z" />
    <glyph glyph-name="acyrillic" unicode="&#x430;" horiz-adv-x="1030" 
d="M200 68.5q-100 84.5 -100 219.5q0 273 380 304l389 30v97q0 234 -124.5 280.5t-200.5 46.5q-152 0 -244.5 -73.5t-113.5 -209.5h-47q18 153 125.5 241t279.5 88t273 -99.5t101 -270.5v-722h-49v245h-1q-40 -117 -154 -189t-264 -72t-250 84.5zM869 396v182l-381 -29
q-338 -26 -338 -263q0 -111 87.5 -183.5t230.5 -72.5q160 0 280.5 107.5t120.5 258.5z" />
    <glyph glyph-name="becyrillic" unicode="&#x431;" horiz-adv-x="1114" 
d="M989 531q0 227 -116.5 363.5t-308.5 136.5q-193 0 -309 -135.5t-116 -363.5t116 -367t309 -139t309 139t116 366zM968 1480q-88 -42 -336 -42t-357.5 -147t-137.5 -513h3q74 215 211 257t229 42t180 -38.5t183.5 -148t95.5 -358.5t-130 -400.5t-350 -151.5t-344.5 158
t-124.5 429q0 270 28 441.5t92 277t169 152t301 46.5t288 39v-43z" />
    <glyph glyph-name="vecyrillic" unicode="&#x432;" horiz-adv-x="968" 
d="M130 1076h383q149 0 237 -69t88 -190q0 -155 -82.5 -201t-130.5 -54v-3q184 -14 228 -107.5t44 -153.5q0 -148 -98.5 -223t-278.5 -75h-390v1076zM520 45q329 0 329 254q0 172 -132 203.5t-209 31.5h-329v-489h341zM179 1030v-450h328q128 0 205 64t77 169
q0 104 -72.5 160.5t-204.5 56.5h-333z" />
    <glyph glyph-name="gecyrillic" unicode="&#x433;" horiz-adv-x="851" 
d="M179 1031v-1031h-49v1076h669v-45h-620z" />
    <glyph glyph-name="decyrillic" unicode="&#x434;" horiz-adv-x="1178" 
d="M25 -285v330h83q85 58 120.5 285t58.5 746h682v-1031h179v-330h-49v285h-1026v-285h-48zM919 1031h-586q-4 -64 -22.5 -368t-51.5 -434t-82 -181v-3h742v986z" />
    <glyph glyph-name="iecyrillic" unicode="&#x435;" horiz-adv-x="1076" 
d="M204 130.5q-129 146.5 -129 402.5t128.5 407.5t336.5 151.5t334.5 -143t126.5 -375v-38h-876v-2q0 -238 115.5 -371t311.5 -133q236 0 304 106t80 163h51q-29 -141 -145 -228t-312 -87q-197 0 -326 146.5zM951 581q0 208 -112.5 336.5t-294.5 128.5q-179 0 -294.5 -128
t-123.5 -337h825z" />
    <glyph glyph-name="zhecyrillic" unicode="&#x436;" horiz-adv-x="1383" 
d="M714 539v-539h-49v539h-2l-566 -539h-70l588 559l-560 517h70l538 -498h2v498h49v-498h3l537 498h70l-559 -515l591 -561h-73l-566 539h-3z" />
    <glyph glyph-name="zecyrillic" unicode="&#x437;" horiz-adv-x="926" 
d="M199.5 60.5q-107.5 80.5 -134.5 211.5h49q41 -169 162.5 -207.5t197.5 -38.5q150 0 239 68.5t89 189.5q0 184 -132 215.5t-208 31.5h-176v45h176q141 0 222 64.5t81 170.5q0 107 -78.5 170t-210.5 63q-213 0 -272.5 -102.5t-71.5 -156.5h-49q41 209 172 257t215 48
q161 0 252.5 -74.5t91.5 -214.5t-90 -186.5t-138 -55.5v-4q179 -21 222 -112.5t43 -160.5t-27 -126.5t-102 -116.5t-245 -59t-277.5 80.5z" />
    <glyph glyph-name="iicyrillic" unicode="&#x438;" horiz-adv-x="1086" 
d="M130 0v1076h49v-997h3l725 997h49v-1076h-49v996h-3l-725 -996h-49z" />
    <glyph glyph-name="iishortcyrillic" unicode="&#x439;" horiz-adv-x="1086" 
d="M130 0v1076h49v-997h3l725 997h49v-1076h-49v996h-3l-725 -996h-49zM354 1490q0 -94 57 -145t155 -51t154.5 51t56.5 145h47q0 -112 -68.5 -174.5t-189.5 -62.5q-184 0 -221.5 90.5t-37.5 146.5h47z" />
    <glyph glyph-name="kacyrillic" unicode="&#x43a;" horiz-adv-x="924" 
d="M179 539v-539h-49v1076h49v-498h3l612 498h72l-632 -517l664 -559h-75l-641 539h-3z" />
    <glyph glyph-name="elcyrillic" unicode="&#x43b;" horiz-adv-x="1083" 
d="M21 0v47q0 -1 15 -5t50 -4t66 32t57.5 104t39.5 208q12 137 18.5 218.5t11.5 165t10 163.5t8 147h656v-1076h-49v1031h-561q-4 -64 -8 -138.5t-22 -357t-70.5 -413.5t-167.5 -131q-24 0 -38.5 4.5t-15.5 4.5z" />
    <glyph glyph-name="emcyrillic" unicode="&#x43c;" horiz-adv-x="1360" 
d="M130 0v1076h54l497 -1013h3l492 1013h54v-1076h-49v976h-3l-477 -974h-41l-478 974h-3v-976h-49z" />
    <glyph glyph-name="encyrillic" unicode="&#x43d;" horiz-adv-x="1075" 
d="M896 535h-717v-535h-49v1076h49v-496h717v496h50v-1076h-50v535z" />
    <glyph glyph-name="ocyrillic" unicode="&#x43e;" horiz-adv-x="1098" 
d="M549 31q95 0 173.5 35.5t134.5 101.5t86.5 159.5t30.5 210.5t-30.5 211t-86.5 160t-134.5 101.5t-173.5 35.5t-173.5 -35.5t-134 -101.5t-86 -160t-30.5 -211t30.5 -211t86 -159.5t134 -101t173.5 -35.5zM75 538q0 253 131 403.5t343 150.5t343 -150t131 -404
q0 -253 -130.5 -403.5t-344.5 -150.5t-343.5 150.5t-129.5 403.5z" />
    <glyph glyph-name="pecyrillic" unicode="&#x43f;" horiz-adv-x="1065" 
d="M886 1031h-707v-1031h-49v1076h806v-1076h-50v1031z" />
    <glyph glyph-name="ercyrillic" unicode="&#x440;" horiz-adv-x="1126" 
d="M1002 537q0 226 -113 367.5t-295 141.5t-298.5 -141.5t-116.5 -366.5t116.5 -366t298.5 -141q181 0 294.5 140t113.5 366zM607 1092q90 0 173.5 -40.5t143.5 -113.5t93.5 -175t33.5 -287t-126.5 -338.5t-327.5 -153.5q-156 0 -269.5 95t-146.5 236h-2v-655h-49v1416h46
v-321h2q33 143 148 240t281 97z" />
    <glyph glyph-name="escyrillic" unicode="&#x441;" horiz-adv-x="1025" 
d="M521 1046q-83 0 -160.5 -36t-132 -102t-84 -160t-29.5 -269t113 -311.5t314 -136.5t270.5 95t86.5 150h51q-35 -133 -146.5 -212.5t-268.5 -79.5q-216 0 -342.5 150t-126.5 404q0 255 127 404.5t341 149.5q159 0 273.5 -87.5t146.5 -223.5h-51q-32 117 -131 191t-251 74z
" />
    <glyph glyph-name="tecyrillic" unicode="&#x442;" horiz-adv-x="937" 
d="M897 1031h-404v-1031h-49v1031h-404v45h857v-45z" />
    <glyph glyph-name="ucyrillic" unicode="&#x443;" horiz-adv-x="927" 
d="M206 -296q67 0 113 47t89 158l28 72l-415 1095h54l387 -1029h2l388 1029h54l-417 -1101q-74 -195 -130.5 -256.5t-161.5 -61.5q-24 0 -47 9v47q24 -9 56 -9z" />
    <glyph glyph-name="efcyrillic" unicode="&#x444;" horiz-adv-x="1364" 
d="M232.5 933.5q157.5 147.5 425.5 155.5v383h49v-383q266 -8 424 -154.5t158 -399t-157.5 -400t-424.5 -155.5v-373h-49v373q-267 8 -425 154.5t-158 399t157.5 400zM1093 901.5q-146 135.5 -386 141.5v-1017q242 8 387 143.5t145 366t-146 366zM269 169q145 -135 389 -143
v1017q-242 -6 -388 -142.5t-146 -366.5t145 -365z" />
    <glyph glyph-name="hacyrillic" unicode="&#x445;" horiz-adv-x="889" 
d="M443 506l-370 -506h-61l403 548l-402 528h62l369 -489h2l369 489h62l-402 -527l401 -549h-60l-370 506h-3z" />
    <glyph glyph-name="tsecyrillic" unicode="&#x446;" horiz-adv-x="1145" 
d="M1066 -285v285h-936v1076h49v-1031h707v1031h49v-1031h179v-330h-48z" />
    <glyph glyph-name="checyrillic" unicode="&#x447;" horiz-adv-x="990" 
d="M811 0v558h-2q-53 -67 -139 -106.5t-184 -39.5q-184 0 -285 106t-101 280v278h49v-265q0 -163 87.5 -258t246.5 -95t232 68.5t96 106.5v443h49v-1076h-49z" />
    <glyph glyph-name="shacyrillic" unicode="&#x448;" horiz-adv-x="1562" 
d="M130 1076h49v-1031h577v1031h50v-1031h577v1031h49v-1076h-1302v1076z" />
    <glyph glyph-name="shchacyrillic" unicode="&#x449;" horiz-adv-x="1642" 
d="M1563 -285v285h-1433v1076h49v-1031h577v1031h50v-1031h577v1031h49v-1031h180v-330h-49z" />
    <glyph glyph-name="hardsigncyrillic" unicode="&#x44a;" horiz-adv-x="1105" 
d="M379 622v-577h295q142 0 226.5 79t84.5 210t-84.5 209.5t-226.5 78.5h-295zM330 0v1031h-290v45h339v-408h295q165 0 263 -90.5t98 -243.5t-98 -243.5t-263 -90.5h-344z" />
    <glyph glyph-name="yericyrillic" unicode="&#x44b;" horiz-adv-x="1223" 
d="M130 1076h49v-408h295q164 0 262.5 -91t98.5 -243t-98.5 -243t-262.5 -91h-344v1076zM179 622v-577h295q142 0 226.5 79t84.5 210t-84.5 209.5t-226.5 78.5h-295zM1044 1076h49v-1076h-49v1076z" />
    <glyph glyph-name="softsigncyrillic" unicode="&#x44c;" horiz-adv-x="905" 
d="M130 1076h49v-408h295q164 0 262.5 -91t98.5 -243t-98.5 -243t-262.5 -91h-344v1076zM179 622v-577h295q142 0 226.5 79t84.5 210t-84.5 209.5t-226.5 78.5h-295z" />
    <glyph glyph-name="ereversedcyrillic" unicode="&#x44d;" horiz-adv-x="1037" 
d="M912 535h-595v45h594q-10 215 -120 340.5t-293 125.5q-138 0 -240 -73.5t-134 -191.5h-50q33 138 150.5 224.5t273.5 86.5q214 0 339 -150t125 -405t-124 -404t-340 -149q-159 0 -272.5 80t-147.5 212h51q32 -109 132.5 -177t250.5 -68q82 0 159 35.5t159 136t82 332.5z
" />
    <glyph glyph-name="iucyrillic" unicode="&#x44e;" horiz-adv-x="1480" 
d="M1355 534q0 232 -113.5 370.5t-301.5 138.5t-301 -139t-113 -370.5t113 -369.5t300.5 -138t301.5 138t114 370zM179 535v-535h-49v1076h49v-496h299q12 235 137 372.5t330 137.5q206 0 333 -150t127 -405.5t-126.5 -405t-338 -149.5t-337 149t-127.5 406h-297z" />
    <glyph glyph-name="iacyrillic" unicode="&#x44f;" horiz-adv-x="935" 
d="M756 448h-297l-339 -448h-61l342 451q-226 19 -272 131t-46 182q0 142 97 227t263 85h363v-1076h-50v448zM756 494v537h-313q-143 0 -227 -74t-84 -195.5t85.5 -194.5t225.5 -73h313z" />
    <glyph glyph-name="iocyrillic" unicode="&#x451;" horiz-adv-x="1076" 
d="M682 1254q-22 0 -38 16t-16 38t16 37.5t38 15.5t38.5 -15.5t16.5 -37.5t-16.5 -38t-38.5 -16zM404 1254q-22 0 -38.5 16t-16.5 38t16.5 37.5t38.5 15.5t38 -15.5t16 -37.5t-16 -38t-38 -16zM204 130.5q-129 146.5 -129 402.5t128.5 407.5t336.5 151.5t334.5 -143
t126.5 -375v-38h-876v-2q0 -238 115.5 -371t311.5 -133q236 0 304 106t80 163h51q-29 -141 -145 -228t-312 -87q-197 0 -326 146.5zM951 581q0 208 -112.5 336.5t-294.5 128.5q-179 0 -294.5 -128t-123.5 -337h825z" />
    <glyph glyph-name="djecyrillic" unicode="&#x452;" horiz-adv-x="1133" 
d="M1010 -80q0 -206 -99.5 -234t-163.5 -28h-29v45h27q112 0 164 50t52 163v778q0 158 -101 255t-258 97t-265.5 -112.5t-108.5 -291.5v-642h-50v1280h-148v44h148v186h50v-186h297v-44h-297v-449h4q38 120 140.5 190.5t238.5 70.5q177 0 288 -105.5t111 -282.5v-784z" />
    <glyph glyph-name="gjecyrillic" unicode="&#x453;" horiz-adv-x="851" 
d="M179 1031v-1031h-49v1076h669v-45h-620zM404 1254l236 303h63l-246 -303h-53z" />
    <glyph glyph-name="ecyrillic" unicode="&#x454;" horiz-adv-x="1056" 
d="M178 172.5q-94 111.5 -94 365.5q0 255 127 404.5t342 149.5q155 0 270.5 -86t148.5 -225h-50q-32 117 -131 191t-238 74q-184 0 -296 -126.5t-122 -339.5h594v-45h-595q0 -230 113 -367t313 -137t270.5 95t87.5 150h51q-35 -132 -147 -212t-284 -80q-94 0 -180 38.5
t-180 150z" />
    <glyph glyph-name="dzecyrillic" unicode="&#x455;" horiz-adv-x="925" 
d="M468 1046q-134 0 -225.5 -67t-91.5 -170q0 -124 89 -160.5t150 -50.5l167 -40q237 -59 269.5 -141.5t32.5 -142.5q0 -127 -110 -208.5t-280 -81.5t-282.5 93t-120.5 227h50q10 -115 108.5 -194.5t243.5 -79.5q144 0 242.5 69t98.5 177q0 135 -97.5 177.5t-169.5 59.5
l-169 39q-135 32 -203 92t-68 174t105.5 194t261.5 80t257.5 -88t115.5 -240h-48q-23 198 -140.5 240t-185.5 42z" />
    <glyph glyph-name="icyrillic" unicode="&#x456;" horiz-adv-x="355" 
d="M178 1366q-20 0 -34.5 14t-14.5 34t14.5 34t34.5 14t34 -14t14 -34t-14 -34t-34 -14zM153 1076h49v-1076h-49v1076z" />
    <glyph glyph-name="yicyrillic" unicode="&#x457;" horiz-adv-x="329" 
d="M304 1254q-22 0 -38 16t-16 38t16 37.5t38 15.5t38.5 -15.5t16.5 -37.5t-16.5 -38t-38.5 -16zM26 1254q-22 0 -38.5 16t-16.5 38t16.5 37.5t38.5 15.5t38 -15.5t16 -37.5t-16 -38t-38 -16zM140 1076h49v-1076h-49v1076z" />
    <glyph glyph-name="jecyrillic" unicode="&#x458;" horiz-adv-x="330" 
d="M165 1366q-20 0 -34.5 14t-14.5 34t14.5 34t34.5 14t34 -14t14 -34t-14 -34t-34 -14zM189 -80q0 -206 -99.5 -234t-163.5 -28h-29v45h27q112 0 164 50t52 163v1160h49v-1156z" />
    <glyph glyph-name="ljecyrillic" unicode="&#x459;" horiz-adv-x="1678" 
d="M953 622v-577h295q142 0 226.5 79t84.5 210t-84.5 209.5t-226.5 78.5h-295zM21 0v47q0 -1 15 -5t50 -4t66 32t57.5 104t39.5 208q12 137 18.5 218.5t11.5 165t10 163.5t8 147h656v-408h295q166 0 263 -91t97 -243t-97 -243t-263 -91h-344v1031h-561q-4 -64 -8 -138.5
t-22 -357t-70.5 -413.5t-167.5 -131q-24 0 -38.5 4.5t-15.5 4.5z" />
    <glyph glyph-name="njecyrillic" unicode="&#x45a;" horiz-adv-x="1651" 
d="M876 560h-697v-560h-49v1076h49v-471h697v471h50v-469h295q167 0 263.5 -82t96.5 -221t-97.5 -221.5t-262.5 -82.5h-345v560zM926 562v-517h295q141 0 226 70t85 189t-85 188.5t-226 69.5h-295z" />
    <glyph glyph-name="tshecyrillic" unicode="&#x45b;" horiz-adv-x="1133" 
d="M899 986.5q111 -105.5 111 -282.5v-704h-49v694q0 158 -101 255t-258 97t-265.5 -112.5t-108.5 -291.5v-642h-50v1280h-148v44h148v186h50v-186h297v-44h-297v-449h4q38 120 140.5 190.5t259.5 70.5q156 0 267 -105.5z" />
    <glyph glyph-name="kjecyrillic" unicode="&#x45c;" horiz-adv-x="924" 
d="M179 539v-539h-49v1076h49v-498h3l612 498h72l-632 -517l664 -559h-75l-641 539h-3zM471 1254h-53l236 303h63z" />
    <glyph glyph-name="ushortcyrillic" unicode="&#x45e;" horiz-adv-x="927" 
d="M206 -296q67 0 113 47t89 158l28 72l-415 1095h54l387 -1029h2l388 1029h54l-417 -1101q-74 -195 -130.5 -256.5t-161.5 -61.5q-24 0 -47 9v47q24 -9 56 -9zM273 1490q0 -94 56.5 -145t154.5 -51t155 51t57 145h47q0 -112 -68.5 -174.5t-189.5 -62.5q-184 0 -221.5 90.5
t-37.5 146.5h47z" />
    <glyph glyph-name="dzhecyrillic" unicode="&#x45f;" horiz-adv-x="1065" 
d="M557 0v-285h-49v285h-378v1076h49v-1031h707v1031h50v-1076h-379z" />
    <glyph glyph-name="Geupturncyrillic" unicode="&#x490;" horiz-adv-x="1011" 
d="M184 0h-50v1443h766v250h49v-297h-765v-1396z" />
    <glyph glyph-name="geupturncyrillic" unicode="&#x491;" horiz-adv-x="851" 
d="M179 1031v-1031h-49v1076h621v250h48v-295h-620z" />
    <glyph glyph-name="baht" unicode="&#xe3f;" horiz-adv-x="1179" 
d="M935 101.5q-129 -101.5 -371 -101.5h-35v-176h-44v176h-370v1443h370v153h44v-153h24q201 0 317.5 -93.5t116.5 -242.5t-77.5 -234.5t-217.5 -110.5v-5q164 -12 268 -113t104 -271t-129 -271.5zM529 1397v-618h14q178 0 286 82t108 227t-105 227t-281 82h-22zM165 779
h320v618h-320v-618zM485 46v687h-320v-687h320zM562 46q330 0 391 130t61 212q0 161 -124.5 253t-343.5 92h-17v-687h33z" />
    <glyph glyph-name="Aringbelow" unicode="&#x1e00;" horiz-adv-x="1201" 
d="M689.5 -397.5q36.5 36.5 36.5 76.5t-9.5 63t-26.5 40.5t-40 27.5t-63 10t-77 -37t-37 -77t9.5 -63t37.5 -50t80.5 -27t89 36.5zM600 -473q-34 0 -64 13t-52.5 35.5t-35.5 53t-13 64.5t13 64t35.5 52.5t52.5 35.5t64 13t63.5 -13t52 -35.5t35.5 -52.5t13 -64t-13 -64.5
t-35.5 -53t-52 -35.5t-63.5 -13zM283 547h635l-315 827h-5zM936 501h-671l-190 -501h-55l555 1443h51l555 -1443h-56z" />
    <glyph glyph-name="aringbelow" unicode="&#x1e01;" horiz-adv-x="1021" 
d="M608.5 -397.5q36.5 36.5 36.5 76.5t-9.5 63t-26.5 40.5t-40 27.5t-63 10t-77 -37t-37 -77t9.5 -63t37.5 -50t80.5 -27t89 36.5zM519 -473q-34 0 -64 13t-52.5 35.5t-35.5 53t-13 64.5t13 64t35.5 52.5t52.5 35.5t64 13t63.5 -13t52 -35.5t35.5 -52.5t13 -64t-13 -64.5
t-35.5 -53t-52 -35.5t-63.5 -13zM190 68.5q-100 84.5 -100 219.5q0 273 380 304l389 30v97q0 234 -124.5 280.5t-200.5 46.5q-152 0 -244.5 -73.5t-113.5 -209.5h-47q18 153 125.5 241t279.5 88t273 -99.5t101 -270.5v-722h-49v245h-1q-40 -117 -154 -189t-264 -72
t-250 84.5zM859 396v182l-381 -29q-338 -26 -338 -263q0 -111 87.5 -183.5t230.5 -72.5q160 0 280.5 107.5t120.5 258.5z" />
    <glyph glyph-name="Bdotaccent" unicode="&#x1e02;" horiz-adv-x="1139" 
d="M600 46q204 0 321 90t117 245t-122.5 246.5t-337.5 91.5h-404v-673h426zM174 765h401q175 0 280 89.5t105 232.5q0 144 -104 227t-272 83h-410v-632zM124 0v1443h464q188 0 305 -96t117 -253q0 -203 -112.5 -267.5t-180.5 -77.5v-4q161 -17 265.5 -114t104.5 -261
t-129.5 -267t-355.5 -103h-478zM503 1556q-26 0 -45 19t-19 45t19 44.5t45 18.5t45 -18.5t19 -44.5t-19 -45t-45 -19z" />
    <glyph glyph-name="bdotaccent" unicode="&#x1e03;" horiz-adv-x="1116" 
d="M296 902.5q-117 -143.5 -117 -366t116.5 -364t298 -141.5t295 140.5t113.5 366.5t-113.5 367t-294.5 141t-298 -143.5zM612 -16q-165 0 -279.5 92.5t-151.5 242.5h-2v-319h-49v1506h49v-745h2q38 150 151.5 240.5t266.5 90.5q199 0 325.5 -153t126.5 -400.5t-93 -360.5
t-176 -153.5t-170 -40.5zM155 1619q-26 0 -45 19t-19 45t19 44.5t45 18.5t45 -18.5t19 -44.5t-19 -45t-45 -19z" />
    <glyph glyph-name="Bdotbelow" unicode="&#x1e04;" horiz-adv-x="1139" 
d="M600 46q204 0 321 90t117 245t-122.5 246.5t-337.5 91.5h-404v-673h426zM174 765h401q175 0 280 89.5t105 232.5q0 144 -104 227t-272 83h-410v-632zM124 0v1443h464q188 0 305 -96t117 -253q0 -203 -112.5 -267.5t-180.5 -77.5v-4q161 -17 265.5 -114t104.5 -261
t-129.5 -267t-355.5 -103h-478zM503 -268q-26 0 -45 19t-19 45t19 44.5t45 18.5t45 -18.5t19 -44.5t-19 -45t-45 -19z" />
    <glyph glyph-name="bdotbelow" unicode="&#x1e05;" horiz-adv-x="1116" 
d="M296 902.5q-117 -143.5 -117 -366t116.5 -364t298 -141.5t295 140.5t113.5 366.5t-113.5 367t-294.5 141t-298 -143.5zM612 -16q-165 0 -279.5 92.5t-151.5 242.5h-2v-319h-49v1506h49v-745h2q38 150 151.5 240.5t266.5 90.5q199 0 325.5 -153t126.5 -400.5t-93 -360.5
t-176 -153.5t-170 -40.5zM595 -268q-26 0 -45 19t-19 45t19 44.5t45 18.5t45 -18.5t19 -44.5t-19 -45t-45 -19z" />
    <glyph glyph-name="Blinebelow" unicode="&#x1e06;" horiz-adv-x="1139" 
d="M785 -244h-564v43h564v-43zM600 46q204 0 321 90t117 245t-122.5 246.5t-337.5 91.5h-404v-673h426zM174 765h401q175 0 280 89.5t105 232.5q0 144 -104 227t-272 83h-410v-632zM124 0v1443h464q188 0 305 -96t117 -253q0 -203 -112.5 -267.5t-180.5 -77.5v-4
q161 -17 265.5 -114t104.5 -261t-129.5 -267t-355.5 -103h-478z" />
    <glyph glyph-name="blinebelow" unicode="&#x1e07;" horiz-adv-x="1116" 
d="M296 902.5q-117 -143.5 -117 -366t116.5 -364t298 -141.5t295 140.5t113.5 366.5t-113.5 367t-294.5 141t-298 -143.5zM612 -16q-165 0 -279.5 92.5t-151.5 242.5h-2v-319h-49v1506h49v-745h2q38 150 151.5 240.5t266.5 90.5q199 0 325.5 -153t126.5 -400.5t-93 -360.5
t-176 -153.5t-170 -40.5zM877 -244h-564v43h564v-43z" />
    <glyph glyph-name="Ccedillaacute" unicode="&#x1e08;" horiz-adv-x="1303" 
d="M767.5 -383q49.5 36 49.5 89t-42.5 82.5t-121.5 29.5h-50v33l58 130q-275 12 -436.5 214t-161.5 538t169.5 533t459.5 197q216 0 378 -141t180 -343h-49q-20 184 -167 310.5t-342 126.5q-266 0 -422.5 -184t-156.5 -504t158 -510.5t421 -190.5q201 0 346 114.5t163 298.5
h49q-18 -198 -169 -326t-373 -134l-51 -120q94 0 150 -41.5t56 -114.5t-60.5 -119.5t-147.5 -46.5t-130 17v43q47 -17 120 -17t122.5 36zM711 1554h-56l293 287h66z" />
    <glyph glyph-name="ccedillaacute" unicode="&#x1e09;" horiz-adv-x="1019" 
d="M608.5 -383q49.5 36 49.5 89t-42.5 82.5t-121.5 29.5h-50v33l60 134q-203 10 -321 158.5t-118 398.5t127 400t342 150q164 0 281 -94t143 -238h-50q-26 126 -128.5 206t-245.5 80q-193 0 -306 -137t-113 -371t113 -370.5t306 -136.5q145 0 246.5 76.5t125.5 199.5h50
q-24 -139 -134 -228t-272 -95l-52 -124q94 0 150 -41.5t56 -114.5t-60.5 -119.5t-147.5 -46.5t-130 17v43q47 -17 120 -17t122.5 36zM539 1254h-53l236 303h63z" />
    <glyph glyph-name="Ddotaccent" unicode="&#x1e0a;" horiz-adv-x="1313" 
d="M175 47h384q309 0 475 175.5t166 499t-166 499t-475 175.5h-384v-1349zM560 1443q330 0 510 -187.5t180 -533.5q0 -345 -180 -533.5t-510 -188.5h-436v1443h436zM553 1556q-26 0 -45 19t-19 45t19 44.5t45 18.5t45 -18.5t19 -44.5t-19 -45t-45 -19z" />
    <glyph glyph-name="ddotaccent" unicode="&#x1e0b;" horiz-adv-x="1126" 
d="M230 172.5q115 -141.5 298 -141.5q182 0 300 141t118 366t-118.5 366.5t-300.5 141.5t-297 -140.5t-115 -366t115 -367zM193 937.5q128 154.5 331 154.5q155 0 271 -95t149 -236h2v745h50v-1506h-46v322h-2q-35 -146 -150.5 -242t-283.5 -96q-90 0 -174.5 40.5
t-179.5 154t-95 359t128 400zM971 1619q-26 0 -45 19t-19 45t19 44.5t45 18.5t45 -18.5t19 -44.5t-19 -45t-45 -19z" />
    <glyph glyph-name="Ddotbelow" unicode="&#x1e0c;" horiz-adv-x="1313" 
d="M175 47h384q309 0 475 175.5t166 499t-166 499t-475 175.5h-384v-1349zM560 1443q330 0 510 -187.5t180 -533.5q0 -345 -180 -533.5t-510 -188.5h-436v1443h436zM553 -268q-26 0 -45 19t-19 45t19 44.5t45 18.5t45 -18.5t19 -44.5t-19 -45t-45 -19z" />
    <glyph glyph-name="ddotbelow" unicode="&#x1e0d;" horiz-adv-x="1126" 
d="M230 172.5q115 -141.5 298 -141.5q182 0 300 141t118 366t-118.5 366.5t-300.5 141.5t-297 -140.5t-115 -366t115 -367zM193 937.5q128 154.5 331 154.5q155 0 271 -95t149 -236h2v745h50v-1506h-46v322h-2q-35 -146 -150.5 -242t-283.5 -96q-90 0 -174.5 40.5
t-179.5 154t-95 359t128 400zM552 -268q-26 0 -45 19t-19 45t19 44.5t45 18.5t45 -18.5t19 -44.5t-19 -45t-45 -19z" />
    <glyph glyph-name="Dlinebelow" unicode="&#x1e0e;" horiz-adv-x="1313" 
d="M175 47h384q309 0 475 175.5t166 499t-166 499t-475 175.5h-384v-1349zM560 1443q330 0 510 -187.5t180 -533.5q0 -345 -180 -533.5t-510 -188.5h-436v1443h436zM835 -244h-564v43h564v-43z" />
    <glyph glyph-name="dlinebelow" unicode="&#x1e0f;" horiz-adv-x="1126" 
d="M230 172.5q115 -141.5 298 -141.5q182 0 300 141t118 366t-118.5 366.5t-300.5 141.5t-297 -140.5t-115 -366t115 -367zM193 937.5q128 154.5 331 154.5q155 0 271 -95t149 -236h2v745h50v-1506h-46v322h-2q-35 -146 -150.5 -242t-283.5 -96q-90 0 -174.5 40.5
t-179.5 154t-95 359t128 400zM834 -244h-564v43h564v-43z" />
    <glyph glyph-name="Dcommaaccent" unicode="&#x1e10;" horiz-adv-x="1313" 
d="M175 47h384q309 0 475 175.5t166 499t-166 499t-475 175.5h-384v-1349zM560 1443q330 0 510 -187.5t180 -533.5q0 -345 -180 -533.5t-510 -188.5h-436v1443h436zM438 -480l102 338h57l-113 -338h-46z" />
    <glyph glyph-name="dcommaaccent" unicode="&#x1e11;" horiz-adv-x="1126" 
d="M230 172.5q115 -141.5 298 -141.5q182 0 300 141t118 366t-118.5 366.5t-300.5 141.5t-297 -140.5t-115 -366t115 -367zM193 937.5q128 154.5 331 154.5q155 0 271 -95t149 -236h2v745h50v-1506h-46v322h-2q-35 -146 -150.5 -242t-283.5 -96q-90 0 -174.5 40.5
t-179.5 154t-95 359t128 400zM437 -480l102 338h57l-113 -338h-46z" />
    <glyph glyph-name="Dcircumflexbelow" unicode="&#x1e12;" horiz-adv-x="1313" 
d="M576 -141l266 -287h-59l-229 249h-2l-229 -249h-59l266 287h46zM175 47h384q309 0 475 175.5t166 499t-166 499t-475 175.5h-384v-1349zM560 1443q330 0 510 -187.5t180 -533.5q0 -345 -180 -533.5t-510 -188.5h-436v1443h436z" />
    <glyph glyph-name="dcircumflexbelow" unicode="&#x1e13;" horiz-adv-x="1126" 
d="M575 -141l266 -287h-59l-229 249h-2l-229 -249h-59l266 287h46zM230 172.5q115 -141.5 298 -141.5q182 0 300 141t118 366t-118.5 366.5t-300.5 141.5t-297 -140.5t-115 -366t115 -367zM193 937.5q128 154.5 331 154.5q155 0 271 -95t149 -236h2v745h50v-1506h-46v322h-2
q-35 -146 -150.5 -242t-283.5 -96q-90 0 -174.5 40.5t-179.5 154t-95 359t128 400z" />
    <glyph glyph-name="Emacrongrave" unicode="&#x1e14;" horiz-adv-x="1050" 
d="M950 0h-826v1443h826v-47h-776v-632h740v-46h-740v-671h776v-47zM525 1755l-221 202h63l214 -202h-56zM255 1659h564v-43h-564v43z" />
    <glyph glyph-name="emacrongrave" unicode="&#x1e15;" horiz-adv-x="1056" 
d="M818 1305h-584v43h584v-43zM533 1506l-257 307h59l250 -307h-52zM194 130.5q-129 146.5 -129 402.5t128.5 407.5t336.5 151.5t334.5 -143t126.5 -375v-38h-876v-2q0 -238 115.5 -371t311.5 -133q236 0 304 106t80 163h51q-29 -141 -145 -228t-312 -87q-197 0 -326 146.5z
M239 918q-115 -128 -123 -337h825q0 208 -113 336.5t-293 128.5q-181 0 -296 -128z" />
    <glyph glyph-name="Emacronacute" unicode="&#x1e16;" horiz-adv-x="1050" 
d="M950 0h-826v1443h826v-47h-776v-632h740v-46h-740v-671h776v-47zM707 1957h63l-221 -202h-56zM255 1616v43h564v-43h-564z" />
    <glyph glyph-name="emacronacute" unicode="&#x1e17;" horiz-adv-x="1056" 
d="M818 1305h-584v43h584v-43zM731 1813h59l-257 -307h-52zM194 130.5q-129 146.5 -129 402.5t128.5 407.5t336.5 151.5t334.5 -143t126.5 -375v-38h-876v-2q0 -238 115.5 -371t311.5 -133q236 0 304 106t80 163h51q-29 -141 -145 -228t-312 -87q-197 0 -326 146.5zM239 918
q-115 -128 -123 -337h825q0 208 -113 336.5t-293 128.5q-181 0 -296 -128z" />
    <glyph glyph-name="Ecircumflexbelow" unicode="&#x1e18;" horiz-adv-x="1050" 
d="M560 -141l266 -287h-59l-229 249h-2l-229 -249h-59l266 287h46zM950 0h-826v1443h826v-47h-776v-632h740v-46h-740v-671h776v-47z" />
    <glyph glyph-name="ecircumflexbelow" unicode="&#x1e19;" horiz-adv-x="1056" 
d="M564 -141l266 -287h-59l-229 249h-2l-229 -249h-59l266 287h46zM194 130.5q-129 146.5 -129 402.5t128.5 407.5t336.5 151.5t334.5 -143t126.5 -375v-38h-876v-2q0 -238 115.5 -371t311.5 -133q236 0 304 106t80 163h51q-29 -141 -145 -228t-312 -87q-197 0 -326 146.5z
M239 918q-115 -128 -123 -337h825q0 208 -113 336.5t-293 128.5q-181 0 -296 -128z" />
    <glyph glyph-name="Etildebelow" unicode="&#x1e1a;" horiz-adv-x="1050" 
d="M950 0h-826v1443h826v-47h-776v-632h740v-46h-740v-671h776v-47zM771 -150h45q0 -142 -53 -172t-87 -30t-60 12.5t-48 31t-41 40.5t-51.5 53t-75.5 31q-97 0 -97 -158h-45q0 143 53 172t87 29t60 -12.5t48 -31t41 -40t51.5 -52.5t75.5 -31q97 0 97 158z" />
    <glyph glyph-name="etildebelow" unicode="&#x1e1b;" horiz-adv-x="1056" 
d="M194 130.5q-129 146.5 -129 402.5t128.5 407.5t336.5 151.5t334.5 -143t126.5 -375v-38h-876v-2q0 -238 115.5 -371t311.5 -133q236 0 304 106t80 163h51q-29 -141 -145 -228t-312 -87q-197 0 -326 146.5zM239 918q-115 -128 -123 -337h825q0 208 -113 336.5t-293 128.5
q-181 0 -296 -128zM678 -308q97 0 97 158h45q0 -142 -53 -172t-87 -30t-60 12.5t-48 31t-41 40.5t-51.5 53t-75.5 31q-97 0 -97 -158h-45q0 143 53 172t87 29t60 -12.5t48 -31t41 -40t51.5 -52.5t75.5 -31z" />
    <glyph glyph-name="Ecedillabreve" unicode="&#x1e1c;" horiz-adv-x="1050" 
d="M611.5 -383q49.5 36 49.5 89t-42.5 82.5t-121.5 29.5h-50v33l66 149h-389v1443h826v-47h-776v-632h740v-46h-740v-671h776v-47h-390l-59 -140q94 0 150 -41.5t56 -114.5t-60.5 -119.5t-147.5 -46.5t-130 17v43q47 -17 120 -17t122.5 36zM794 1771q0 -100 -72 -158.5
t-185 -58.5t-185 58.5t-72 158.5h45q0 -76 59 -125.5t153 -49.5t153 49.5t59 125.5h45z" />
    <glyph glyph-name="ecedillabreve" unicode="&#x1e1d;" horiz-adv-x="1056" 
d="M615.5 -383q49.5 36 49.5 89t-42.5 82.5t-121.5 29.5h-50v33l60 134q-207 10 -326.5 156.5t-119.5 397.5q0 250 128.5 401.5t336.5 151.5t334.5 -143t126.5 -375v-38h-876v-2q0 -238 115.5 -371t311.5 -133q236 0 304 106t80 163h51q-27 -137 -139 -224t-281 -91
l-52 -124q94 0 150 -41.5t56 -114.5t-60.5 -119.5t-147.5 -46.5t-130 17v43q47 -17 120 -17t122.5 36zM941 581q0 208 -113 336.5t-293 128.5t-295.5 -128t-123.5 -337h825zM791 1490q0 -112 -72 -174.5t-186 -62.5q-179 0 -218.5 90t-39.5 147h45q0 -89 58 -141.5
t181.5 -52.5t155 75t31.5 119h45z" />
    <glyph glyph-name="Fdotaccent" unicode="&#x1e1e;" horiz-adv-x="1020" 
d="M124 0v1443h817v-47h-767v-634h706v-47h-706v-715h-50zM532 1556q-26 0 -45 19t-19 45t19 44.5t45 18.5t45 -18.5t19 -44.5t-19 -45t-45 -19z" />
    <glyph glyph-name="fdotaccent" unicode="&#x1e1f;" horiz-adv-x="509" 
d="M393 1485q50 0 74 -10v-46q-29 10 -71 10q-87 0 -131.5 -47.5t-44.5 -153.5v-162h237v-45h-237v-1031h-50v1031h-150v45h150v169q0 240 223 240zM305 1583q-26 0 -45 19t-19 45t19 44.5t45 18.5t45 -18.5t19 -44.5t-19 -45t-45 -19z" />
    <glyph glyph-name="Gmacron" unicode="&#x1e20;" horiz-adv-x="1332" 
d="M967 1616h-564v43h564v-43zM1259 564q0 -272 -154 -428t-425 -156t-444 209t-173 541t171.5 532.5t450.5 200.5q212 0 368 -117.5t196 -309.5h-49q-42 172 -182.5 276t-332.5 104q-258 0 -415 -188t-157 -500q0 -311 158.5 -506t407.5 -195q250 0 390.5 142.5
t140.5 392.5v100h-531v46h580v-144z" />
    <glyph glyph-name="gmacron" unicode="&#x1e21;" horiz-adv-x="1106" 
d="M265.5 -290.5q-110.5 63.5 -134.5 169.5h53q32 -129 159.5 -158t207.5 -29q168 0 277 82t109 224v318h-2q-33 -141 -146.5 -236t-269.5 -95q-201 0 -327.5 153t-126.5 400t126.5 400.5t327.5 153.5q156 0 270 -95.5t149 -241.5h2v321h46v-1076q0 -165 -122.5 -259.5
t-304.5 -94.5q-183 0 -293.5 63.5zM937 538q0 225 -116.5 366.5t-298.5 141.5t-294.5 -141t-112.5 -367.5t113 -366.5t294 -140q183 0 299 141t116 366zM844 1305h-584v43h584v-43z" />
    <glyph glyph-name="Hdotaccent" unicode="&#x1e22;" horiz-adv-x="1296" 
d="M648 1556q-26 0 -45 19t-19 45t19 44.5t45 18.5t45 -18.5t19 -44.5t-19 -45t-45 -19zM1122 0v718h-948v-718h-50v1443h50v-678h948v678h50v-1443h-50z" />
    <glyph glyph-name="hdotaccent" unicode="&#x1e23;" horiz-adv-x="1075" 
d="M155 1619q-26 0 -45 19t-19 45t19 44.5t45 18.5t45 -18.5t19 -44.5t-19 -45t-45 -19zM130 1506h49v-684h2q34 120 139.5 195t243.5 75q178 0 288 -108.5t110 -288.5v-695h-50v693q0 162 -97.5 257.5t-259.5 95.5t-269 -112t-107 -289v-645h-49v1506z" />
    <glyph glyph-name="Hdotbelow" unicode="&#x1e24;" horiz-adv-x="1296" 
d="M648 -268q-26 0 -45 19t-19 45t19 44.5t45 18.5t45 -18.5t19 -44.5t-19 -45t-45 -19zM1122 0v718h-948v-718h-50v1443h50v-678h948v678h50v-1443h-50z" />
    <glyph glyph-name="hdotbelow" unicode="&#x1e25;" horiz-adv-x="1075" 
d="M544 -268q-26 0 -45 19t-19 45t19 44.5t45 18.5t45 -18.5t19 -44.5t-19 -45t-45 -19zM130 1506h49v-684h2q34 120 139.5 195t243.5 75q178 0 288 -108.5t110 -288.5v-695h-50v693q0 162 -97.5 257.5t-259.5 95.5t-269 -112t-107 -289v-645h-49v1506z" />
    <glyph glyph-name="Hdieresis" unicode="&#x1e26;" horiz-adv-x="1296" 
d="M788 1556q-22 0 -38.5 16t-16.5 38t16.5 37.5t38.5 15.5t38 -15.5t16 -37.5t-16 -38t-38 -16zM508 1556q-22 0 -38 16t-16 38t16 37.5t38 15.5t38.5 -15.5t16.5 -37.5t-16.5 -38t-38.5 -16zM1122 0v718h-948v-718h-50v1443h50v-678h948v678h50v-1443h-50z" />
    <glyph glyph-name="hdieresis" unicode="&#x1e27;" horiz-adv-x="1075" 
d="M294 1619q-22 0 -38 16t-16 38t16 37.5t38 15.5t38.5 -15.5t16.5 -37.5t-16.5 -38t-38.5 -16zM16 1619q-22 0 -38.5 16t-16.5 38t16.5 37.5t38.5 15.5t38 -15.5t16 -37.5t-16 -38t-38 -16zM130 1506h49v-684h2q34 120 139.5 195t243.5 75q178 0 288 -108.5t110 -288.5
v-695h-50v693q0 162 -97.5 257.5t-259.5 95.5t-269 -112t-107 -289v-645h-49v1506z" />
    <glyph glyph-name="Hcedilla" unicode="&#x1e28;" horiz-adv-x="1296" 
d="M223.5 -383q49.5 36 49.5 89t-42.5 82.5t-121.5 29.5h-50v33l66 149h-1v1443h50v-678h948v678h50v-1443h-50v718h-948v-718h-2l-59 -140q94 0 150 -41.5t56 -114.5t-60.5 -119.5t-147.5 -46.5t-130 17v43q47 -17 120 -17t122.5 36z" />
    <glyph glyph-name="hcedilla" unicode="&#x1e29;" horiz-adv-x="1075" 
d="M229.5 -383q49.5 36 49.5 89t-42.5 82.5t-121.5 29.5h-50v33l66 149h-1v1506h49v-684h2q34 120 139.5 195t243.5 75q178 0 288 -108.5t110 -288.5v-695h-50v693q0 162 -97.5 257.5t-259.5 95.5t-269 -112t-107 -289v-645h-1l-59 -140q94 0 150 -41.5t56 -114.5
t-60.5 -119.5t-147.5 -46.5t-130 17v43q47 -17 120 -17t122.5 36z" />
    <glyph glyph-name="Hbrevebelow" unicode="&#x1e2a;" horiz-adv-x="1296" 
d="M1122 0v718h-948v-718h-50v1443h50v-678h948v678h50v-1443h-50zM436 -144q0 -76 59 -125.5t153 -49.5t153 49.5t59 125.5h45q0 -100 -72 -158.5t-185 -58.5t-185 58.5t-72 158.5h45z" />
    <glyph glyph-name="hbrevebelow" unicode="&#x1e2b;" horiz-adv-x="1075" 
d="M130 1506h49v-684h2q34 120 139.5 195t243.5 75q178 0 288 -108.5t110 -288.5v-695h-50v693q0 162 -97.5 257.5t-259.5 95.5t-269 -112t-107 -289v-645h-49v1506zM332 -144q0 -76 59 -125.5t153 -49.5t153 49.5t59 125.5h45q0 -100 -72 -158.5t-185 -58.5t-185 58.5
t-72 158.5h45z" />
    <glyph glyph-name="Itildebelow" unicode="&#x1e2c;" horiz-adv-x="298" 
d="M286 -308q97 0 97 158h45q0 -142 -53 -172t-87 -30t-60 12.5t-48 31t-41 40.5t-51.5 53t-75.5 31q-97 0 -97 -158h-45q0 143 53 172t87 29t60 -12.5t48 -31t41 -40t51.5 -52.5t75.5 -31zM124 0v1443h50v-1443h-50z" />
    <glyph glyph-name="itildebelow" unicode="&#x1e2d;" horiz-adv-x="309" 
d="M292 -308q97 0 97 158h45q0 -142 -53 -172t-87 -30t-60 12.5t-48 31t-41 40.5t-51.5 53t-75.5 31q-97 0 -97 -158h-45q0 143 53 172t87 29t60 -12.5t48 -31t41 -40t51.5 -52.5t75.5 -31zM155 1366q-20 0 -34.5 14t-14.5 34t14.5 34t34.5 14t34 -14t14 -34t-14 -34
t-34 -14zM130 1076h49v-1076h-49v1076z" />
    <glyph glyph-name="Idieresisacute" unicode="&#x1e2e;" horiz-adv-x="298" 
d="M288 1557q-22 0 -38 15t-16 37t16 37.5t38 15.5t37.5 -15.5t15.5 -37.5t-15.5 -37t-37.5 -15zM10 1557q-22 0 -37.5 15t-15.5 37t15.5 37.5t37.5 15.5t38 -15.5t16 -37.5t-16 -37t-38 -15zM319 1957h63l-221 -202h-56zM124 0v1443h50v-1443h-50z" />
    <glyph glyph-name="idieresisacute" unicode="&#x1e2f;" horiz-adv-x="309" 
d="M130 1076h49v-1076h-49v1076zM294 1254q-22 0 -38 16t-16 38t16 37.5t38 15.5t38.5 -15.5t16.5 -37.5t-16.5 -38t-38.5 -16zM16 1254q-22 0 -38.5 16t-16.5 38t16.5 37.5t38.5 15.5t38 -15.5t16 -37.5t-16 -38t-38 -16zM356 1803h66l-252 -291h-54z" />
    <glyph glyph-name="Kacute" unicode="&#x1e30;" horiz-adv-x="1107" 
d="M124 0v1443h50v-836h4l784 836h64l-594 -635l664 -808h-64l-636 773l-222 -237v-536h-50zM487 1554l293 287h66l-303 -287h-56z" />
    <glyph glyph-name="kacute" unicode="&#x1e31;" horiz-adv-x="913" 
d="M179 0h-49v1506h49v-1003h2l645 573h70l-517 -463l519 -613h-65l-493 583l-161 -142v-441zM117 1617l293 287h66l-303 -287h-56z" />
    <glyph glyph-name="Kdotbelow" unicode="&#x1e32;" horiz-adv-x="1107" 
d="M124 0v1443h50v-836h4l784 836h64l-594 -635l664 -808h-64l-636 773l-222 -237v-536h-50zM525 -268q-26 0 -45 19t-19 45t19 44.5t45 18.5t45 -18.5t19 -44.5t-19 -45t-45 -19z" />
    <glyph glyph-name="kdotbelow" unicode="&#x1e33;" horiz-adv-x="913" 
d="M179 0h-49v1506h49v-1003h2l645 573h70l-517 -463l519 -613h-65l-493 583l-161 -142v-441zM467 -268q-26 0 -45 19t-19 45t19 44.5t45 18.5t45 -18.5t19 -44.5t-19 -45t-45 -19z" />
    <glyph glyph-name="Klinebelow" unicode="&#x1e34;" horiz-adv-x="1107" 
d="M807 -244h-564v43h564v-43zM124 0v1443h50v-836h4l784 836h64l-594 -635l664 -808h-64l-636 773l-222 -237v-536h-50z" />
    <glyph glyph-name="klinebelow" unicode="&#x1e35;" horiz-adv-x="913" 
d="M749 -244h-564v43h564v-43zM179 0h-49v1506h49v-1003h2l645 573h70l-517 -463l519 -613h-65l-493 583l-161 -142v-441z" />
    <glyph glyph-name="Ldotbelow" unicode="&#x1e36;" horiz-adv-x="1009" 
d="M949 0h-825v1443h50v-1396h775v-47zM537 -268q-26 0 -45 19t-19 45t19 44.5t45 18.5t45 -18.5t19 -44.5t-19 -45t-45 -19z" />
    <glyph glyph-name="ldotbelow" unicode="&#x1e37;" horiz-adv-x="309" 
d="M130 1506h49v-1506h-49v1506zM155 -268q-26 0 -45 19t-19 45t19 44.5t45 18.5t45 -18.5t19 -44.5t-19 -45t-45 -19z" />
    <glyph glyph-name="Ldotbelowmacron" unicode="&#x1e38;" horiz-adv-x="1009" 
d="M431 1616h-564v43h564v-43zM949 0h-825v1443h50v-1396h775v-47zM537 -268q-26 0 -45 19t-19 45t19 44.5t45 18.5t45 -18.5t19 -44.5t-19 -45t-45 -19z" />
    <glyph glyph-name="ldotbelowmacron" unicode="&#x1e39;" horiz-adv-x="309" 
d="M437 1679h-564v43h564v-43zM130 1506h49v-1506h-49v1506zM155 -268q-26 0 -45 19t-19 45t19 44.5t45 18.5t45 -18.5t19 -44.5t-19 -45t-45 -19z" />
    <glyph glyph-name="Llinebelow" unicode="&#x1e3a;" horiz-adv-x="1009" 
d="M949 0h-825v1443h50v-1396h775v-47zM819 -244h-564v43h564v-43z" />
    <glyph glyph-name="llinebelow" unicode="&#x1e3b;" horiz-adv-x="309" 
d="M130 1506h49v-1506h-49v1506zM437 -244h-564v43h564v-43z" />
    <glyph glyph-name="Lcircumflexbelow" unicode="&#x1e3c;" horiz-adv-x="1009" 
d="M560 -141l266 -287h-59l-229 249h-2l-229 -249h-59l266 287h46zM949 0h-825v1443h50v-1396h775v-47z" />
    <glyph glyph-name="lcircumflexbelow" unicode="&#x1e3d;" horiz-adv-x="309" 
d="M178 -141l266 -287h-59l-229 249h-2l-229 -249h-59l266 287h46zM130 1506h49v-1506h-49v1506z" />
    </font>
</defs>
</svg>
